<svg width="36" height="23" viewBox="0 0 36 23" fill="none" xmlns="http://www.w3.org/2000/svg">
<path d="M35.7186 12.0287L28.3593 12.7705L21 12.3947V11.6822L28.3593 10.9648L35.7186 11.2821V11.6822V12.0287Z" fill="#756B61"/>
<path d="M28.1983 19.2382L27.4575 11.8691L27.8328 4.5H28.5444L29.2608 11.8691L28.944 19.2382H28.5444H28.1983Z" fill="#756B61"/>
<path d="M33.4332 17.1935L27.7017 12.5085L22.7598 7.03293L23.2666 6.52539L28.9786 11.2299L33.9595 16.6664L33.6768 16.9495L33.4332 17.1935Z" fill="#756B61"/>
<path d="M23.0229 16.9689L27.7017 11.2298L33.17 6.28125L33.6768 6.78879L28.9786 12.5084L23.5493 17.4959L23.2666 17.2129L23.0229 16.9689Z" fill="#756B61"/>
<path d="M5.2624 18.5C5.15818 18.5 5.04962 18.4709 4.94974 18.4127C4.63273 18.2186 4.51548 17.7772 4.68918 17.4231C5.66626 15.4196 5.9355 13.809 5.49256 12.635C5.34925 12.2518 5.16687 12.0093 4.95842 11.723C4.69787 11.3689 4.40257 10.9663 4.22453 10.3259C3.53406 7.881 4.56759 6.06669 5.54467 4.76176C5.77483 4.45129 6.18737 4.41248 6.46095 4.66958C6.73453 4.92669 6.77362 5.38754 6.54346 5.69316C5.69232 6.83317 4.97145 8.1284 5.4665 9.88449C5.57073 10.258 5.74443 10.4957 5.9659 10.7965C6.20474 11.1215 6.47398 11.4902 6.69111 12.0626C7.29907 13.6635 7.00812 15.7009 5.83128 18.1119C5.71403 18.3545 5.48822 18.4903 5.25806 18.4903L5.2624 18.5Z" fill="#756B61"/>
<path d="M1.2624 18.5C1.15818 18.5 1.04962 18.4709 0.949737 18.4127C0.632729 18.2186 0.51548 17.7772 0.689183 17.4231C1.66626 15.4196 1.9355 13.809 1.49256 12.635C1.34925 12.2518 1.16687 12.0093 0.958422 11.723C0.697868 11.3689 0.402573 10.9663 0.224527 10.3259C-0.465942 7.881 0.567591 6.06669 1.54467 4.76176C1.77483 4.45129 2.18737 4.41248 2.46095 4.66958C2.73453 4.92669 2.77362 5.38754 2.54346 5.69316C1.69232 6.83317 0.97145 8.1284 1.4665 9.88449C1.57073 10.258 1.74443 10.4957 1.9659 10.7965C2.20474 11.1215 2.47398 11.4902 2.69111 12.0626C3.29907 13.6635 3.00812 15.7009 1.83128 18.1119C1.71403 18.3545 1.48822 18.4903 1.25806 18.4903L1.2624 18.5Z" fill="#756B61"/>
<path d="M9.2624 18.5C9.15818 18.5 9.04962 18.4709 8.94974 18.4127C8.63273 18.2186 8.51548 17.7772 8.68918 17.4231C9.66626 15.4196 9.93984 13.809 9.49256 12.635C9.34925 12.2518 9.16686 12.0093 8.95842 11.723C8.69787 11.3689 8.40257 10.9663 8.22453 10.3259C7.53406 7.881 8.56759 6.06669 9.54467 4.76176C9.77483 4.45129 10.1874 4.41248 10.461 4.66958C10.7345 4.92669 10.7736 5.38754 10.5435 5.69316C9.69232 6.83317 8.97145 8.1284 9.4665 9.88449C9.57073 10.258 9.74443 10.4957 9.9659 10.7965C10.2047 11.1215 10.474 11.4902 10.6911 12.0626C11.2991 13.6635 11.0081 15.7009 9.83128 18.1119C9.71403 18.3545 9.48822 18.4903 9.25806 18.4903L9.2624 18.5Z" fill="#756B61"/>
<path d="M17.5 1L17.5 22" stroke="#6D6D6D" stroke-linecap="round"/>
</svg>
