<svg width="15" height="27" viewBox="0 0 15 27" fill="none" xmlns="http://www.w3.org/2000/svg">
<g clip-path="url(#clip0_778_2398)">
<path d="M5.42469 11.5721C5.40406 11.8997 5.38625 12.2051 5.36563 12.5105C5.27469 13.8405 5.18344 13.9152 5.09156 15.2452C5.0025 16.5335 5.01844 15.9426 4.8325 17.2274C4.81406 17.6003 4.67937 17.8171 4.39406 18.0557C2.77281 19.4124 2.15063 21.1623 2.67281 23.2145C3.19344 25.2601 4.57125 26.5085 6.63344 26.9121C9.29562 27.4331 11.9481 25.5877 12.4037 22.9076C12.7625 20.7967 12.0375 19.0998 10.3212 17.8322C10.2403 17.7723 10.0884 17.8394 10.0316 17.0103C9.95281 15.8629 9.87312 15.9708 9.79469 14.8231C9.72125 13.7492 9.64844 12.6752 9.57312 11.5686C9.64969 11.6101 9.70687 11.6383 9.76125 11.6706C10.7213 12.2418 11.3906 13.0531 11.7587 14.1126C11.8812 14.465 12.0172 14.562 12.3944 14.5623C13.0766 14.5623 13.7587 14.563 14.4409 14.5623C14.8 14.562 15 14.3599 15 13.9977C15 9.52055 15 5.04367 15 0.567103C15 0.194893 14.8028 0 14.4278 0C9.81375 0 5.2 0 0.585938 0C0.192813 0 0 0.192696 0 0.584678C0 5.04587 0 9.50674 0 13.9679C0 14.3747 0.186875 14.5614 0.592813 14.5617C1.28031 14.5617 1.9675 14.562 2.655 14.5617C2.96812 14.5617 3.12156 14.4528 3.22469 14.1537C3.595 13.0782 4.26375 12.2472 5.24125 11.6691C5.29375 11.638 5.34875 11.612 5.42469 11.5718V11.5721ZM13.9928 13.5577C13.5897 13.5577 13.2044 13.5508 12.8194 13.5612C12.6744 13.565 12.6059 13.5223 12.5475 13.3826C11.4016 10.6388 8.16781 9.30746 5.43312 10.4514C4.03656 11.0358 3.03563 12.0278 2.43563 13.4231C2.39188 13.5251 2.34219 13.5634 2.23063 13.5606C1.90281 13.5527 1.57438 13.5577 1.24656 13.5577C1.16594 13.5577 1.08531 13.5577 1.00906 13.5577V5.03237H13.9928V13.5577ZM7.51062 25.9976C7.32406 25.9822 7.13656 25.9741 6.95125 25.9496C6.79688 25.9292 6.64375 25.8962 6.4925 25.8583C4.54688 25.3687 3.22656 23.3852 3.53969 21.4137C3.73781 20.1656 4.36781 19.1977 5.44219 18.533C6.0325 18.1727 5.98469 16.8373 6.08781 15.3193C6.20687 13.5719 6.32562 13.0801 6.44031 11.3323C6.44781 11.2181 6.48813 11.1691 6.59813 11.1462C7.19813 11.0207 7.79625 11.0201 8.39625 11.1456C8.50219 11.1679 8.55062 11.2109 8.55844 11.3279C8.65937 12.8563 8.76594 14.3844 8.87 15.9128C8.98875 17.6549 8.84094 18.1106 9.53969 18.5217C10.9547 19.4277 11.6225 20.7251 11.4688 22.4064C11.2838 24.4291 9.54062 25.9879 7.51062 25.9976ZM1.00375 1.01746H13.9894V1.99726H1.00375V1.01746ZM1.00937 4.00958V3.0235H13.9875V4.00958H1.00937Z" fill="#756B61"/>
<path d="M7.49857 6.02539C6.67295 6.02602 6.00014 6.70265 6.00076 7.53275C6.00107 8.36159 6.67576 9.03822 7.50139 9.03728C8.3267 9.03665 9.00045 8.35845 8.99951 7.52992C8.99857 6.70108 8.3242 6.02508 7.49857 6.02539ZM7.4967 7.02967C7.76951 7.02779 7.99545 7.24998 7.99951 7.52333C8.00326 7.79606 7.78232 8.02704 7.5117 8.03269C7.23326 8.03865 7.00107 7.81049 7.00107 7.53087C7.00107 7.25846 7.22545 7.03124 7.49701 7.02967H7.4967Z" fill="#756B61"/>
<path d="M4.49978 21.9758C4.50478 23.6451 5.8576 24.9892 7.52322 24.9804C9.17353 24.9716 10.5079 23.6105 10.4995 21.9441C10.4913 20.2949 9.13916 18.9513 7.49103 18.9551C5.83666 18.9589 4.49447 20.314 4.49947 21.9761L4.49978 21.9758ZM9.49916 21.961C9.50197 23.067 8.60822 23.9721 7.50978 23.9762C6.4076 23.9799 5.5051 23.0845 5.49978 21.9817C5.49447 20.8739 6.38541 19.9647 7.48166 19.9597C8.59478 19.9547 9.49635 20.8488 9.49916 21.961Z" fill="#756B61"/>
<path d="M7.49647 7.03126C7.22522 7.03314 7.00053 7.26005 7.00053 7.53246C7.00053 7.81209 7.23272 8.04025 7.51116 8.03428C7.78178 8.02863 8.00303 7.79765 7.99897 7.52493C7.99491 7.25126 7.76897 7.02938 7.49616 7.03126H7.49647Z" fill="white"/>
<path d="M7.50542 22.9728C8.0573 22.97 8.50355 22.5149 8.49948 21.9594C8.49573 21.4058 8.04105 20.9592 7.48698 20.9649C6.9423 20.9705 6.50042 21.4206 6.50042 21.9701C6.50042 22.5237 6.95323 22.9756 7.50511 22.9728H7.50542Z" fill="#756B61"/>
</g>
<defs>
<clipPath id="clip0_778_2398">
<rect width="15" height="27" fill="white" transform="matrix(-1 0 0 1 15 0)"/>
</clipPath>
</defs>
</svg>
