<svg width="30" height="30" viewBox="0 0 30 30" fill="none" xmlns="http://www.w3.org/2000/svg">
<path d="M25.3872 19.2225L23.7481 18.2769L25.009 17.9374C25.4066 17.8308 25.6442 17.4186 25.5375 17.0209L25.3436 16.2983C25.2369 15.9007 24.8247 15.6631 24.427 15.7698L20.9937 16.6911L17.8949 14.8969L20.9888 13.1074L24.4222 14.0288C24.8198 14.1355 25.232 13.8979 25.3387 13.5002L25.5327 12.7777C25.6394 12.38 25.4018 11.9678 25.0041 11.8612L23.7433 11.5217L25.3824 10.5761C25.7412 10.3675 25.8625 9.91169 25.6588 9.55284L24.9071 8.2532C24.6986 7.89435 24.2428 7.77311 23.8839 7.97679L22.2448 8.92242L22.5843 7.66158C22.691 7.26393 22.4533 6.85173 22.0557 6.74504L21.3331 6.55106C20.9355 6.44438 20.5233 6.682 20.4166 7.07965L19.4952 10.513L16.4498 12.2685V8.51022L19.0539 5.90609C19.3546 5.60543 19.3546 5.11079 19.0539 4.81013L18.5059 4.26215C18.2053 3.96149 17.7106 3.96149 17.41 4.26215L16.4498 5.21748V3.25832C16.4498 2.83158 16.1006 2.48242 15.6739 2.48242H14.1221C13.6953 2.48242 13.3462 2.83158 13.3462 3.25832V5.21748L12.3908 4.26215C12.0902 3.96149 11.5955 3.96149 11.2949 4.26215L10.742 4.81013C10.4365 5.11079 10.4365 5.60543 10.742 5.90609L13.3462 8.51022V12.2685L10.3008 10.513L9.37937 7.07965C9.27268 6.682 8.86048 6.44438 8.46283 6.55106L7.74027 6.74504C7.34262 6.85173 7.105 7.26393 7.21169 7.66158L7.55115 8.92242L5.91205 7.97679C5.55319 7.76826 5.09735 7.89435 4.88883 8.2532L4.13717 9.54799C3.92865 9.90684 4.05473 10.3627 4.41359 10.5712L6.05268 11.5168L4.79184 11.8563C4.38934 11.963 4.15172 12.3752 4.25841 12.7777L4.45238 13.5002C4.55907 13.8979 4.97127 14.1355 5.36892 14.0288L8.80229 13.1074L11.8962 14.8969L8.80229 16.6863L5.36892 15.7649C4.97127 15.6582 4.55907 15.8958 4.45238 16.2935L4.25841 17.0161C4.15172 17.4137 4.38934 17.8259 4.78699 17.9326L6.04783 18.272L4.40874 19.2225C4.04988 19.4311 3.92865 19.8869 4.13232 20.2458L4.88398 21.5454C5.0925 21.9042 5.54835 22.0255 5.9072 21.8218L7.5463 20.8762L7.20684 22.137C7.10015 22.5347 7.33777 22.9469 7.73542 23.0536L8.45798 23.2475C8.85563 23.3542 9.26783 23.1166 9.37452 22.7189L10.2959 19.2856L13.3413 17.5301V21.2884L10.7372 23.8925C10.4317 24.1932 10.4317 24.6878 10.7372 24.9885L11.2852 25.5364C11.5858 25.8371 12.0805 25.8371 12.3811 25.5364L13.3365 24.5811V26.5354C13.3365 26.9622 13.6856 27.3113 14.1124 27.3113H15.6642C16.0909 27.3113 16.4401 26.9622 16.4401 26.5354V24.5763L17.3954 25.5316C17.6961 25.8323 18.1907 25.8323 18.4914 25.5316L19.0394 24.9836C19.34 24.6829 19.34 24.1883 19.0394 23.8876L16.4498 21.2835V17.5252L19.4952 19.2807L20.4166 22.7141C20.5233 23.1117 20.9355 23.3494 21.3331 23.2427L22.0557 23.0487C22.4533 22.942 22.691 22.5298 22.5843 22.1322L22.2448 20.8713L23.8839 21.817C24.2428 22.0255 24.6986 21.8994 24.9071 21.5405L25.6588 20.2409C25.8673 19.8869 25.7461 19.4262 25.3872 19.2225Z" fill="#756B61"/>
</svg>
