<?xml version="1.0" encoding="UTF-8" standalone="no"?>
<svg
   width="35"
   height="35"
   viewBox="0 0 35 35"
   fill="none"
   version="1.1"
   id="svg638"
   xmlns="http://www.w3.org/2000/svg"
   xmlns:svg="http://www.w3.org/2000/svg">
  <defs
     id="defs642" />
  <path
     id="rect634"
     style="fill:#756b61"
     d="m 13.925,11.667 h 7.15 c 0.4432,0 0.8,0.3568 0.8,0.8 v 14.4417 c 0,0.4432 -0.3568,0.8 -0.8,0.8 h -7.15 c -0.4432,0 -0.8,-0.3568 -0.8,-0.8 V 12.467 c 0,-0.4432 0.3568,-0.8 0.8,-0.8 z M 12.666016,9.2089844 c -1.099351,0 -2,0.9006496 -2,1.9999996 v 16.957032 c 0,1.09935 0.900649,2 2,2 h 9.667968 c 1.099351,0 2,-0.90065 2,-2 V 11.208984 c 0,-1.09935 -0.900649,-1.9999996 -2,-1.9999996 z m 0,0.9999996 h 9.667968 c 0.562648,0 1,0.437352 1,1 v 16.957032 c 0,0.562648 -0.437352,1 -1,1 h -9.667968 c -0.562648,0 -1,-0.437352 -1,-1 V 11.208984 c 0,-0.562648 0.437352,-1 1,-1 z" />
  <path
     fill-rule="evenodd"
     clip-rule="evenodd"
     d="M13.4179 4.66789C13.125 4.96079 13.125 5.43219 13.125 6.375V7.29167H21.875V6.375C21.875 5.43219 21.875 4.96079 21.5821 4.66789C21.2892 4.375 20.8178 4.375 19.875 4.375H15.125C14.1822 4.375 13.7108 4.375 13.4179 4.66789Z"
     fill="#756B61"
     id="path636" />
</svg>
