<svg width="15" height="22" viewBox="0 0 15 22" fill="none" xmlns="http://www.w3.org/2000/svg">
<path d="M5.37647 21.9962C5.58922 20.9056 5.80595 19.8169 6.01074 18.7244C6.07238 18.3964 6.09823 18.0627 6.13999 17.7329C6.21356 17.1418 6.14595 17.0484 5.52957 17.0598C4.12184 17.0846 2.88909 16.6404 1.8492 15.75C0.723809 14.789 0.0617048 13.5687 0.0279034 12.1197C-0.0218045 9.91365 0.0159706 7.70764 6.40758e-05 5.50163C-0.00391256 5.08026 0.177022 4.94489 0.594569 4.95442C1.3382 4.97349 2.08382 4.9487 2.82944 4.96396C3.23704 4.97158 3.39015 4.80761 3.38617 4.42437C3.37424 3.34519 3.38021 2.26603 3.38418 1.18685C3.38418 1.0286 3.37423 0.864625 3.414 0.713998C3.52535 0.284999 3.80769 0.0180676 4.28488 0.00090759C4.74021 -0.0162524 5.04244 0.210641 5.17367 0.620574C5.23531 0.813147 5.25121 1.02669 5.25319 1.2307C5.26115 2.29462 5.26512 3.35854 5.25319 4.42056C5.24922 4.79235 5.36653 4.9754 5.79203 4.96968C6.93333 4.95252 8.07661 4.95633 9.21989 4.96586C9.60562 4.96967 9.75078 4.81142 9.74879 4.45106C9.73885 3.38714 9.7468 2.32322 9.74879 1.26121C9.74879 1.10296 9.74083 0.940892 9.76469 0.786453C9.83428 0.3422 10.1047 0.06001 10.5719 0.00853006C11.0432 -0.0429499 11.3931 0.174409 11.5244 0.603409C11.6099 0.885595 11.6118 1.19639 11.6158 1.49573C11.6257 2.44716 11.6158 3.40049 11.6218 4.35382C11.6238 4.93154 11.6615 4.96396 12.2799 4.96396C13.0076 4.96396 13.7373 4.97539 14.4651 4.96014C14.8428 4.95251 15.0039 5.08026 14.9999 5.45587C14.9741 7.7248 15.0119 9.99564 14.9284 12.2627C14.8329 14.8405 12.4449 17.0007 9.75077 17.0579C8.75064 17.0789 8.77451 17.0827 8.61345 18.0246C8.38679 19.3536 8.11637 20.6749 7.86585 22H5.38045L5.37647 21.9962ZM5.44806 14.8824C5.5097 14.911 5.57133 14.9377 5.63098 14.9663C5.90736 14.6612 6.18771 14.36 6.45614 14.0511C7.53579 12.8118 8.61545 11.5686 9.68715 10.3236C9.77464 10.2225 9.80445 10.0776 9.86211 9.95179C9.71299 9.90221 9.56784 9.81832 9.41673 9.81069C8.92164 9.78591 8.42456 9.77828 7.92947 9.784C7.54772 9.78781 7.41649 9.67532 7.5676 9.29971C7.8559 8.57327 8.11439 7.83729 8.37684 7.10323C8.44047 6.92209 8.4703 6.72952 8.51603 6.54267C8.47626 6.51979 8.43848 6.495 8.39871 6.47212C8.26748 6.57127 8.11439 6.65135 8.00503 6.77147C6.80409 8.10042 5.60712 9.43318 4.41413 10.7698C4.33659 10.8575 4.31073 10.9871 4.26103 11.0977C4.39225 11.1473 4.5215 11.2331 4.65472 11.2369C5.18361 11.254 5.7125 11.2521 6.24139 11.2426C6.65298 11.235 6.77426 11.3475 6.59929 11.7498C6.23145 12.5982 5.90338 13.462 5.56934 14.3238C5.50174 14.5011 5.48384 14.6956 5.44408 14.8824H5.44806Z" fill="#756B61"/>
</svg>
