<?xml version="1.0" encoding="UTF-8" standalone="no"?>
<svg
   width="35"
   height="35"
   viewBox="0 0 35 35"
   fill="none"
   version="1.1"
   id="svg269"
   xmlns="http://www.w3.org/2000/svg"
   xmlns:svg="http://www.w3.org/2000/svg">
  <defs
     id="defs273" />
  <path
     id="rect261"
     style="fill:#756b61"
     d="m 13.925781,11.666016 c -0.443198,0 -0.800781,0.357581 -0.800781,0.800781 v 14.441406 c 0,0.4432 0.357583,0.798828 0.800781,0.798828 h 7.148438 c 0.443198,0 0.800781,-0.355628 0.800781,-0.798828 V 12.466797 c 0,-0.4432 -0.357583,-0.800781 -0.800781,-0.800781 z m 2.398438,3.335937 c 0.110725,-0.0094 0.225206,0.02225 0.316406,0.0957 0.1824,0.1469 0.208187,0.409385 0.05469,0.583985 -0.567398,0.651398 -1.046896,1.391033 -0.716796,2.394531 0.0695,0.2134 0.184431,0.349584 0.332031,0.521484 0.1592,0.1857 0.339575,0.39751 0.484375,0.72461 0.405298,0.914798 0.210279,2.07738 -0.574219,3.455078 -0.0782,0.1386 -0.229414,0.216797 -0.382812,0.216797 L 15.841797,23 c -0.0695,0 -0.142485,-0.01748 -0.208985,-0.05078 -0.211398,-0.1109 -0.289628,-0.362055 -0.173828,-0.564453 0.6513,-1.144798 0.830455,-2.06553 0.535157,-2.736328 -0.0955,-0.219 -0.216469,-0.357985 -0.355469,-0.521485 -0.1737,-0.2024 -0.369581,-0.432928 -0.488281,-0.798828 -0.4603,-1.397098 0.227508,-2.432036 0.878906,-3.177734 0.0767,-0.0887 0.184197,-0.139075 0.294922,-0.148438 z m 3,0 c 0.110725,-0.0094 0.225206,0.02225 0.316406,0.0957 0.1824,0.1469 0.208187,0.409385 0.05469,0.583985 -0.567399,0.651399 -1.046896,1.391032 -0.716796,2.394531 0.0695,0.2134 0.184431,0.349584 0.332031,0.521484 0.1592,0.1857 0.339575,0.39751 0.484375,0.72461 0.405299,0.914799 0.21028,2.077379 -0.574219,3.455078 -0.0782,0.1386 -0.229413,0.216797 -0.382812,0.216797 L 18.841797,23 c -0.0695,0 -0.142485,-0.01748 -0.208985,-0.05078 -0.211399,-0.1109 -0.289628,-0.362054 -0.173828,-0.564453 0.6513,-1.144799 0.833356,-2.065529 0.535157,-2.736328 -0.0955,-0.219 -0.216469,-0.357985 -0.355469,-0.521485 -0.1737,-0.2024 -0.369581,-0.432928 -0.488281,-0.798828 -0.4603,-1.397099 0.227507,-2.432035 0.878906,-3.177734 0.0767,-0.0887 0.184197,-0.139075 0.294922,-0.148438 z M 12.666016,9.2089844 c -1.099351,0 -2,0.9006496 -2,1.9999996 v 16.958985 c 0,1.09935 0.900649,2 2,2 h 9.667968 c 1.099351,0 2,-0.90065 2,-2 V 11.208984 c 0,-1.09935 -0.900649,-1.9999996 -2,-1.9999996 h -8.361328 z m 0,0.9999996 h 1.30664 8.361328 c 0.562648,0 1,0.437352 1,1 v 16.958985 c 0,0.562648 -0.437352,1 -1,1 h -9.667968 c -0.562648,0 -1,-0.437352 -1,-1 V 11.208984 c 0,-0.562648 0.437352,-1 1,-1 z" />
  <path
     fill-rule="evenodd"
     clip-rule="evenodd"
     d="M13.4179 4.66789C13.125 4.96079 13.125 5.43219 13.125 6.375V7.29167H21.875V6.375C21.875 5.43219 21.875 4.96079 21.5821 4.66789C21.2892 4.375 20.8178 4.375 19.875 4.375H15.125C14.1822 4.375 13.7108 4.375 13.4179 4.66789Z"
     fill="#756B61"
     id="path263" />
</svg>
