<svg width="29" height="25" viewBox="0 0 29 25" fill="none" xmlns="http://www.w3.org/2000/svg">
<g clip-path="url(#clip0_778_2335)">
<path d="M16.1349 3.99283C16.141 3.49426 16.4148 3.2301 16.938 3.2301C17.9525 3.2301 18.9683 3.22653 19.984 3.2301C20.5096 3.23248 20.7676 3.50854 20.77 4.0083C20.7737 4.85671 20.7749 15.0245 20.7712 18.5085C20.7737 19.2451 20.7737 19.9805 20.7688 20.717V20.7194C20.7639 21.2322 20.4595 21.4797 19.9559 21.4857C18.9585 21.4952 17.9598 21.4952 16.9624 21.4857C16.4246 21.4809 16.1312 21.2096 16.1312 20.673C16.1312 19.9769 16.1312 19.2808 16.1312 18.5847C16.1263 15.1911 16.1251 4.84957 16.1349 3.99283ZM17.3536 19.9757V20.2982C17.7227 20.3005 18.0906 20.3017 18.4598 20.3017C18.8289 20.3017 19.1858 20.3005 19.5489 20.2982C19.5513 19.7544 19.5513 19.1654 19.5489 18.5121C19.5526 15.2113 19.5513 6.5083 19.5489 4.41882C19.3545 4.41882 19.1614 4.41882 18.9683 4.41882H17.3548C17.3475 6.57256 17.3487 15.4005 17.3536 18.5835C17.3536 19.05 17.3536 19.514 17.3536 19.9769V19.9757Z" fill="#756B61"/>
<path d="M9.1919 3.98533C9.2029 3.49509 9.48403 3.2226 10.0133 3.22974C10.523 3.2345 11.0315 3.22974 11.5412 3.22974C12.0094 3.22974 12.4788 3.2226 12.9469 3.22974C13.5789 3.24044 13.8099 3.44868 13.8172 4.03887C13.8282 5.00984 13.8172 19.7171 13.8209 20.6893V20.6917C13.8209 21.2033 13.5556 21.477 13.0435 21.4841C12.0253 21.4972 11.0058 21.4948 9.98764 21.4841C9.46814 21.4794 9.19678 21.1819 9.18945 20.694C9.17356 19.7028 9.17112 4.97533 9.1919 3.98414V3.98533ZM10.4093 20.299C10.8249 20.3026 11.2149 20.3037 11.5938 20.3037C11.9373 20.3037 12.2734 20.3026 12.5986 20.299C12.5986 19.472 12.5986 17.5777 12.5986 15.2942C12.5986 11.2747 12.601 5.92488 12.5961 4.41608C12.5411 4.41608 12.4849 4.41608 12.4299 4.41608C12.2832 4.41608 12.1377 4.41608 11.9911 4.41727C11.8407 4.41727 11.6904 4.41846 11.5412 4.41846C11.3725 4.41846 10.4472 4.42084 10.4106 4.42084C10.3971 6.81731 10.3959 17.9239 10.4093 20.2978V20.299Z" fill="#756B61"/>
<path d="M0.00624084 17.7285C0.0147972 17.1026 0.253155 16.8753 0.902216 16.8693C2.02677 16.8586 4.27587 16.8527 4.27587 16.8527L4.99461 16.8253L5.03372 16.8063V15.47H4.99828V14.4396H5.03372V11.3089H4.99828V8.59353H5.08017V3.4198C5.08139 1.70871 5.98959 0.471204 7.54563 0.0987625V0.00237982C11.2762 0.00118991 15.0056 0 18.7361 0V0.00832937H21.2285C23.2698 0.00832937 24.4787 0.868634 24.876 2.6773L24.92 3.17825C24.9053 3.21514 24.9114 3.20681 24.9114 3.25321V15.664H24.8821C24.8821 15.9448 24.8821 16.2256 24.8821 16.5064C24.9077 16.5064 24.9334 16.5064 24.9579 16.5052C24.9579 16.5052 24.9579 16.5064 24.9579 16.5076C25.2072 16.5076 25.4566 16.5076 25.7071 16.5076C26.0078 16.5136 26.3098 16.5267 26.6129 16.5505C26.9992 16.5814 27.383 16.5921 27.7558 16.5088C27.7973 16.5088 27.8401 16.5088 27.8817 16.5088C28.8449 16.5124 28.994 16.6528 28.9977 17.5666C29.0014 18.3996 29.0001 19.2325 28.9977 20.0654C28.994 20.9127 28.8229 21.084 27.9697 21.0876C26.9747 21.0911 25.981 21.0876 24.9383 21.0876V21.1471H24.8808C24.8808 21.1673 24.8808 21.1863 24.8808 21.2066C24.8808 21.717 24.8601 22.2477 24.7232 22.7356C24.3283 24.1445 23.0852 24.9774 21.4424 24.9786C17.5859 24.9822 13.7307 24.981 9.87419 24.981C9.36692 24.9869 8.85965 24.9929 8.35238 25C8.21547 25.0024 8.08346 25 7.95267 24.9952V24.9798H7.54563V24.8536C6.8489 24.7442 5.01661 24.198 5.01661 21.4719C3.74293 21.4719 2.46314 21.4731 1.18458 21.4719C0.167591 21.4707 0.00502014 21.3172 0.00257492 20.3475C0.00135231 19.4753 -0.00598145 18.6019 0.00624084 17.7297V17.7285ZM1.44249 20.0726H4.94082C5.98348 20.0726 6.50786 20.5795 6.5152 21.5933C6.51398 23.0212 7.50285 23.4091 7.75343 23.4852V23.5995H18.7349V23.6078H21.3776C22.7344 23.6066 23.4519 22.8974 23.4544 21.5838C23.4556 20.9745 23.4544 20.3665 23.4544 19.7573H24.6682C24.81 19.7323 24.964 19.7192 25.1314 19.7192H27.5419V17.8736C26.4381 17.8736 25.382 17.8808 24.3259 17.8713C23.7526 17.8653 23.5192 17.6773 23.469 17.1847C23.4642 17.1811 23.4605 17.1775 23.4556 17.174C23.4556 16.8789 23.4556 16.5838 23.4556 16.2899C23.4556 16.1007 23.4373 15.9103 23.4275 15.7389C23.4189 15.7366 23.4128 15.7354 23.4055 15.733V2.6773C23.1647 1.80271 22.4411 1.37673 21.2493 1.37673C18.4978 1.37554 15.7475 1.37673 12.996 1.37673H7.75465V1.48263C6.91857 1.72775 6.51887 2.3703 6.51642 3.44122C6.51398 4.9881 6.51642 6.53498 6.51642 8.08187V8.59234H6.59221C6.59098 8.77082 6.59098 8.9505 6.59098 9.12899H6.57265V9.29319H6.6081C6.6081 11.3517 6.60076 13.4091 6.59465 15.4676H6.55065V15.6759H6.5152C6.5152 16.2661 6.51887 16.7611 6.5152 17.2561C6.51031 18.0521 6.28907 18.2627 5.45299 18.2663C4.49467 18.2687 3.53758 18.2663 2.57927 18.2663H1.44371V20.0726H1.44249Z" fill="#756B61"/>
</g>
<defs>
<clipPath id="clip0_778_2335">
<rect width="29" height="25" fill="white" transform="matrix(-1 0 0 1 29 0)"/>
</clipPath>
</defs>
</svg>
