<svg width="32" height="32" viewBox="0 0 32 32" fill="none" xmlns="http://www.w3.org/2000/svg">
<path d="M19.6693 27.1562H15.7943C15.4376 27.1562 15.1484 27.4454 15.1484 27.8021V31.3542C15.1484 31.7109 15.4376 32 15.7943 32H19.6693C20.026 32 20.3151 31.7109 20.3151 31.3542V27.8021C20.3151 27.4454 20.026 27.1562 19.6693 27.1562Z" fill="#756B61"/>
<path d="M18.3779 18.1146V20.0521C18.3779 20.2234 18.446 20.3876 18.5671 20.5088C18.6882 20.6299 18.8525 20.6979 19.0238 20.6979H28.9696C29.0257 20.6977 29.0808 20.683 29.1294 20.655C29.1781 20.6271 29.2186 20.587 29.247 20.5386C29.2754 20.4902 29.2908 20.4353 29.2915 20.3792C29.2922 20.3231 29.2783 20.2678 29.2512 20.2187L27.9091 17.8007C27.8531 17.6999 27.771 17.6159 27.6715 17.5576C27.5721 17.4992 27.4587 17.4685 27.3434 17.4688H19.0238C18.8525 17.4688 18.6882 17.5368 18.5671 17.6579C18.446 17.779 18.3779 17.9433 18.3779 18.1146Z" fill="#756B61"/>
<path d="M16.4399 17.4688H8.11639C8.00125 17.4687 7.88821 17.4995 7.78897 17.5579C7.68972 17.6163 7.60788 17.7001 7.55193 17.8007L6.20343 20.2187C6.17622 20.2679 6.16233 20.3233 6.16312 20.3795C6.16391 20.4357 6.17935 20.4907 6.20792 20.5392C6.23649 20.5876 6.2772 20.6277 6.32603 20.6555C6.37485 20.6833 6.4301 20.698 6.4863 20.6979H16.4321C16.6034 20.6979 16.7677 20.6299 16.8888 20.5088C17.0099 20.3876 17.078 20.2234 17.078 20.0521V18.1146C17.078 17.9446 17.011 17.7815 16.8916 17.6606C16.7721 17.5397 16.6098 17.4708 16.4399 17.4688Z" fill="#756B61"/>
<path d="M18.3779 13.5941V15.5316C18.3779 15.7029 18.446 15.8671 18.5671 15.9883C18.6882 16.1094 18.8525 16.1774 19.0238 16.1774H26.4612C26.5174 16.1775 26.5726 16.1628 26.6215 16.135C26.6703 16.1072 26.711 16.067 26.7396 16.0186C26.7681 15.9702 26.7836 15.9152 26.7844 15.859C26.7852 15.8028 26.7713 15.7474 26.7441 15.6982L25.5816 13.6122C25.4696 13.4109 25.306 13.2432 25.1075 13.1265C24.909 13.0098 24.6829 12.9482 24.4526 12.9482H19.0238C18.8525 12.9482 18.6882 13.0163 18.5671 13.1374C18.446 13.2585 18.3779 13.4228 18.3779 13.5941Z" fill="#756B61"/>
<path d="M17.0856 13.5941C17.0856 13.4228 17.0176 13.2585 16.8965 13.1374C16.7754 13.0163 16.6111 12.9482 16.4398 12.9482H11.0071C10.7767 12.9484 10.5505 13.0101 10.352 13.1271C10.1535 13.244 9.98988 13.412 9.87814 13.6135L8.71564 15.6982C8.68849 15.7473 8.67459 15.8026 8.67532 15.8587C8.67605 15.9148 8.69138 15.9697 8.7198 16.0181C8.74822 16.0665 8.78875 16.1066 8.83739 16.1345C8.88604 16.1625 8.94112 16.1772 8.99722 16.1774H16.4346C16.6059 16.1774 16.7702 16.1094 16.8913 15.9883C17.0124 15.8671 17.0805 15.7029 17.0805 15.5316L17.0856 13.5941Z" fill="#756B61"/>
<path d="M31.3256 23.9452L30.4214 22.3202C30.3655 22.2196 30.2836 22.1358 30.1844 22.0774C30.0851 22.0191 29.9721 21.9883 29.857 21.9883H19.0238C18.8525 21.9883 18.6882 22.0563 18.5671 22.1774C18.446 22.2986 18.3779 22.4628 18.3779 22.6341V25.2174C18.3779 25.3887 18.446 25.553 18.5671 25.6741C18.6882 25.7952 18.8525 25.8633 19.0238 25.8633H30.1967C30.4215 25.8632 30.6423 25.8044 30.8374 25.6928C31.0326 25.5811 31.1952 25.4205 31.3092 25.2268C31.4232 25.033 31.4847 24.8129 31.4876 24.5881C31.4904 24.3634 31.4346 24.1417 31.3256 23.9452Z" fill="#756B61"/>
<path d="M17.086 25.2175V22.6341C17.086 22.4628 17.0179 22.2986 16.8968 22.1774C16.7757 22.0563 16.6114 21.9883 16.4401 21.9883H5.60434C5.48921 21.9883 5.37617 22.0191 5.27692 22.0774C5.17768 22.1358 5.09584 22.2196 5.03989 22.3202L4.13572 23.9452C4.02664 24.1418 3.97081 24.3636 3.97374 24.5885C3.97668 24.8134 4.03828 25.0336 4.15245 25.2273C4.26662 25.4211 4.42941 25.5817 4.6247 25.6932C4.81999 25.8048 5.04103 25.8634 5.26593 25.8633H16.4388C16.5238 25.8635 16.6079 25.8469 16.6864 25.8145C16.7649 25.7821 16.8362 25.7346 16.8963 25.6746C16.9565 25.6146 17.0041 25.5433 17.0367 25.4649C17.0692 25.3865 17.086 25.3024 17.086 25.2175Z" fill="#756B61"/>
<path d="M6.56686 12.594C6.65032 12.6935 6.75291 12.7751 6.86855 12.8342C6.98419 12.8932 7.11051 12.9284 7.24001 12.9376C7.36952 12.9469 7.49955 12.93 7.6224 12.888C7.74525 12.846 7.8584 12.7797 7.95513 12.6931C8.05186 12.6065 8.1302 12.5013 8.18549 12.3839C8.24078 12.2664 8.27189 12.139 8.27697 12.0093C8.28206 11.8795 8.26102 11.7501 8.21509 11.6287C8.16917 11.5072 8.09931 11.3963 8.00965 11.3024C7.69558 10.9512 7.47156 10.529 7.35691 10.0721C7.24226 9.61514 7.24041 9.13718 7.35151 8.67937C7.46261 8.22155 7.68335 7.79761 7.99469 7.44406C8.30604 7.09051 8.69867 6.81794 9.13875 6.64984C9.57884 6.48174 10.0532 6.42314 10.521 6.4791C10.9887 6.53505 11.4359 6.70388 11.8239 6.97104C12.2119 7.2382 12.5292 7.59568 12.7484 8.01269C12.9675 8.42971 13.082 8.89375 13.082 9.36485C13.082 9.62178 13.1841 9.86818 13.3658 10.0499C13.5474 10.2315 13.7938 10.3336 14.0508 10.3336C14.3077 10.3336 14.5541 10.2315 14.7358 10.0499C14.9175 9.86818 15.0195 9.62178 15.0195 9.36485C15.0198 8.57954 14.8291 7.80594 14.4639 7.11072C14.0987 6.41549 13.5699 5.81949 12.9231 5.37406C12.2764 4.92863 11.531 4.64714 10.7513 4.55384C9.97151 4.46054 9.18077 4.55822 8.44717 4.83848C7.71357 5.11874 7.05912 5.57316 6.54019 6.16259C6.02127 6.75203 5.65344 7.45879 5.46841 8.22199C5.28337 8.98519 5.28668 9.78194 5.47803 10.5436C5.66939 11.3052 6.04307 12.0089 6.56686 12.594Z" fill="#756B61"/>
<path d="M10.1758 3.22917C10.4327 3.22917 10.6791 3.1271 10.8608 2.94543C11.0425 2.76375 11.1445 2.51735 11.1445 2.26042V0.96875C11.1445 0.711822 11.0425 0.465416 10.8608 0.28374C10.6791 0.102064 10.4327 0 10.1758 0C9.91885 0 9.67245 0.102064 9.49077 0.28374C9.3091 0.465416 9.20703 0.711822 9.20703 0.96875V2.26042C9.20703 2.51735 9.3091 2.76375 9.49077 2.94543C9.67245 3.1271 9.91885 3.22917 10.1758 3.22917Z" fill="#756B61"/>
<path d="M15.8911 5.02571L16.8043 4.1125C16.8968 4.0231 16.9706 3.91617 17.0213 3.79795C17.072 3.67974 17.0986 3.5526 17.0997 3.42397C17.1008 3.29534 17.0762 3.16779 17.0274 3.04876C16.9787 2.92973 16.9067 2.8216 16.8157 2.73068C16.7247 2.63977 16.6165 2.56789 16.4974 2.51923C16.3783 2.47058 16.2507 2.44613 16.1221 2.44731C15.9935 2.44848 15.8664 2.47527 15.7482 2.52609C15.63 2.57692 15.5232 2.65077 15.4339 2.74334L14.5207 3.65655C14.3443 3.83934 14.2467 4.08409 14.2491 4.3381C14.2514 4.5921 14.3534 4.83503 14.5331 5.01456C14.7128 5.19409 14.9558 5.29585 15.2098 5.29794C15.4638 5.30003 15.7085 5.20227 15.8911 5.02571Z" fill="#756B61"/>
<path d="M16.3105 9.36426C16.3105 9.62119 16.4126 9.86759 16.5943 10.0493C16.776 10.2309 17.0224 10.333 17.2793 10.333H18.571C18.8279 10.333 19.0743 10.2309 19.256 10.0493C19.4376 9.86759 19.5397 9.62119 19.5397 9.36426C19.5397 9.10733 19.4376 8.86092 19.256 8.67925C19.0743 8.49757 18.8279 8.39551 18.571 8.39551H17.2793C17.0224 8.39551 16.776 8.49757 16.5943 8.67925C16.4126 8.86092 16.3105 9.10733 16.3105 9.36426Z" fill="#756B61"/>
<path d="M4.46763 5.02625C4.65128 5.19737 4.89417 5.29053 5.14514 5.28611C5.39611 5.28168 5.63557 5.18001 5.81306 5.00252C5.99055 4.82502 6.09222 4.58557 6.09665 4.3346C6.10108 4.08362 6.00792 3.84073 5.8368 3.65709L4.92359 2.74388C4.8349 2.6487 4.72795 2.57236 4.60912 2.51941C4.49029 2.46646 4.36201 2.43799 4.23193 2.4357C4.10186 2.4334 3.97265 2.45733 3.85203 2.50605C3.7314 2.55478 3.62182 2.6273 3.52983 2.71929C3.43784 2.81128 3.36532 2.92086 3.3166 3.04148C3.26788 3.16211 3.24395 3.29131 3.24624 3.42139C3.24854 3.55146 3.27701 3.67974 3.32996 3.79857C3.38291 3.91741 3.45925 4.02436 3.55443 4.11305L4.46763 5.02625Z" fill="#756B61"/>
<path d="M4.92359 15.9862L5.8368 15.073C5.93198 14.9843 6.00832 14.8774 6.06127 14.7585C6.11422 14.6397 6.14269 14.5114 6.14498 14.3813C6.14728 14.2513 6.12335 14.1221 6.07463 14.0014C6.0259 13.8808 5.95338 13.7712 5.86139 13.6792C5.7694 13.5873 5.65982 13.5147 5.5392 13.466C5.41857 13.4173 5.28937 13.3934 5.15929 13.3957C5.02922 13.398 4.90094 13.4264 4.7821 13.4794C4.66327 13.5323 4.55632 13.6087 4.46763 13.7038L3.55443 14.617C3.45925 14.7057 3.38291 14.8127 3.32996 14.9315C3.27701 15.0504 3.24854 15.1786 3.24624 15.3087C3.24395 15.4388 3.26788 15.568 3.3166 15.6886C3.36532 15.8092 3.43784 15.9188 3.52983 16.0108C3.62182 16.1028 3.7314 16.1753 3.85203 16.224C3.97265 16.2728 4.10186 16.2967 4.23193 16.2944C4.36201 16.2921 4.49029 16.2636 4.60912 16.2107C4.72795 16.1577 4.8349 16.0814 4.92359 15.9862Z" fill="#756B61"/>
<path d="M4.03971 9.36426C4.03971 9.10733 3.93765 8.86092 3.75597 8.67925C3.5743 8.49757 3.32789 8.39551 3.07096 8.39551H1.7793C1.52237 8.39551 1.27596 8.49757 1.09429 8.67925C0.912611 8.86092 0.810547 9.10733 0.810547 9.36426C0.810547 9.62119 0.912611 9.86759 1.09429 10.0493C1.27596 10.2309 1.52237 10.333 1.7793 10.333H3.07096C3.32789 10.333 3.5743 10.2309 3.75597 10.0493C3.93765 9.86759 4.03971 9.62119 4.03971 9.36426Z" fill="#756B61"/>
</svg>
