<svg width="35" height="45" viewBox="0 0 35 45" fill="none" xmlns="http://www.w3.org/2000/svg">
<path opacity="0.7" d="M9.29521 31.2671C9.1305 30.3449 8.95722 29.4841 8.82797 28.6165C8.70673 27.804 9.31122 27.0864 10.1856 26.9477C10.4298 26.9091 10.6723 26.8597 10.9171 26.829C11.0807 26.8085 11.1436 26.7279 11.155 26.5699C11.2305 25.475 11.3094 24.3807 11.3912 23.2864C11.4581 22.3904 11.5319 21.4949 11.5988 20.5989C11.6091 20.4608 11.6005 20.3216 11.6005 20.1665C11.4084 20.1949 11.2397 20.2205 11.0709 20.2443C10.6334 20.3057 10.2142 20.0358 10.1325 19.6415C10.0324 19.1574 10.2606 18.737 10.7347 18.6409C11.656 18.4546 12.5842 18.3 13.5106 18.1375C15.4105 17.804 17.3109 17.475 19.2107 17.1409C19.7129 17.0529 20.088 17.2932 20.2058 17.7932C20.3088 18.2307 20.0508 18.6307 19.5819 18.7506C19.408 18.7949 19.2307 18.8245 19.0237 18.8671C19.054 18.9585 19.0729 19.037 19.1055 19.1091C19.949 20.971 20.7966 22.8307 21.6333 24.6955C21.7173 24.883 21.8237 24.9284 22.0073 24.8904C22.2401 24.8421 22.4745 24.8057 22.7084 24.7608C23.6149 24.5881 24.3938 25.0767 24.5602 25.9705C24.8816 27.6977 25.1762 29.4296 25.481 31.1602C25.4839 31.1756 25.4696 31.1938 25.4518 31.2404C23.89 30.9716 22.8365 29.8523 21.6379 28.962C21.2181 29.296 20.8235 29.6398 20.398 29.9415C19.9187 30.2813 19.4309 30.6171 18.9139 30.8949C17.9955 31.3881 17.0553 31.3591 16.1208 30.8989C15.2149 30.4523 14.4629 29.7932 13.6834 29.1722C13.5953 29.1023 13.5055 29.0347 13.422 28.9693C12.1312 29.887 11.0509 31.1392 9.29635 31.2682L9.29521 31.2671ZM12.8358 26.4892C15.2618 26.0637 17.634 25.6472 20.0446 25.2245C19.7386 24.5466 19.4435 23.9131 19.1684 23.271C19.0838 23.0739 18.9757 23.0301 18.7732 23.0693C18.167 23.1875 17.5568 23.2881 16.9483 23.3949C15.7216 23.6097 14.4955 23.8279 13.267 24.0341C13.0583 24.0693 12.9765 24.1631 12.9719 24.3665C12.9662 24.612 12.937 24.8574 12.921 25.1029C12.8919 25.5523 12.865 26.0017 12.8352 26.4887L12.8358 26.4892ZM13.1355 22.3813C14.8935 22.0733 16.5983 21.7739 18.3432 21.4682C18.016 20.7483 17.7021 20.0824 17.4133 19.4057C17.3275 19.2046 17.2194 19.1642 17.0221 19.2006C16.0041 19.3881 14.9844 19.5699 13.9647 19.7477C13.3499 19.8551 13.3362 19.8489 13.2756 20.4591C13.2144 21.0779 13.1835 21.6995 13.1349 22.3813H13.1355Z" fill="black"/>
<path opacity="0.7" d="M5.20467 30.3691C5.55239 30.6236 5.84405 30.864 6.16203 31.0634C6.66015 31.3759 7.15941 31.6941 7.6867 31.9509C8.74985 32.4685 9.85418 32.4998 10.9036 31.9532C11.6665 31.556 12.3791 31.0577 13.0871 30.5662C13.3382 30.3924 13.472 30.3765 13.7299 30.5611C14.4002 31.0407 15.0819 31.5174 15.8082 31.9043C16.9291 32.5015 18.1089 32.5009 19.2333 31.9111C19.9367 31.5418 20.5824 31.064 21.2509 30.6304C21.3847 30.5435 21.5048 30.4367 21.6272 30.3418C22.0853 30.6736 22.5142 31.0054 22.9637 31.3049C23.7124 31.8037 24.5027 32.206 25.4212 32.3077C26.116 32.3844 26.7869 32.2725 27.3856 31.9509C28.1022 31.5662 28.7708 31.0924 29.4588 30.6549C29.5537 30.5941 29.6378 30.5168 29.7601 30.4208C29.7733 30.5236 29.7893 30.5912 29.7893 30.6588C29.7916 31.1515 29.7785 31.6446 29.7967 32.1361C29.8048 32.3554 29.7241 32.4742 29.5445 32.5912C28.6455 33.177 27.7019 33.66 26.6319 33.8458C25.4057 34.0588 24.2436 33.8321 23.1445 33.2782C22.7298 33.0691 22.3255 32.8321 21.9418 32.5708C21.721 32.4202 21.5746 32.4066 21.3481 32.5657C20.5423 33.1327 19.6702 33.5742 18.6991 33.7901C17.3918 34.0804 16.1427 33.8821 14.9566 33.2918C14.5066 33.0679 14.0748 32.8043 13.6527 32.531C13.4749 32.4157 13.3622 32.4003 13.1809 32.527C12.3499 33.1088 11.4578 33.5708 10.4564 33.7912C8.94601 34.1242 7.55116 33.7907 6.22837 33.0515C5.54514 32.6696 5.20372 32.0918 5.2041 31.3179C5.2041 31.0185 5.2041 30.7191 5.2041 30.3691H5.20467Z" fill="black"/>
<path opacity="0.7" d="M15.856 12.271C15.2132 12.3869 14.5904 12.4994 13.9201 12.6199C13.9922 13.0471 14.0768 13.4596 14.1272 13.8755C14.1626 14.1676 14.2604 14.2454 14.567 14.1727C15.0811 14.05 15.6101 13.988 16.1534 13.8966C16.198 14.1301 16.2535 14.3397 16.2746 14.5528C16.2969 14.7767 16.1877 14.9358 15.959 14.9915C15.7754 15.0358 15.5895 15.071 15.3653 15.1182C15.4631 15.6886 15.5598 16.25 15.6616 16.846C15.128 16.9386 14.6093 17.029 14.0643 17.1238C13.9716 16.6204 13.8624 16.1528 13.8063 15.6784C13.7755 15.417 13.6628 15.3886 13.4541 15.438C13.362 15.4596 13.2682 15.4818 13.1738 15.4875C12.9239 15.5034 12.7443 15.4068 12.6963 15.1466C12.5259 14.2182 12.348 13.2909 12.2056 12.3585C12.1844 12.2216 12.3023 12.0045 12.4235 11.9165C12.8067 11.638 13.2139 11.3897 13.6291 11.1602C13.756 11.0897 13.943 11.0795 14.0929 11.1034C14.4766 11.1653 14.8546 11.2602 15.2344 11.3449C15.6999 11.4483 15.7525 11.5057 15.8223 11.9727C15.8349 12.0562 15.8417 12.1409 15.856 12.2699V12.271Z" fill="black"/>
</svg>
