<svg width="28" height="28" viewBox="0 0 28 28" fill="none" xmlns="http://www.w3.org/2000/svg">
<path d="M5.06446 13.5071C5.06891 8.82307 8.89942 5.02635 13.6181 5.0293C18.3312 5.03195 22.1588 8.8431 22.1522 13.5268C22.1457 18.2079 18.303 22.0105 13.5911 21.9979C8.87865 21.9852 5.06001 18.1832 5.06446 13.5074V13.5071ZM20.2533 13.5071C20.2474 9.8674 17.2701 6.91352 13.6095 6.9147C9.93922 6.91587 6.96221 9.87418 6.9634 13.5192C6.96458 17.153 9.94486 20.1107 13.6069 20.1122C17.2733 20.1137 20.2592 17.1465 20.2533 13.5071Z" fill="#756B61"/>
<path d="M2.65532 6.25811C2.81641 6.31261 2.98966 6.34472 3.13621 6.42544C3.67999 6.72445 4.21725 7.03524 4.75213 7.34957C5.22709 7.62855 5.3772 8.19182 5.10843 8.64755C4.84469 9.09563 4.27807 9.24499 3.80578 8.98044C3.25577 8.6723 2.70902 8.35826 2.16553 8.03892C1.78402 7.81474 1.61552 7.38463 1.73329 6.97515C1.85136 6.56419 2.21389 6.2914 2.65502 6.25781L2.65532 6.25811Z" fill="#756B61"/>
<path d="M6.30694 2.64589C6.33067 2.21607 6.59737 1.85196 6.99846 1.72882C7.40459 1.6042 7.85048 1.75327 8.07179 2.11768C8.41324 2.67976 8.74551 3.24774 9.06412 3.82279C9.31184 4.26998 9.14096 4.82588 8.70427 5.0754C8.25542 5.33199 7.69176 5.19913 7.42209 4.7537C7.08686 4.19928 6.7638 3.63749 6.44726 3.07246C6.37547 2.94401 6.35233 2.78876 6.30664 2.64589H6.30694Z" fill="#756B61"/>
<path d="M20.914 2.6371C20.8594 2.79707 20.8271 2.96941 20.7461 3.11493C20.445 3.65492 20.1317 4.18843 19.8155 4.71988C19.5351 5.19064 18.9652 5.34059 18.5081 5.07339C18.0562 4.80914 17.9064 4.24912 18.1731 3.78013C18.4861 3.22983 18.8032 2.68159 19.1287 2.13865C19.3506 1.76864 19.7858 1.60662 20.1919 1.72239C20.6072 1.84082 20.8808 2.19904 20.914 2.6374V2.6371Z" fill="#756B61"/>
<path d="M24.5599 6.25977C24.9943 6.28981 25.3574 6.55789 25.4772 6.95825C25.5974 7.35978 25.4508 7.7943 25.088 8.01201C24.5181 8.35403 23.942 8.68692 23.3579 9.0042C22.9078 9.24871 22.3501 9.07254 22.1006 8.63537C21.849 8.19436 21.9828 7.63758 22.4249 7.37362C22.9829 7.04044 23.5486 6.71933 24.1176 6.40529C24.2511 6.33165 24.4119 6.3072 24.5602 6.26006L24.5599 6.25977Z" fill="#756B61"/>
<path d="M2.65617 20.7611C2.22482 20.7375 1.86141 20.4715 1.73859 20.0702C1.61636 19.6713 1.76321 19.2324 2.12484 19.0156C2.69918 18.6712 3.27946 18.3357 3.86863 18.0172C4.31155 17.7777 4.8669 17.9568 5.11343 18.3878C5.36292 18.8241 5.23891 19.3797 4.80519 19.6419C4.23649 19.986 3.65651 20.3121 3.07476 20.6338C2.95016 20.7027 2.79649 20.7198 2.65617 20.7611Z" fill="#756B61"/>
<path d="M24.5604 20.7682C24.3993 20.714 24.2257 20.6822 24.0792 20.6014C23.5354 20.3024 22.9993 19.9899 22.463 19.6776C22.08 19.4546 21.907 19.0554 22.0023 18.6374C22.0921 18.2438 22.4274 17.9436 22.8564 17.923C23.0299 17.9144 23.2278 17.9551 23.38 18.0367C23.9487 18.3413 24.5061 18.6668 25.0614 18.995C25.4349 19.2157 25.5969 19.6455 25.4812 20.0508C25.3635 20.4624 25.0015 20.7352 24.5601 20.7685L24.5604 20.7682Z" fill="#756B61"/>
<path d="M6.30303 24.3872C6.35346 24.2358 6.38165 24.0723 6.45819 23.9356C6.76701 23.3829 7.08533 22.8356 7.41018 22.292C7.68281 21.836 8.2435 21.6923 8.69799 21.9483C9.14714 22.2013 9.31268 22.766 9.05517 23.2244C8.74041 23.785 8.41675 24.3406 8.08508 24.8915C7.86199 25.2621 7.42916 25.42 7.02007 25.3037C6.608 25.1867 6.33359 24.8244 6.30273 24.3869L6.30303 24.3872Z" fill="#756B61"/>
<path d="M1.90369 12.5712C2.21489 12.5712 2.52579 12.5688 2.83699 12.5718C3.38433 12.5771 3.79788 12.9892 3.79462 13.5216C3.79135 14.0453 3.37691 14.4525 2.8361 14.4557C2.214 14.4593 1.59189 14.459 0.969791 14.4557C0.424525 14.4531 0 14.0371 0 13.513C0 12.9895 0.425711 12.5753 0.970978 12.5715C1.28188 12.5691 1.59308 12.5712 1.90428 12.5712H1.90369Z" fill="#756B61"/>
<path d="M14.5572 1.89546C14.5572 2.19948 14.5593 2.5035 14.5569 2.80752C14.5528 3.35399 14.1437 3.7676 13.61 3.76848C13.0748 3.76936 12.6621 3.35664 12.6595 2.81135C12.6565 2.19358 12.6565 1.57582 12.6595 0.958061C12.6621 0.419545 13.0881 -0.00496423 13.6135 4.38577e-05C14.1377 0.00505194 14.551 0.421312 14.5566 0.954231C14.5599 1.26797 14.5572 1.58171 14.5572 1.89575V1.89546Z" fill="#756B61"/>
<path d="M20.9081 24.3802C20.8843 24.81 20.6173 25.1745 20.2163 25.297C19.8089 25.4213 19.3642 25.2723 19.1429 24.9076C18.8018 24.3452 18.4695 23.7772 18.1509 23.2022C17.9002 22.7497 18.0761 22.1935 18.5241 21.9428C18.9661 21.6953 19.5262 21.8317 19.7929 22.2724C20.1284 22.8265 20.4515 23.3883 20.768 23.9537C20.8398 24.0821 20.8627 24.2376 20.9078 24.3805L20.9081 24.3802Z" fill="#756B61"/>
<path d="M12.6591 25.1353C12.6591 24.8262 12.6567 24.5175 12.6597 24.2085C12.6647 23.6653 13.0801 23.2543 13.6164 23.2578C14.1439 23.2614 14.5539 23.6726 14.5569 24.21C14.5604 24.8277 14.5604 25.4455 14.5569 26.0632C14.5536 26.6059 14.1362 27.026 13.6075 27.0263C13.081 27.0266 12.6633 26.6029 12.6594 26.0618C12.6573 25.7527 12.6591 25.444 12.6591 25.135V25.1353Z" fill="#756B61"/>
<path d="M25.3116 14.4549C25.0055 14.4549 24.6993 14.4566 24.3932 14.4549C23.8423 14.4513 23.4243 14.0468 23.4219 13.5181C23.4195 12.9801 23.836 12.5727 24.3964 12.5703C25.0135 12.5677 25.6308 12.5677 26.2479 12.5703C26.792 12.5727 27.2189 12.991 27.2165 13.5139C27.2144 14.0395 26.792 14.4499 26.2446 14.4549C25.9337 14.4575 25.6225 14.4554 25.3113 14.4554L25.3116 14.4549Z" fill="#756B61"/>
</svg>
