<svg width="27" height="27" viewBox="0 0 27 27" fill="none" xmlns="http://www.w3.org/2000/svg">
<g clip-path="url(#clip0_518_1820)">
<path d="M24.3984 20.6699C24.1997 20.67 24.0046 20.7233 23.8336 20.8245C23.6626 20.9256 23.5219 21.0708 23.4261 21.2448C22.1597 23.5512 22.1597 24.1882 22.1597 24.398C22.1531 24.6963 22.2061 24.9928 22.3156 25.2703C22.4252 25.5478 22.5891 25.8006 22.7977 26.0139C23.0062 26.2272 23.2553 26.3966 23.5303 26.5123C23.8053 26.628 24.1006 26.6876 24.3989 26.6876C24.6972 26.6876 24.9926 26.628 25.2675 26.5123C25.5425 26.3966 25.7916 26.2272 26.0002 26.0139C26.2088 25.8006 26.3726 25.5478 26.4822 25.2703C26.5917 24.9928 26.6447 24.6963 26.6381 24.398C26.6381 24.1882 26.6381 23.5501 25.3706 21.2448C25.2749 21.0708 25.1341 20.9256 24.9631 20.8245C24.7921 20.7233 24.597 20.67 24.3984 20.6699Z" fill="#756B61"/>
<path d="M17.2034 7.76953C17.0562 7.76953 16.915 7.828 16.811 7.93207C16.7069 8.03614 16.6484 8.17729 16.6484 8.32447V13.8739C16.6484 14.021 16.7069 14.1622 16.811 14.2663C16.915 14.3703 17.0562 14.4288 17.2034 14.4288H19.4231C19.8647 14.4288 20.2881 14.6042 20.6003 14.9164C20.9126 15.2286 21.088 15.6521 21.088 16.0936V17.7584C21.088 18.0528 21.2049 18.3351 21.413 18.5433C21.6212 18.7514 21.9035 18.8683 22.1978 18.8683H25.5275C25.8218 18.8683 26.1041 18.7514 26.3123 18.5433C26.5204 18.3351 26.6374 18.0528 26.6374 17.7584V16.0936C26.6374 8.57974 20.0402 7.76953 17.2034 7.76953Z" fill="#756B61"/>
<path d="M3.88458 7.76953H0.55494C0.248455 7.76953 0 8.01799 0 8.32447V13.8739C0 14.1804 0.248455 14.4288 0.55494 14.4288H3.88458C4.19107 14.4288 4.43952 14.1804 4.43952 13.8739V8.32447C4.43952 8.01799 4.19107 7.76953 3.88458 7.76953Z" fill="#756B61"/>
<path d="M13.0487 4.55051C12.9669 4.52931 12.8944 4.48149 12.8428 4.41457C12.7911 4.34765 12.7632 4.26545 12.7635 4.18092V4.16205C12.7635 4.01487 12.8219 3.87372 12.926 3.76965C13.0301 3.66558 13.1712 3.60711 13.3184 3.60711H18.5904C18.8847 3.60711 19.167 3.49018 19.3752 3.28203C19.5833 3.07389 19.7002 2.79159 19.7002 2.49723C19.7002 2.20287 19.5833 1.92057 19.3752 1.71243C19.167 1.50428 18.8847 1.38735 18.5904 1.38735H13.0409C12.9674 1.38735 12.8968 1.35812 12.8447 1.30608C12.7927 1.25405 12.7635 1.18347 12.7635 1.10988C12.7635 0.815522 12.6465 0.533219 12.4384 0.325076C12.2303 0.116933 11.948 0 11.6536 0L9.43384 0C9.13948 0 8.85718 0.116933 8.64903 0.325076C8.44089 0.533219 8.32396 0.815522 8.32396 1.10988C8.32396 1.18347 8.29472 1.25405 8.24269 1.30608C8.19065 1.35812 8.12008 1.38735 8.04649 1.38735H2.49709C2.20273 1.38735 1.92043 1.50428 1.71228 1.71243C1.50414 1.92057 1.38721 2.20287 1.38721 2.49723C1.38721 2.79159 1.50414 3.07389 1.71228 3.28203C1.92043 3.49018 2.20273 3.60711 2.49709 3.60711H7.76902C7.9162 3.60711 8.05735 3.66558 8.16142 3.76965C8.26549 3.87372 8.32396 4.01487 8.32396 4.16205C8.32374 4.25076 8.29425 4.33692 8.24007 4.40715C8.18589 4.47739 8.11004 4.52778 8.02429 4.55051C7.31522 4.74017 6.68844 5.1583 6.24101 5.74016C5.79358 6.32203 5.55045 7.03516 5.54926 7.76916V14.4284C5.54926 15.3115 5.90006 16.1584 6.52449 16.7829C7.14892 17.4073 7.99582 17.7581 8.8789 17.7581H12.2085C13.0916 17.7581 13.9385 17.4073 14.563 16.7829C15.1874 16.1584 15.5382 15.3115 15.5382 14.4284V7.76916C15.5363 7.03321 15.2912 6.31853 14.8409 5.73638C14.3907 5.15424 13.7606 4.73731 13.0487 4.55051Z" fill="#756B61"/>
</g>
<defs>
<clipPath id="clip0_518_1820">
<rect width="26.6371" height="26.6371" fill="white"/>
</clipPath>
</defs>
</svg>
