<svg width="29" height="25" viewBox="0 0 29 25" fill="none" xmlns="http://www.w3.org/2000/svg">
<path d="M14.412 0C16.306 1.66049 18.0365 3.3729 18.7316 5.62442C19.321 7.5349 18.4028 9.30322 16.4031 10.1211C14.8341 10.7632 13.2708 10.6794 11.8364 9.85192C10.3683 9.0053 9.72123 7.80007 9.90294 6.3137C10.0654 4.97748 10.7528 3.8018 11.6748 2.73554C12.4555 1.83301 13.3612 1.00476 14.2139 0.144564C14.2582 0.0998372 14.3197 0.0670905 14.413 0H14.412Z" fill="#756B61"/>
<path d="M14.8492 24.9992C11.2804 24.9712 8.24234 24.6933 5.30712 23.8547C3.90538 23.4545 2.57189 22.9393 1.44895 22.1119C0.65578 21.5273 0.0587391 20.8412 0.00393817 19.9219C-0.047017 19.0697 0.401004 18.3788 1.0865 17.7814C2.07772 16.9172 3.31891 16.3733 4.64567 15.9771C5.66862 15.672 6.72714 15.4484 7.77509 15.2048C8.21349 15.1025 8.52692 15.2383 8.61729 15.5227C8.70959 15.815 8.49038 16.0522 8.02794 16.1384C6.32623 16.4547 4.66009 16.8605 3.17085 17.6384C2.66899 17.9004 2.18924 18.2191 1.78833 18.5801C0.917286 19.366 0.937475 20.2342 1.78352 21.0488C2.4969 21.7357 3.42178 22.1742 4.40051 22.5408C6.36469 23.2756 8.4452 23.6454 10.5719 23.8515C13.4696 24.1326 16.3644 24.103 19.2487 23.7333C21.3426 23.4649 23.3885 23.0472 25.246 22.167C25.8421 21.8843 26.4141 21.5296 26.8958 21.1239C27.8957 20.2797 27.8716 19.3412 26.8919 18.4778C25.9546 17.6512 24.7566 17.1672 23.4933 16.8022C22.5906 16.5418 21.6589 16.3509 20.736 16.14C20.4226 16.0682 20.1678 15.9635 20.1457 15.6616C20.1207 15.3182 20.4764 15.089 20.9408 15.1968C22.0916 15.4659 23.2462 15.7311 24.373 16.0594C25.4287 16.3669 26.4035 16.8221 27.2554 17.4371C28.0947 18.0441 28.7225 18.7566 28.7734 19.7222C28.8129 20.4698 28.4485 21.0999 27.8736 21.651C26.9381 22.5472 25.7248 23.1047 24.4317 23.5511C22.2204 24.3147 19.8986 24.6925 17.5248 24.8666C16.475 24.9441 15.4193 24.972 14.8482 24.9992H14.8492Z" fill="#756B61"/>
<path d="M13.5215 21.3543C17.0201 21.3128 19.64 21.2018 22.1925 20.6211C22.7761 20.4886 23.3424 20.2841 23.8885 20.0644C24.2663 19.9127 24.274 19.7258 23.8952 19.5844C23.1905 19.3209 22.4685 19.0589 21.7214 18.9095C20.712 18.7083 19.6698 18.6188 18.6439 18.4694C18.4642 18.4431 18.2325 18.3952 18.1421 18.2889C18.0363 18.1643 17.9758 17.9287 18.0498 17.8065C18.1325 17.6708 18.3997 17.515 18.5699 17.5278C20.4822 17.6732 22.3829 17.88 24.1336 18.5996C24.4182 18.717 24.6893 18.8816 24.9162 19.0677C25.4767 19.5269 25.495 20.1411 24.897 20.5644C24.4778 20.8615 23.9731 21.102 23.4607 21.2753C22.0974 21.7369 20.6466 21.9142 19.1939 22.0564C16.8557 22.2848 14.5098 22.3607 12.1582 22.2401C10.0633 22.1331 7.9722 21.9813 5.95706 21.4582C5.33599 21.2968 4.71587 21.0716 4.17555 20.7745C3.19106 20.233 3.20452 19.4215 4.16113 18.8464C5.06487 18.3033 6.12724 18.0741 7.19633 17.8928C8.11064 17.7378 9.03937 17.6452 9.96233 17.5254C10.021 17.5174 10.0816 17.5166 10.1421 17.5158C10.5209 17.5094 10.7699 17.6731 10.7949 17.9447C10.8199 18.2195 10.6094 18.4223 10.2392 18.4663C9.52777 18.5509 8.80382 18.5893 8.1068 18.7234C7.15403 18.9063 6.21472 19.1443 5.28503 19.3967C5.0341 19.4646 4.83797 19.6715 4.61588 19.8153C4.84374 19.9638 5.04756 20.1579 5.30426 20.2529C6.48488 20.689 7.74338 20.9143 9.01726 21.0309C10.8017 21.1946 12.5957 21.2896 13.5234 21.3543H13.5215Z" fill="#756B61"/>
<path d="M14.3975 11.5918C15.6935 12.7443 16.9001 13.904 17.2193 15.4926C17.4212 16.4966 16.9914 17.3296 15.9656 17.8919C14.9397 18.4542 13.8504 18.4542 12.8227 17.8975C11.794 17.34 11.3565 16.5078 11.5623 15.5046C11.6632 15.0134 11.8834 14.5262 12.1439 14.0741C12.6804 13.1413 13.4793 12.3585 14.3975 11.5918Z" fill="#756B61"/>
</svg>
