<svg width="21" height="28" viewBox="0 0 21 28" fill="none" xmlns="http://www.w3.org/2000/svg">
<path d="M1.00179 22.6666C1.00496 17.6359 1.00575 12.2777 1.00179 5.29299C1.00179 5.16597 0.981997 5.09256 0.966158 5.05462C0.594744 4.18936 0.738873 3.34967 1.37083 2.69145C1.76442 2.28151 2.24908 1.90785 2.77175 1.61174C3.9937 0.918871 5.3471 0.607082 6.39086 0.413245C7.86385 0.139398 9.3693 0 10.8653 0C12.1371 0 13.4343 0.10063 14.7211 0.298592C16.4167 0.560066 17.7447 0.956814 18.9002 1.5474C19.6438 1.92765 20.1435 2.31945 20.5189 2.816C21.0154 3.4734 21.1286 4.18854 20.8538 4.94079C20.8 5.08843 20.7699 5.24598 20.7699 5.38455C20.7659 9.79662 20.7659 14.2087 20.7651 18.6208V22.3787C20.7643 22.6757 20.7636 22.9314 20.8839 23.1722C20.9702 23.3479 20.9837 23.545 20.9908 23.7488C21.0265 24.7312 20.4515 25.3424 19.9463 25.7647C19.3769 26.2414 18.7053 26.6019 17.7693 26.9351C15.7705 27.6461 13.6227 27.9546 10.3576 28H10.3473H10.337C10.1787 27.9868 9.98384 27.9728 9.7621 27.9563C9.13885 27.9109 8.28436 27.8491 7.44017 27.746C5.73119 27.5364 4.28671 27.1364 3.02358 26.5219C2.38608 26.2118 1.66701 25.7944 1.16335 25.0504C0.723827 24.4029 0.650179 23.71 0.943983 22.9916C0.980413 22.9025 1.001 22.787 1.001 22.6674L1.00179 22.6666ZM10.9254 26.6143C12.7168 26.6143 14.5081 26.3957 16.2504 25.9651C17.3535 25.6929 18.1447 25.3646 18.8154 24.9011C19.0609 24.732 19.3064 24.5027 19.5274 24.2363C19.7079 24.0185 19.7238 23.7686 19.5757 23.4716C19.4917 23.3042 19.4426 23.0963 19.441 22.9017C19.4339 22.203 19.4347 21.5118 19.4355 20.781C19.4355 20.6738 19.4355 20.5665 19.4355 20.4585C18.7972 20.8561 18.0813 21.1728 17.2157 21.4434C15.8417 21.8731 14.3173 22.1387 12.5552 22.255C11.9732 22.2929 11.3903 22.3127 10.8225 22.3127C9.43424 22.3127 8.06579 22.1964 6.75356 21.9663C5.36848 21.7238 3.77275 21.3543 2.33144 20.4593V21.8673C2.33144 21.9539 2.33302 22.0397 2.3354 22.1263C2.33936 22.3309 2.34411 22.542 2.3251 22.7548C2.30214 23.0188 2.24433 23.286 2.15959 23.5285C2.00992 23.955 2.16355 24.1323 2.21344 24.1909C2.4043 24.4111 2.69652 24.7287 3.02913 24.9473C4.06655 25.6302 5.23702 25.9305 6.14061 26.1161C7.74743 26.446 9.35663 26.6143 10.9246 26.6143H10.9254ZM4.76107 15.1836C4.89491 15.2835 5.0628 15.3387 5.23306 15.3387C5.40333 15.3387 5.56409 15.2876 5.69872 15.1894C5.98381 14.9832 6.10102 14.6582 6.01945 14.2994C5.8967 13.7542 5.58626 13.3055 5.24573 12.8428C4.87749 13.3311 4.6019 13.7814 4.44905 14.2961C4.35402 14.617 4.47915 14.9741 4.76107 15.1845V15.1836ZM8.78723 16.642C9.05807 17.2614 9.56016 17.7192 10.2 17.9328C10.4241 18.0071 10.6554 18.045 10.8874 18.045C11.9613 18.045 12.8863 17.268 13.1365 16.1561C13.2846 15.4971 13.1024 14.89 12.8831 14.3324C12.56 13.51 11.5867 12.0113 10.8819 11.2261C10.794 11.3473 10.7061 11.4677 10.6198 11.5849C10.3054 12.013 10.0084 12.418 9.74388 12.8502C9.35188 13.4911 9.02719 14.1188 8.77931 14.7176C8.51798 15.3486 8.52115 16.0324 8.78803 16.642H8.78723ZM16.0397 15.1853C16.1743 15.2843 16.3414 15.3387 16.5117 15.3387C16.682 15.3387 16.8285 15.2909 16.9591 15.201C17.2624 14.9906 17.3955 14.6458 17.306 14.3019C17.1619 13.7476 16.853 13.2758 16.522 12.8436C16.191 13.2997 15.8885 13.741 15.7435 14.2689C15.6437 14.6327 15.7546 14.975 16.0397 15.1853ZM19.4347 13.6593V13.2981C19.4347 13.2981 18.775 13.6668 18.5485 13.793C18.7782 15.3395 18.2333 16.3549 17.0035 16.6618C16.819 16.7079 16.636 16.731 16.461 16.731C15.5851 16.731 14.878 16.1471 14.4812 15.1144C14.6301 16.4366 14.2436 17.5518 13.3281 18.4335C12.6479 19.0893 11.8259 19.4217 10.8851 19.4217C10.8154 19.4217 10.7441 19.42 10.6728 19.4159C9.62826 19.3615 8.61856 18.7948 7.97234 17.8982C7.41086 17.1187 7.17091 16.1685 7.27703 15.1779C7.06558 15.8295 6.65457 16.2922 6.04954 16.5562C5.78741 16.67 5.51657 16.7277 5.24415 16.7277C4.99944 16.7277 4.75078 16.6807 4.50528 16.5892C3.40688 16.1776 2.93093 15.1399 3.21127 13.793L2.33382 13.2989C2.33382 13.7319 2.33382 14.165 2.33382 14.5972C2.33382 15.8798 2.3354 17.2062 2.32669 18.5102C2.3259 18.6645 2.37024 18.7602 2.49775 18.8773C3.1305 19.4588 3.89075 19.7698 4.61853 20.0189C5.99331 20.4898 7.50669 20.7637 9.38197 20.8792C9.9086 20.9122 10.4352 20.9287 10.9484 20.9287C12.5045 20.9287 14.029 20.7752 15.4806 20.4733C16.3557 20.2919 17.3789 20.0345 18.3347 19.5091C18.6491 19.3367 18.9477 19.1 19.2367 18.8707L19.3721 18.7643C19.3943 18.7461 19.4292 18.6719 19.4292 18.6315C19.4371 16.9744 19.4355 15.2892 19.4339 13.6593H19.4347ZM2.33777 11.396C2.33777 11.4793 2.36708 11.5684 2.39321 11.5972C2.80343 12.046 3.32531 12.3256 3.80443 12.5351C3.86699 12.451 3.92876 12.3676 3.98974 12.2843C4.20356 11.9948 4.4055 11.7218 4.6209 11.4496C4.7492 11.2871 4.95193 11.0718 5.2299 11.0718C5.50786 11.0718 5.69872 11.2706 5.82701 11.4199C6.43758 12.126 6.85731 12.7619 7.14636 13.4193C7.15824 13.4391 7.20259 13.4713 7.22555 13.4762C7.42116 13.5158 7.57479 13.548 7.67141 13.548C7.77436 13.548 7.79733 13.5307 8.0357 13.0869L8.04124 13.0762C8.61459 12.0105 9.36376 10.9374 10.3331 9.79497C10.5041 9.59371 10.6894 9.49143 10.8843 9.49143C11.0791 9.49143 11.2541 9.58793 11.422 9.77765C12.5924 11.0974 13.4002 12.2761 13.9633 13.4886C13.987 13.5397 14.0013 13.5513 14.0013 13.5513C14.0021 13.5513 14.0163 13.5579 14.0702 13.5579C14.0829 13.5579 14.0963 13.5579 14.1106 13.5571C14.4535 13.5439 14.6325 13.4177 14.8201 13.0564C15.0807 12.5524 15.4244 12.0963 15.757 11.655C15.8259 11.5642 15.894 11.4727 15.9613 11.382C16.1522 11.1238 16.3628 11.0693 16.5054 11.0693C16.6479 11.0693 16.8546 11.1221 17.0613 11.3721C17.3036 11.6665 17.5309 11.961 17.7717 12.2736C17.8374 12.3594 17.9039 12.4452 17.9704 12.5318C18.4305 12.3297 18.9342 12.0608 19.3476 11.6327C19.3967 11.5816 19.43 11.5082 19.4307 11.4801C19.4379 9.93024 19.4363 8.35397 19.4347 6.82885V6.48571C19.3333 6.5484 19.2296 6.61109 19.1235 6.66965C18.0164 7.27838 16.7738 7.68503 15.2121 7.9498C13.6956 8.20715 12.2012 8.33748 10.7718 8.33748C8.6922 8.33748 6.65774 8.06116 4.72465 7.51594C3.7973 7.25446 3.02675 6.92123 2.33302 6.47994V8.90992C2.33223 9.72486 2.33144 10.567 2.33857 11.396H2.33777ZM2.37816 4.75108C2.70602 5.06946 3.10278 5.35403 3.52567 5.57427C4.60823 6.13681 5.86106 6.49479 7.46788 6.69852C8.25506 6.79915 9.06203 6.86184 9.84367 6.92205C10.1921 6.94927 10.5414 6.97649 10.889 7.00619C12.7215 6.93855 14.8811 6.77523 17.0122 6.08319C17.8912 5.79697 18.5176 5.49096 19.0435 5.09091C19.0926 5.05379 19.1385 5.01667 19.1837 4.97626C19.5091 4.69169 19.6731 4.41866 19.6723 4.16296C19.6715 3.91056 19.5091 3.64332 19.1892 3.36864C18.425 2.71207 17.4794 2.37966 16.6558 2.14046C14.9104 1.63566 13.0597 1.38985 10.9975 1.38985C10.5659 1.38985 10.1185 1.40058 9.66627 1.42285C7.51302 1.5276 5.90699 1.81877 4.45697 2.36811C3.99845 2.54216 3.55021 2.79703 3.11703 3.04366C2.96419 3.13109 2.81135 3.2177 2.65771 3.30183C2.57615 3.34637 2.49379 3.43876 2.4138 3.52866L2.38608 3.55918C2.19127 3.77612 2.09149 3.98397 2.08911 4.17699C2.08673 4.36835 2.18414 4.56136 2.37816 4.75025V4.75108Z" fill="white"/>
</svg>
