<svg width="24" height="24" viewBox="0 0 24 24" fill="none" xmlns="http://www.w3.org/2000/svg">
<path d="M24.0001 16.8571C23.9542 17.1176 23.9228 17.3814 23.86 17.638C23.4177 19.4483 21.9018 20.7941 20.0519 21.0204C19.8355 21.0469 19.6157 21.052 19.3973 21.0525C17.9835 21.0553 16.5698 21.0539 15.1558 21.0539H14.9985C14.9985 21.1021 14.9985 21.1431 14.9985 21.1841C14.9985 21.5785 14.9999 21.9728 14.9987 22.3671C14.9973 22.8614 14.74 23.2569 14.3045 23.4375C13.8688 23.6182 13.4069 23.5212 13.0565 23.1718C12.0391 22.1571 11.0223 21.1415 10.0061 20.1259C9.65757 19.7775 9.65687 19.3344 10.0037 18.9875C11.0223 17.9683 12.0412 16.9494 13.0602 15.9309C13.3741 15.6172 13.7502 15.5076 14.1763 15.6278C14.5862 15.7435 14.8558 16.0155 14.9634 16.4323C14.9894 16.5331 14.9966 16.6406 14.9978 16.7451C15.0016 17.1354 14.999 17.526 14.9987 17.9163C14.9987 17.9582 14.9987 18.0002 14.9987 18.0541C15.0442 18.0541 15.0782 18.0541 15.1122 18.0541C16.5611 18.0541 18.01 18.0555 19.4591 18.0536C20.264 18.0527 20.8668 17.5342 20.9863 16.7383C21.0407 16.3756 20.9474 16.0422 20.7541 15.7341C20.4909 15.3143 20.2232 14.8973 19.9668 14.4734C19.4326 13.5899 19.9077 12.456 20.916 12.2346C21.527 12.1003 22.0696 12.2772 22.427 12.7913C22.8358 13.3793 23.2002 14.0004 23.5506 14.626C23.8101 15.0887 23.9315 15.6048 23.9793 16.135C23.9821 16.1655 23.9929 16.1952 24.0001 16.2252V16.8578V16.8571Z" fill="#756B61"/>
<path d="M0 16.2252C0.0346875 16.0141 0.0611716 15.8012 0.105937 15.5922C0.218203 15.0683 0.430078 14.585 0.714141 14.1312C1.47398 12.9175 2.23172 11.7025 2.99016 10.488C3.01476 10.4486 3.03844 10.4083 3.06844 10.3589C2.95078 10.2839 2.83734 10.2108 2.7232 10.1389C2.46891 9.97911 2.2132 9.82097 1.95961 9.66025C1.53914 9.39386 1.32961 8.95574 1.41633 8.50568C1.51359 8.00126 1.81805 7.69411 2.31961 7.57837C3.71789 7.25622 5.11594 6.9322 6.51398 6.60889C6.97312 6.50275 7.36687 6.74266 7.47187 7.19929C7.79789 8.61626 8.12414 10.0332 8.44453 11.4516C8.5514 11.9251 8.40234 12.3218 8.01258 12.6064C7.62328 12.8906 7.20141 12.9145 6.78234 12.6666C6.40969 12.4462 6.04617 12.2105 5.6782 11.9818C5.66203 11.9717 5.64445 11.9635 5.61984 11.9506C5.59828 11.9797 5.57648 12.0055 5.55891 12.0338C4.78711 13.2676 4.01391 14.5006 3.24469 15.736C2.84766 16.3735 2.93859 17.1312 3.46922 17.6408C3.74883 17.9093 4.0868 18.0473 4.47398 18.0513C4.97789 18.0564 5.4818 18.0508 5.98547 18.0531C6.86086 18.0571 7.52226 18.7401 7.50023 19.6147C7.48172 20.3541 6.86273 21.0173 6.11742 21.0431C5.44687 21.0663 4.77164 21.0764 4.10367 21.0248C2.71242 20.9173 1.61742 20.2566 0.814453 19.1208C0.354844 18.4709 0.0935153 17.7425 0.0201559 16.9482C0.0173434 16.9178 0.00703148 16.888 0.000234604 16.8578C0.000234604 16.6469 0.000234604 16.4361 0.000234604 16.2252H0Z" fill="#756B61"/>
<path d="M12.3046 0.0585938C12.558 0.100531 12.8153 0.126537 13.0642 0.187452C14.2153 0.469066 15.1244 1.10633 15.7652 2.10182C16.4111 3.1055 17.0341 4.12419 17.6671 5.13631C17.6917 5.17567 17.7163 5.21503 17.7468 5.264C17.9765 5.12085 18.2006 4.98145 18.4244 4.84204C18.58 4.74505 18.7338 4.64501 18.8917 4.552C19.3094 4.30599 19.7292 4.31138 20.1248 4.58808C20.5249 4.86782 20.6847 5.26657 20.5783 5.74452C20.3156 6.92392 20.0399 8.10052 19.7692 9.27805C19.7116 9.52873 19.6553 9.77989 19.5949 10.0299C19.4922 10.4542 19.1188 10.6988 18.692 10.6025C17.6233 10.3616 16.5564 10.1112 15.4891 9.86447C15.1359 9.7827 14.7827 9.7007 14.4292 9.61893C13.9605 9.51069 13.6307 9.16793 13.5517 8.70662C13.4739 8.25116 13.6689 7.81703 14.0711 7.56259C14.4042 7.3522 14.7405 7.1465 15.0752 6.93845C15.1145 6.91408 15.1525 6.88784 15.1963 6.85903C15.1797 6.82716 15.167 6.79928 15.1511 6.77375C14.5279 5.77404 13.9068 4.77293 13.2799 3.77533C12.798 3.00874 11.7913 2.81803 11.0892 3.36533C10.9474 3.47568 10.8316 3.62515 10.7238 3.77135C10.6014 3.93723 10.502 4.11997 10.3912 4.29475C10.0063 4.90132 9.29502 5.15997 8.62939 4.93599C7.96682 4.71319 7.5501 4.0703 7.62299 3.35713C7.63963 3.1936 7.68158 3.01975 7.76057 2.87801C8.07603 2.31197 8.40908 1.75601 8.88627 1.30383C9.64447 0.585272 10.544 0.179955 11.5825 0.0789767C11.6125 0.0761652 11.6421 0.0653881 11.6718 0.0585938C11.8828 0.0585938 12.0937 0.0585938 12.3046 0.0585938Z" fill="#756B61"/>
</svg>
