<?xml version="1.0" encoding="UTF-8" standalone="no"?>
<!DOCTYPE svg PUBLIC "-//W3C//DTD SVG 1.1//EN"
 "http://www.w3.org/Graphics/SVG/1.1/DTD/svg11.dtd">
<!-- Generated by graphviz version 2.43.0 (0)
 -->
<!-- Title: %3 Pages: 1 -->
<svg width="5628pt" height="662pt"
 viewBox="0.00 0.00 5628.44 662.00" xmlns="http://www.w3.org/2000/svg" xmlns:xlink="http://www.w3.org/1999/xlink">
<g id="graph0" class="graph" transform="scale(1 1) rotate(0) translate(4 658)">
<title>%3</title>
<polygon fill="white" stroke="transparent" points="-4,4 -4,-658 5624.44,-658 5624.44,4 -4,4"/>
<text text-anchor="middle" x="2810.22" y="-634" font-family="URW Gothic L,sans-Serif" font-weight="demi" font-size="20.00">chill</text>
<!-- NO_CHILL -->
<g id="node1" class="node">
<title>NO_CHILL</title>
<ellipse fill="none" stroke="black" cx="3718.44" cy="-606" rx="55.49" ry="18"/>
<text text-anchor="middle" x="3718.44" y="-602.3" font-family="URW Gothic L,sans-Serif" font-weight="demi" font-size="14.00">NO_CHILL</text>
</g>
<!-- PREPARE_YAZAKI_VALVES -->
<g id="node2" class="node">
<title>PREPARE_YAZAKI_VALVES</title>
<ellipse fill="none" stroke="black" cx="2638.44" cy="-504" rx="127.28" ry="18"/>
<text text-anchor="middle" x="2638.44" y="-500.3" font-family="URW Gothic L,sans-Serif" font-weight="demi" font-size="14.00">PREPARE_YAZAKI_VALVES</text>
</g>
<!-- NO_CHILL&#45;&gt;PREPARE_YAZAKI_VALVES -->
<g id="edge1" class="edge">
<title>NO_CHILL&#45;&gt;PREPARE_YAZAKI_VALVES</title>
<path fill="none" stroke="black" d="M3665.1,-601.2C3581.7,-595.16 3415.37,-582.75 3274.44,-570 3088.39,-553.16 2872.05,-530.37 2745.69,-516.73"/>
<polygon fill="black" stroke="black" points="2745.94,-513.23 2735.62,-515.64 2745.19,-520.19 2745.94,-513.23"/>
<text text-anchor="middle" x="3460.44" y="-558.8" font-family="URW Gothic L,sans-Serif" font-weight="demi" font-size="14.00">(sensors.cold_reservoir.temperature &gt; 16.0) and</text>
<text text-anchor="middle" x="3460.44" y="-543.8" font-family="URW Gothic L,sans-Serif" font-weight="demi" font-size="14.00"> (sensors.pcm.temperature &gt; 80.0 holds for 1:00:00)</text>
</g>
<!-- PREPARE_CHILLER_VALVES -->
<g id="node5" class="node">
<title>PREPARE_CHILLER_VALVES</title>
<ellipse fill="none" stroke="black" cx="1527.44" cy="-120" rx="132.68" ry="18"/>
<text text-anchor="middle" x="1527.44" y="-116.3" font-family="URW Gothic L,sans-Serif" font-weight="demi" font-size="14.00">PREPARE_CHILLER_VALVES</text>
</g>
<!-- NO_CHILL&#45;&gt;PREPARE_CHILLER_VALVES -->
<g id="edge2" class="edge">
<title>NO_CHILL&#45;&gt;PREPARE_CHILLER_VALVES</title>
<path fill="none" stroke="black" d="M3772.1,-601.31C3872.66,-592.92 4079.44,-568 4079.44,-505 4079.44,-505 4079.44,-505 4079.44,-285.5 4079.44,-163.73 2204.81,-129.86 1668.94,-122.66"/>
<polygon fill="black" stroke="black" points="1668.88,-119.16 1658.83,-122.52 1668.79,-126.16 1668.88,-119.16"/>
<text text-anchor="middle" x="4253.94" y="-408.8" font-family="URW Gothic L,sans-Serif" font-weight="demi" font-size="14.00">((sensors.cold_reservoir.temperature &gt; 16.0) and</text>
<text text-anchor="middle" x="4253.94" y="-393.8" font-family="URW Gothic L,sans-Serif" font-weight="demi" font-size="14.00"> (not sensors.pcm.temperature &gt; 80.0)) and</text>
<text text-anchor="middle" x="4253.94" y="-378.8" font-family="URW Gothic L,sans-Serif" font-weight="demi" font-size="14.00"> (not sensors.electrical.battery_system_soc &lt; 0.3)</text>
</g>
<!-- CHECK_YAZAKI_BOUNDS -->
<g id="node3" class="node">
<title>CHECK_YAZAKI_BOUNDS</title>
<ellipse fill="none" stroke="black" cx="1298.44" cy="-397.5" rx="122.68" ry="18"/>
<text text-anchor="middle" x="1298.44" y="-393.8" font-family="URW Gothic L,sans-Serif" font-weight="demi" font-size="14.00">CHECK_YAZAKI_BOUNDS</text>
</g>
<!-- PREPARE_YAZAKI_VALVES&#45;&gt;CHECK_YAZAKI_BOUNDS -->
<g id="edge3" class="edge">
<title>PREPARE_YAZAKI_VALVES&#45;&gt;CHECK_YAZAKI_BOUNDS</title>
<path fill="none" stroke="black" d="M2514.36,-499.8C2366.36,-495.38 2111.54,-485.84 1893.44,-468 1716.93,-453.56 1511.98,-427.58 1394.52,-411.8"/>
<polygon fill="black" stroke="black" points="1394.85,-408.31 1384.47,-410.45 1393.92,-415.25 1394.85,-408.31"/>
<text text-anchor="middle" x="2049.44" y="-456.8" font-family="URW Gothic L,sans-Serif" font-weight="demi" font-size="14.00">(sensors.waste_switch_valve in position) and</text>
<text text-anchor="middle" x="2049.44" y="-441.8" font-family="URW Gothic L,sans-Serif" font-weight="demi" font-size="14.00"> (sensors.chiller_switch_valve in position)</text>
</g>
<!-- CHILL_YAZAKI -->
<g id="node4" class="node">
<title>CHILL_YAZAKI</title>
<ellipse fill="none" stroke="black" cx="73.44" cy="-286.5" rx="73.39" ry="18"/>
<text text-anchor="middle" x="73.44" y="-282.8" font-family="URW Gothic L,sans-Serif" font-weight="demi" font-size="14.00">CHILL_YAZAKI</text>
</g>
<!-- CHECK_YAZAKI_BOUNDS&#45;&gt;CHILL_YAZAKI -->
<g id="edge4" class="edge">
<title>CHECK_YAZAKI_BOUNDS&#45;&gt;CHILL_YAZAKI</title>
<path fill="none" stroke="black" d="M1179.83,-392.75C1038.68,-387.63 795.99,-376.75 588.44,-357 428.62,-341.79 242.14,-314.15 143.29,-298.7"/>
<polygon fill="black" stroke="black" points="143.55,-295.2 133.13,-297.11 142.47,-302.11 143.55,-295.2"/>
<text text-anchor="middle" x="726.94" y="-338.3" font-family="URW Gothic L,sans-Serif" font-weight="demi" font-size="14.00">within_yazaki_bounds holds for 0:15:00</text>
</g>
<!-- CHECK_YAZAKI_BOUNDS&#45;&gt;PREPARE_CHILLER_VALVES -->
<g id="edge5" class="edge">
<title>CHECK_YAZAKI_BOUNDS&#45;&gt;PREPARE_CHILLER_VALVES</title>
<path fill="none" stroke="black" d="M1312.77,-379.27C1351.89,-332.21 1460.65,-201.35 1506.57,-146.11"/>
<polygon fill="black" stroke="black" points="1509.42,-148.15 1513.12,-138.23 1504.04,-143.68 1509.42,-148.15"/>
<text text-anchor="middle" x="1556.44" y="-282.8" font-family="URW Gothic L,sans-Serif" font-weight="demi" font-size="14.00">not within_yazaki_bounds holds for 0:10:00</text>
</g>
<!-- CHILL_YAZAKI&#45;&gt;NO_CHILL -->
<g id="edge8" class="edge">
<title>CHILL_YAZAKI&#45;&gt;NO_CHILL</title>
<path fill="none" stroke="black" d="M97.35,-303.73C122.73,-320.09 164.61,-344.64 204.44,-357 618.45,-485.48 741.63,-430.03 1173.44,-468 1909.77,-532.75 2095.21,-532.73 2833.44,-570 3140.32,-585.49 3507.35,-598.13 3653.64,-602.92"/>
<polygon fill="black" stroke="black" points="3653.68,-606.43 3663.79,-603.25 3653.91,-599.43 3653.68,-606.43"/>
<text text-anchor="middle" x="1322.44" y="-449.3" font-family="URW Gothic L,sans-Serif" font-weight="demi" font-size="14.00">sensors.cold_reservoir.temperature &lt; 14.0</text>
</g>
<!-- CHILL_YAZAKI&#45;&gt;PREPARE_CHILLER_VALVES -->
<g id="edge7" class="edge">
<title>CHILL_YAZAKI&#45;&gt;PREPARE_CHILLER_VALVES</title>
<path fill="none" stroke="black" d="M101.16,-269.71C153.78,-240.68 272.62,-179.68 381.44,-156 476.94,-135.22 1100.33,-125.72 1385.49,-122.43"/>
<polygon fill="black" stroke="black" points="1385.94,-125.92 1395.9,-122.31 1385.86,-118.92 1385.94,-125.92"/>
<text text-anchor="middle" x="623.44" y="-234.8" font-family="URW Gothic L,sans-Serif" font-weight="demi" font-size="14.00">((sensors.cold_reservoir.temperature &gt; 16.0) and</text>
<text text-anchor="middle" x="623.44" y="-219.8" font-family="URW Gothic L,sans-Serif" font-weight="demi" font-size="14.00"> ((((sensors.pcm.temperature &lt; 73.0) or</text>
<text text-anchor="middle" x="623.44" y="-204.8" font-family="URW Gothic L,sans-Serif" font-weight="demi" font-size="14.00"> (sensors.yazaki.chill_power &lt; 1000.0 holds for 0:15:00)) or</text>
<text text-anchor="middle" x="623.44" y="-189.8" font-family="URW Gothic L,sans-Serif" font-weight="demi" font-size="14.00"> (2:00:00 passed)) or</text>
<text text-anchor="middle" x="623.44" y="-174.8" font-family="URW Gothic L,sans-Serif" font-weight="demi" font-size="14.00"> (not within_yazaki_bounds holds for 0:10:00 holds for 0:10:00))) and</text>
<text text-anchor="middle" x="623.44" y="-159.8" font-family="URW Gothic L,sans-Serif" font-weight="demi" font-size="14.00"> (not sensors.electrical.battery_system_soc &lt; 0.3)</text>
</g>
<!-- CHILL_CHILLER -->
<g id="node6" class="node">
<title>CHILL_CHILLER</title>
<ellipse fill="none" stroke="black" cx="2754.44" cy="-18" rx="79.09" ry="18"/>
<text text-anchor="middle" x="2754.44" y="-14.3" font-family="URW Gothic L,sans-Serif" font-weight="demi" font-size="14.00">CHILL_CHILLER</text>
</g>
<!-- PREPARE_CHILLER_VALVES&#45;&gt;CHILL_CHILLER -->
<g id="edge6" class="edge">
<title>PREPARE_CHILLER_VALVES&#45;&gt;CHILL_CHILLER</title>
<path fill="none" stroke="black" d="M1609.07,-105.78C1704.74,-90.81 1868.17,-66.82 2009.44,-54 2245.8,-32.55 2525.6,-23.87 2665.48,-20.68"/>
<polygon fill="black" stroke="black" points="2665.8,-24.17 2675.72,-20.45 2665.64,-17.17 2665.8,-24.17"/>
<text text-anchor="middle" x="2165.44" y="-72.8" font-family="URW Gothic L,sans-Serif" font-weight="demi" font-size="14.00">(sensors.waste_switch_valve in position) and</text>
<text text-anchor="middle" x="2165.44" y="-57.8" font-family="URW Gothic L,sans-Serif" font-weight="demi" font-size="14.00"> (sensors.chiller_switch_valve in position)</text>
</g>
<!-- CHILL_CHILLER&#45;&gt;NO_CHILL -->
<g id="edge10" class="edge">
<title>CHILL_CHILLER&#45;&gt;NO_CHILL</title>
<path fill="none" stroke="black" d="M2833.57,-20C3262.88,-25.68 5293.44,-55.88 5293.44,-119 5293.44,-505 5293.44,-505 5293.44,-505 5293.44,-581.92 4081.26,-600.84 3783.77,-604.33"/>
<polygon fill="black" stroke="black" points="3783.53,-600.83 3773.58,-604.44 3783.61,-607.83 3783.53,-600.83"/>
<text text-anchor="middle" x="5456.94" y="-345.8" font-family="URW Gothic L,sans-Serif" font-weight="demi" font-size="14.00">(sensors.cold_reservoir.temperature &lt; 14.0) or</text>
<text text-anchor="middle" x="5456.94" y="-330.8" font-family="URW Gothic L,sans-Serif" font-weight="demi" font-size="14.00"> (sensors.electrical.battery_system_soc &lt; 0.3)</text>
</g>
<!-- CHILL_CHILLER&#45;&gt;PREPARE_YAZAKI_VALVES -->
<g id="edge9" class="edge">
<title>CHILL_CHILLER&#45;&gt;PREPARE_YAZAKI_VALVES</title>
<path fill="none" stroke="black" d="M2750.36,-36.02C2733.12,-107.96 2666.14,-387.44 2644.93,-475.95"/>
<polygon fill="black" stroke="black" points="2641.5,-475.23 2642.57,-485.77 2648.31,-476.87 2641.5,-475.23"/>
<text text-anchor="middle" x="2866.44" y="-297.8" font-family="URW Gothic L,sans-Serif" font-weight="demi" font-size="14.00">((sensors.cold_reservoir.temperature &gt; 16.0) and</text>
<text text-anchor="middle" x="2866.44" y="-282.8" font-family="URW Gothic L,sans-Serif" font-weight="demi" font-size="14.00"> (0:10:00 passed)) and</text>
<text text-anchor="middle" x="2866.44" y="-267.8" font-family="URW Gothic L,sans-Serif" font-weight="demi" font-size="14.00"> (sensors.pcm.temperature &gt; 80.0)</text>
</g>
</g>
</svg>
