<?xml version="1.0" encoding="UTF-8" standalone="no"?>
<!DOCTYPE svg PUBLIC "-//W3C//DTD SVG 1.1//EN"
 "http://www.w3.org/Graphics/SVG/1.1/DTD/svg11.dtd">
<!-- Generated by graphviz version 2.43.0 (0)
 -->
<!-- Title: %3 Pages: 1 -->
<svg width="1891pt" height="347pt"
 viewBox="0.00 0.00 1891.14 347.00" xmlns="http://www.w3.org/2000/svg" xmlns:xlink="http://www.w3.org/1999/xlink">
<g id="graph0" class="graph" transform="scale(1 1) rotate(0) translate(4 343)">
<title>%3</title>
<polygon fill="white" stroke="transparent" points="-4,4 -4,-343 1887.14,-343 1887.14,4 -4,4"/>
<text text-anchor="middle" x="941.57" y="-319" font-family="URW Gothic L,sans-Serif" font-weight="demi" font-size="20.00">cooling_supply</text>
<!-- DISABLED -->
<g id="node1" class="node">
<title>DISABLED</title>
<ellipse fill="none" stroke="black" cx="1208.14" cy="-291" rx="56.59" ry="18"/>
<text text-anchor="middle" x="1208.14" y="-287.3" font-family="URW Gothic L,sans-Serif" font-weight="demi" font-size="14.00">DISABLED</text>
</g>
<!-- ENABLED_NO_SUPPLY -->
<g id="node2" class="node">
<title>ENABLED_NO_SUPPLY</title>
<ellipse fill="none" stroke="black" cx="420.14" cy="-169.5" rx="109.38" ry="18"/>
<text text-anchor="middle" x="420.14" y="-165.8" font-family="URW Gothic L,sans-Serif" font-weight="demi" font-size="14.00">ENABLED_NO_SUPPLY</text>
</g>
<!-- DISABLED&#45;&gt;ENABLED_NO_SUPPLY -->
<g id="edge1" class="edge">
<title>DISABLED&#45;&gt;ENABLED_NO_SUPPLY</title>
<path fill="none" stroke="black" d="M1151.31,-290.33C933.33,-291.3 161.09,-292.12 125.14,-255 66,-193.91 195.26,-176.15 301,-171.44"/>
<polygon fill="black" stroke="black" points="301.3,-174.93 311.15,-171.02 301.01,-167.93 301.3,-174.93"/>
<text text-anchor="middle" x="306.64" y="-243.8" font-family="URW Gothic L,sans-Serif" font-weight="demi" font-size="14.00">((not None) and</text>
<text text-anchor="middle" x="306.64" y="-228.8" font-family="URW Gothic L,sans-Serif" font-weight="demi" font-size="14.00"> (None)) and</text>
<text text-anchor="middle" x="306.64" y="-213.8" font-family="URW Gothic L,sans-Serif" font-weight="demi" font-size="14.00"> (not sensors.weather.ambient_temperature &lt; 20.0)</text>
</g>
<!-- ENABLED_NO_SUPPLY&#45;&gt;DISABLED -->
<g id="edge3" class="edge">
<title>ENABLED_NO_SUPPLY&#45;&gt;DISABLED</title>
<path fill="none" stroke="black" d="M497.53,-182.24C654.4,-206.03 1006.93,-259.49 1148.06,-280.89"/>
<polygon fill="black" stroke="black" points="1147.84,-284.4 1158.25,-282.43 1148.89,-277.47 1147.84,-284.4"/>
<text text-anchor="middle" x="1143.14" y="-243.8" font-family="URW Gothic L,sans-Serif" font-weight="demi" font-size="14.00">(not (not None) and</text>
<text text-anchor="middle" x="1143.14" y="-228.8" font-family="URW Gothic L,sans-Serif" font-weight="demi" font-size="14.00"> (None)) or</text>
<text text-anchor="middle" x="1143.14" y="-213.8" font-family="URW Gothic L,sans-Serif" font-weight="demi" font-size="14.00"> (sensors.weather.ambient_temperature &lt; 20.0)</text>
</g>
<!-- SUPPLY -->
<g id="node3" class="node">
<title>SUPPLY</title>
<ellipse fill="none" stroke="black" cx="1098.14" cy="-18" rx="43.59" ry="18"/>
<text text-anchor="middle" x="1098.14" y="-14.3" font-family="URW Gothic L,sans-Serif" font-weight="demi" font-size="14.00">SUPPLY</text>
</g>
<!-- ENABLED_NO_SUPPLY&#45;&gt;SUPPLY -->
<g id="edge2" class="edge">
<title>ENABLED_NO_SUPPLY&#45;&gt;SUPPLY</title>
<path fill="none" stroke="black" d="M313.76,-165.33C201.11,-160.85 36.78,-150.66 17.14,-129 -5.25,-104.31 -6.04,-77.95 17.14,-54 53.18,-16.77 830.93,-17.72 1044.38,-18.69"/>
<polygon fill="black" stroke="black" points="1044.39,-22.19 1054.4,-18.74 1044.42,-15.19 1044.39,-22.19"/>
<text text-anchor="middle" x="197.64" y="-117.8" font-family="URW Gothic L,sans-Serif" font-weight="demi" font-size="14.00">((cooling_demand) and</text>
<text text-anchor="middle" x="197.64" y="-102.8" font-family="URW Gothic L,sans-Serif" font-weight="demi" font-size="14.00"> (((sensors.rh33_chill.cold_temperature &lt; 14.0) and</text>
<text text-anchor="middle" x="197.64" y="-87.8" font-family="URW Gothic L,sans-Serif" font-weight="demi" font-size="14.00"> (sensors.chilled_flow_sensor.flow &gt; 0)) or</text>
<text text-anchor="middle" x="197.64" y="-72.8" font-family="URW Gothic L,sans-Serif" font-weight="demi" font-size="14.00"> (sensors.cold_reservoir.temperature &lt; 15.0))) and</text>
<text text-anchor="middle" x="197.64" y="-57.8" font-family="URW Gothic L,sans-Serif" font-weight="demi" font-size="14.00"> (0:01:00 passed)</text>
</g>
<!-- SUPPLY&#45;&gt;DISABLED -->
<g id="edge5" class="edge">
<title>SUPPLY&#45;&gt;DISABLED</title>
<path fill="none" stroke="black" d="M1141.69,-19.31C1245.08,-20.51 1498.59,-26.27 1524.14,-54 1588.13,-123.47 1532.81,-201.26 1455.14,-255 1426.63,-274.73 1337.19,-283.47 1274.17,-287.25"/>
<polygon fill="black" stroke="black" points="1273.69,-283.77 1263.9,-287.84 1274.09,-290.76 1273.69,-283.77"/>
<text text-anchor="middle" x="1715.14" y="-180.8" font-family="URW Gothic L,sans-Serif" font-weight="demi" font-size="14.00">(not (not None) and</text>
<text text-anchor="middle" x="1715.14" y="-165.8" font-family="URW Gothic L,sans-Serif" font-weight="demi" font-size="14.00"> (None)) or</text>
<text text-anchor="middle" x="1715.14" y="-150.8" font-family="URW Gothic L,sans-Serif" font-weight="demi" font-size="14.00"> (sensors.weather.ambient_temperature &lt; 20.0)</text>
</g>
<!-- SUPPLY&#45;&gt;ENABLED_NO_SUPPLY -->
<g id="edge4" class="edge">
<title>SUPPLY&#45;&gt;ENABLED_NO_SUPPLY</title>
<path fill="none" stroke="black" d="M1060.6,-27.28C952.04,-51.22 636.32,-120.83 492.75,-152.49"/>
<polygon fill="black" stroke="black" points="491.72,-149.13 482.71,-154.7 493.23,-155.97 491.72,-149.13"/>
<text text-anchor="middle" x="1157.14" y="-110.3" font-family="URW Gothic L,sans-Serif" font-weight="demi" font-size="14.00">(not cooling_demand) or</text>
<text text-anchor="middle" x="1157.14" y="-95.3" font-family="URW Gothic L,sans-Serif" font-weight="demi" font-size="14.00"> (((sensors.rh33_cooling_demand.cold_temperature &gt; 16.0) and</text>
<text text-anchor="middle" x="1157.14" y="-80.3" font-family="URW Gothic L,sans-Serif" font-weight="demi" font-size="14.00"> (sensors.cooling_demand_flow_sensor.flow &gt; 0)) and</text>
<text text-anchor="middle" x="1157.14" y="-65.3" font-family="URW Gothic L,sans-Serif" font-weight="demi" font-size="14.00"> (0:01:00 passed))</text>
</g>
</g>
</svg>
