<?xml version="1.0" encoding="UTF-8" standalone="no"?>
<!DOCTYPE svg PUBLIC "-//W3C//DTD SVG 1.1//EN"
 "http://www.w3.org/Graphics/SVG/1.1/DTD/svg11.dtd">
<!-- Generated by graphviz version 2.43.0 (0)
 -->
<!-- Title: %3 Pages: 1 -->
<svg width="415pt" height="161pt"
 viewBox="0.00 0.00 414.65 161.00" xmlns="http://www.w3.org/2000/svg" xmlns:xlink="http://www.w3.org/1999/xlink">
<g id="graph0" class="graph" transform="scale(1 1) rotate(0) translate(4 157)">
<title>%3</title>
<polygon fill="white" stroke="transparent" points="-4,4 -4,-157 410.65,-157 410.65,4 -4,4"/>
<text text-anchor="middle" x="203.33" y="-133" font-family="URW Gothic L,sans-Serif" font-weight="demi" font-size="20.00">fresh_water</text>
<!-- READY -->
<g id="node1" class="node">
<title>READY</title>
<ellipse fill="none" stroke="black" cx="337.76" cy="-105" rx="40.89" ry="18"/>
<text text-anchor="middle" x="337.76" y="-101.3" font-family="URW Gothic L,sans-Serif" font-weight="demi" font-size="14.00">READY</text>
</g>
<!-- FILTER_TANK -->
<g id="node2" class="node">
<title>FILTER_TANK</title>
<ellipse fill="none" stroke="black" cx="337.76" cy="-18" rx="68.79" ry="18"/>
<text text-anchor="middle" x="337.76" y="-14.3" font-family="URW Gothic L,sans-Serif" font-weight="demi" font-size="14.00">FILTER_TANK</text>
</g>
<!-- READY&#45;&gt;FILTER_TANK -->
<g id="edge1" class="edge">
<title>READY&#45;&gt;FILTER_TANK</title>
<path fill="none" stroke="black" d="M296.87,-102.71C212.21,-99.6 23.99,-90.36 4.76,-69 -30.57,-29.77 149.71,-21.01 258.94,-19.25"/>
<polygon fill="black" stroke="black" points="259.01,-22.75 268.96,-19.1 258.91,-15.75 259.01,-22.75"/>
<text text-anchor="middle" x="22.26" y="-57.8" font-family="URW Gothic L,sans-Serif" font-weight="demi" font-size="14.00">False</text>
</g>
<!-- FILTER_TANK&#45;&gt;READY -->
<g id="edge2" class="edge">
<title>FILTER_TANK&#45;&gt;READY</title>
<path fill="none" stroke="black" d="M337.76,-36.18C337.76,-47.81 337.76,-63.42 337.76,-76.73"/>
<polygon fill="black" stroke="black" points="334.26,-76.8 337.76,-86.8 341.26,-76.8 334.26,-76.8"/>
<text text-anchor="middle" x="353.26" y="-57.8" font-family="URW Gothic L,sans-Serif" font-weight="demi" font-size="14.00">True</text>
</g>
</g>
</svg>
