<?xml version="1.0" encoding="UTF-8" standalone="no"?>
<!DOCTYPE svg PUBLIC "-//W3C//DTD SVG 1.1//EN"
 "http://www.w3.org/Graphics/SVG/1.1/DTD/svg11.dtd">
<!-- Generated by graphviz version 2.43.0 (0)
 -->
<!-- Title: %3 Pages: 1 -->
<svg width="2442pt" height="365pt"
 viewBox="0.00 0.00 2442.33 365.00" xmlns="http://www.w3.org/2000/svg" xmlns:xlink="http://www.w3.org/1999/xlink">
<g id="graph0" class="graph" transform="scale(1 1) rotate(0) translate(4 361)">
<title>%3</title>
<polygon fill="white" stroke="transparent" points="-4,4 -4,-361 2438.33,-361 2438.33,4 -4,4"/>
<text text-anchor="middle" x="1217.17" y="-337" font-family="URW Gothic L,sans-Serif" font-weight="demi" font-size="20.00">hot</text>
<!-- WAITING_FOR_SUN -->
<g id="node1" class="node">
<title>WAITING_FOR_SUN</title>
<ellipse fill="none" stroke="black" cx="731.34" cy="-309" rx="97.48" ry="18"/>
<text text-anchor="middle" x="731.34" y="-305.3" font-family="URW Gothic L,sans-Serif" font-weight="demi" font-size="14.00">WAITING_FOR_SUN</text>
</g>
<!-- IDLE -->
<g id="node2" class="node">
<title>IDLE</title>
<ellipse fill="none" stroke="black" cx="731.34" cy="-207" rx="31.4" ry="18"/>
<text text-anchor="middle" x="731.34" y="-203.3" font-family="URW Gothic L,sans-Serif" font-weight="demi" font-size="14.00">IDLE</text>
</g>
<!-- WAITING_FOR_SUN&#45;&gt;IDLE -->
<g id="edge5" class="edge">
<title>WAITING_FOR_SUN&#45;&gt;IDLE</title>
<path fill="none" stroke="black" d="M635.2,-305.87C468.43,-301.71 141.57,-291.25 124.34,-273 115.19,-263.3 115.19,-252.7 124.34,-243 143.74,-222.45 555.63,-211.79 689.63,-208.85"/>
<polygon fill="black" stroke="black" points="689.97,-212.34 699.89,-208.63 689.81,-205.35 689.97,-212.34"/>
<text text-anchor="middle" x="355.84" y="-261.8" font-family="URW Gothic L,sans-Serif" font-weight="demi" font-size="14.00">(sensors.weather.global_irradiance &gt; 100.0 holds for 0:10:00) and</text>
<text text-anchor="middle" x="355.84" y="-246.8" font-family="URW Gothic L,sans-Serif" font-weight="demi" font-size="14.00"> (sensors.pcm.temperature &lt; 90.0)</text>
</g>
<!-- IDLE&#45;&gt;WAITING_FOR_SUN -->
<g id="edge3" class="edge">
<title>IDLE&#45;&gt;WAITING_FOR_SUN</title>
<path fill="none" stroke="black" d="M731.34,-225.22C731.34,-240.36 731.34,-262.66 731.34,-280.3"/>
<polygon fill="black" stroke="black" points="727.84,-280.58 731.34,-290.58 734.84,-280.58 727.84,-280.58"/>
<text text-anchor="middle" x="955.84" y="-254.3" font-family="URW Gothic L,sans-Serif" font-weight="demi" font-size="14.00">not sensors.weather.global_irradiance &gt; 100.0 holds for 0:10:00</text>
</g>
<!-- PREPARE_HEAT_PCM -->
<g id="node5" class="node">
<title>PREPARE_HEAT_PCM</title>
<ellipse fill="none" stroke="black" cx="103.34" cy="-105" rx="103.18" ry="18"/>
<text text-anchor="middle" x="103.34" y="-101.3" font-family="URW Gothic L,sans-Serif" font-weight="demi" font-size="14.00">PREPARE_HEAT_PCM</text>
</g>
<!-- IDLE&#45;&gt;PREPARE_HEAT_PCM -->
<g id="edge4" class="edge">
<title>IDLE&#45;&gt;PREPARE_HEAT_PCM</title>
<path fill="none" stroke="black" d="M701.47,-201.24C609.53,-186.6 328.42,-141.84 186.77,-119.29"/>
<polygon fill="black" stroke="black" points="187.25,-115.82 176.82,-117.7 186.15,-122.73 187.25,-115.82"/>
<text text-anchor="middle" x="647.34" y="-159.8" font-family="URW Gothic L,sans-Serif" font-weight="demi" font-size="14.00">(sensors.pcm.temperature &lt; 90.0) and</text>
<text text-anchor="middle" x="647.34" y="-144.8" font-family="URW Gothic L,sans-Serif" font-weight="demi" font-size="14.00"> (can_heat_pcm holds for 0:05:00)</text>
</g>
<!-- PREPARE_HEAT_RESERVOIR -->
<g id="node3" class="node">
<title>PREPARE_HEAT_RESERVOIR</title>
<ellipse fill="none" stroke="black" cx="1540.34" cy="-309" rx="135.68" ry="18"/>
<text text-anchor="middle" x="1540.34" y="-305.3" font-family="URW Gothic L,sans-Serif" font-weight="demi" font-size="14.00">PREPARE_HEAT_RESERVOIR</text>
</g>
<!-- HEAT_RESERVOIR -->
<g id="node4" class="node">
<title>HEAT_RESERVOIR</title>
<ellipse fill="none" stroke="black" cx="2343.34" cy="-309" rx="90.98" ry="18"/>
<text text-anchor="middle" x="2343.34" y="-305.3" font-family="URW Gothic L,sans-Serif" font-weight="demi" font-size="14.00">HEAT_RESERVOIR</text>
</g>
<!-- HEAT_PCM -->
<g id="node6" class="node">
<title>HEAT_PCM</title>
<ellipse fill="none" stroke="black" cx="730.34" cy="-18" rx="57.69" ry="18"/>
<text text-anchor="middle" x="730.34" y="-14.3" font-family="URW Gothic L,sans-Serif" font-weight="demi" font-size="14.00">HEAT_PCM</text>
</g>
<!-- PREPARE_HEAT_PCM&#45;&gt;HEAT_PCM -->
<g id="edge1" class="edge">
<title>PREPARE_HEAT_PCM&#45;&gt;HEAT_PCM</title>
<path fill="none" stroke="black" d="M182.12,-93.32C308.39,-76.2 553.53,-42.97 668.28,-27.41"/>
<polygon fill="black" stroke="black" points="668.87,-30.87 678.31,-26.05 667.93,-23.93 668.87,-30.87"/>
<text text-anchor="middle" x="581.84" y="-57.8" font-family="URW Gothic L,sans-Serif" font-weight="demi" font-size="14.00">sensors.hot_switch_valve in position</text>
</g>
<!-- HEAT_PCM&#45;&gt;IDLE -->
<g id="edge2" class="edge">
<title>HEAT_PCM&#45;&gt;IDLE</title>
<path fill="none" stroke="black" d="M781.14,-26.79C804.16,-31.97 830.95,-40.41 852.34,-54 903.9,-86.77 970.33,-120.9 928.34,-171 908.88,-194.23 824.43,-202.05 772.63,-204.68"/>
<polygon fill="black" stroke="black" points="772.24,-201.19 762.42,-205.15 772.57,-208.19 772.24,-201.19"/>
<text text-anchor="middle" x="1071.34" y="-108.8" font-family="URW Gothic L,sans-Serif" font-weight="demi" font-size="14.00">(sensors.pcm.temperature &gt; 95.0) or</text>
<text text-anchor="middle" x="1071.34" y="-93.8" font-family="URW Gothic L,sans-Serif" font-weight="demi" font-size="14.00"> (not can_heat_pcm holds for 0:01:00)</text>
</g>
</g>
</svg>
