<?xml version="1.0" encoding="UTF-8" standalone="no"?>
<!DOCTYPE svg PUBLIC "-//W3C//DTD SVG 1.1//EN"
 "http://www.w3.org/Graphics/SVG/1.1/DTD/svg11.dtd">
<!-- Generated by graphviz version 2.43.0 (0)
 -->
<!-- Title: %3 Pages: 1 -->
<svg width="871pt" height="191pt"
 viewBox="0.00 0.00 871.23 191.00" xmlns="http://www.w3.org/2000/svg" xmlns:xlink="http://www.w3.org/1999/xlink">
<g id="graph0" class="graph" transform="scale(1 1) rotate(0) translate(4 187)">
<title>%3</title>
<polygon fill="white" stroke="transparent" points="-4,4 -4,-187 867.23,-187 867.23,4 -4,4"/>
<text text-anchor="middle" x="431.61" y="-163" font-family="URW Gothic L,sans-Serif" font-weight="demi" font-size="20.00">technical_water</text>
<!-- FILL_FROM_FRESH -->
<g id="node1" class="node">
<title>FILL_FROM_FRESH</title>
<ellipse fill="none" stroke="black" cx="509.23" cy="-135" rx="94.78" ry="18"/>
<text text-anchor="middle" x="509.23" y="-131.3" font-family="URW Gothic L,sans-Serif" font-weight="demi" font-size="14.00">FILL_FROM_FRESH</text>
</g>
<!-- NO_FILL_FROM_FRESH -->
<g id="node2" class="node">
<title>NO_FILL_FROM_FRESH</title>
<ellipse fill="none" stroke="black" cx="509.23" cy="-18" rx="113.18" ry="18"/>
<text text-anchor="middle" x="509.23" y="-14.3" font-family="URW Gothic L,sans-Serif" font-weight="demi" font-size="14.00">NO_FILL_FROM_FRESH</text>
</g>
<!-- FILL_FROM_FRESH&#45;&gt;NO_FILL_FROM_FRESH -->
<g id="edge2" class="edge">
<title>FILL_FROM_FRESH&#45;&gt;NO_FILL_FROM_FRESH</title>
<path fill="none" stroke="black" d="M414.44,-134.16C277.36,-133.38 37.14,-127.86 10.23,-99 -3.41,-84.37 -3.41,-68.63 10.23,-54 35.34,-27.06 246.27,-20.46 385.73,-19.06"/>
<polygon fill="black" stroke="black" points="386.1,-22.56 396.06,-18.97 386.03,-15.56 386.1,-22.56"/>
<text text-anchor="middle" x="187.73" y="-87.8" font-family="URW Gothic L,sans-Serif" font-weight="demi" font-size="14.00">((sensors.technical_water_tank.fill_ratio &gt; 0.55) or</text>
<text text-anchor="middle" x="187.73" y="-72.8" font-family="URW Gothic L,sans-Serif" font-weight="demi" font-size="14.00"> (not sensors.fresh_water_tank.fill_ratio &gt; 0.35)) or</text>
<text text-anchor="middle" x="187.73" y="-57.8" font-family="URW Gothic L,sans-Serif" font-weight="demi" font-size="14.00"> (could_overflow_black)</text>
</g>
<!-- NO_FILL_FROM_FRESH&#45;&gt;FILL_FROM_FRESH -->
<g id="edge1" class="edge">
<title>NO_FILL_FROM_FRESH&#45;&gt;FILL_FROM_FRESH</title>
<path fill="none" stroke="black" d="M509.23,-36.25C509.23,-54.77 509.23,-84.45 509.23,-106.25"/>
<polygon fill="black" stroke="black" points="505.73,-106.53 509.23,-116.53 512.73,-106.53 505.73,-106.53"/>
<text text-anchor="middle" x="686.23" y="-87.8" font-family="URW Gothic L,sans-Serif" font-weight="demi" font-size="14.00">((sensors.technical_water_tank.fill_ratio &lt; 0.5) and</text>
<text text-anchor="middle" x="686.23" y="-72.8" font-family="URW Gothic L,sans-Serif" font-weight="demi" font-size="14.00"> (sensors.fresh_water_tank.fill_ratio &gt; 0.35)) and</text>
<text text-anchor="middle" x="686.23" y="-57.8" font-family="URW Gothic L,sans-Serif" font-weight="demi" font-size="14.00"> (not could_overflow_black)</text>
</g>
</g>
</svg>
