<?xml version="1.0" encoding="UTF-8" standalone="no"?>
<!DOCTYPE svg PUBLIC "-//W3C//DTD SVG 1.1//EN"
 "http://www.w3.org/Graphics/SVG/1.1/DTD/svg11.dtd">
<!-- Generated by graphviz version 2.43.0 (0)
 -->
<!-- Title: %3 Pages: 1 -->
<svg width="2471pt" height="410pt"
 viewBox="0.00 0.00 2471.17 410.00" xmlns="http://www.w3.org/2000/svg" xmlns:xlink="http://www.w3.org/1999/xlink">
<g id="graph0" class="graph" transform="scale(1 1) rotate(0) translate(4 406)">
<title>%3</title>
<polygon fill="white" stroke="transparent" points="-4,4 -4,-406 2467.17,-406 2467.17,4 -4,4"/>
<text text-anchor="middle" x="1231.58" y="-382" font-family="URW Gothic L,sans-Serif" font-weight="demi" font-size="20.00">waste</text>
<!-- NO_OUTBOARD -->
<g id="node1" class="node">
<title>NO_OUTBOARD</title>
<ellipse fill="none" stroke="black" cx="1290.18" cy="-354" rx="81.49" ry="18"/>
<text text-anchor="middle" x="1290.18" y="-350.3" font-family="URW Gothic L,sans-Serif" font-weight="demi" font-size="14.00">NO_OUTBOARD</text>
</g>
<!-- RUN_OUTBOARD -->
<g id="node2" class="node">
<title>RUN_OUTBOARD</title>
<ellipse fill="none" stroke="black" cx="243.18" cy="-237" rx="87.18" ry="18"/>
<text text-anchor="middle" x="243.18" y="-233.3" font-family="URW Gothic L,sans-Serif" font-weight="demi" font-size="14.00">RUN_OUTBOARD</text>
</g>
<!-- NO_OUTBOARD&#45;&gt;RUN_OUTBOARD -->
<g id="edge2" class="edge">
<title>NO_OUTBOARD&#45;&gt;RUN_OUTBOARD</title>
<path fill="none" stroke="black" d="M1209.18,-352.29C931.09,-349.67 31.15,-339.55 10.18,-318 -3.77,-303.67 -2.87,-288.16 10.18,-273 27.99,-252.32 90.54,-243.69 146.35,-240.16"/>
<polygon fill="black" stroke="black" points="146.9,-243.64 156.68,-239.56 146.5,-236.65 146.9,-243.64"/>
<text text-anchor="middle" x="147.68" y="-306.8" font-family="URW Gothic L,sans-Serif" font-weight="demi" font-size="14.00">(0:02:00 passed) and</text>
<text text-anchor="middle" x="147.68" y="-291.8" font-family="URW Gothic L,sans-Serif" font-weight="demi" font-size="14.00"> ((sensors.water_maker.status == 2) or</text>
<text text-anchor="middle" x="147.68" y="-276.8" font-family="URW Gothic L,sans-Serif" font-weight="demi" font-size="14.00"> (chiller_on))</text>
</g>
<!-- TOGGLE_OUTBOARD -->
<g id="node3" class="node">
<title>TOGGLE_OUTBOARD</title>
<ellipse fill="none" stroke="black" cx="1495.18" cy="-120" rx="103.98" ry="18"/>
<text text-anchor="middle" x="1495.18" y="-116.3" font-family="URW Gothic L,sans-Serif" font-weight="demi" font-size="14.00">TOGGLE_OUTBOARD</text>
</g>
<!-- NO_OUTBOARD&#45;&gt;TOGGLE_OUTBOARD -->
<g id="edge1" class="edge">
<title>NO_OUTBOARD&#45;&gt;TOGGLE_OUTBOARD</title>
<path fill="none" stroke="black" d="M1305.25,-335.94C1341.09,-295.38 1431.51,-193.06 1473.33,-145.73"/>
<polygon fill="black" stroke="black" points="1476.08,-147.9 1480.08,-138.08 1470.84,-143.26 1476.08,-147.9"/>
<text text-anchor="middle" x="1424.68" y="-233.3" font-family="URW Gothic L,sans-Serif" font-weight="demi" font-size="14.00">False</text>
</g>
<!-- RUN_OUTBOARD&#45;&gt;NO_OUTBOARD -->
<g id="edge5" class="edge">
<title>RUN_OUTBOARD&#45;&gt;NO_OUTBOARD</title>
<path fill="none" stroke="black" d="M312.67,-247.97C427.63,-264.23 664.74,-296.76 866.18,-318 982.82,-330.3 1117.9,-340.81 1203.66,-347.01"/>
<polygon fill="black" stroke="black" points="1203.65,-350.52 1213.87,-347.75 1204.15,-343.54 1203.65,-350.52"/>
<text text-anchor="middle" x="1004.18" y="-306.8" font-family="URW Gothic L,sans-Serif" font-weight="demi" font-size="14.00">((sensors.water_maker.status != 2) and</text>
<text text-anchor="middle" x="1004.18" y="-291.8" font-family="URW Gothic L,sans-Serif" font-weight="demi" font-size="14.00"> (0:05:00 passed)) and</text>
<text text-anchor="middle" x="1004.18" y="-276.8" font-family="URW Gothic L,sans-Serif" font-weight="demi" font-size="14.00"> (not chiller_on)</text>
</g>
<!-- RUN_OUTBOARD&#45;&gt;TOGGLE_OUTBOARD -->
<g id="edge6" class="edge">
<title>RUN_OUTBOARD&#45;&gt;TOGGLE_OUTBOARD</title>
<path fill="none" stroke="black" d="M312.71,-226.03C432.03,-209.24 683.57,-175.3 897.18,-156 1067.01,-140.66 1264.62,-130.61 1384.74,-125.37"/>
<polygon fill="black" stroke="black" points="1385.21,-128.85 1395.05,-124.92 1384.91,-121.86 1385.21,-128.85"/>
<text text-anchor="middle" x="1019.68" y="-189.8" font-family="URW Gothic L,sans-Serif" font-weight="demi" font-size="14.00">((high_temp_heat_dump) and</text>
<text text-anchor="middle" x="1019.68" y="-174.8" font-family="URW Gothic L,sans-Serif" font-weight="demi" font-size="14.00"> (diverge_heat_dump_outboard)) or</text>
<text text-anchor="middle" x="1019.68" y="-159.8" font-family="URW Gothic L,sans-Serif" font-weight="demi" font-size="14.00"> (False)</text>
</g>
<!-- RUN_OUTBOARD_AFTER_TOGGLE -->
<g id="node4" class="node">
<title>RUN_OUTBOARD_AFTER_TOGGLE</title>
<ellipse fill="none" stroke="black" cx="764.18" cy="-18" rx="161.37" ry="18"/>
<text text-anchor="middle" x="764.18" y="-14.3" font-family="URW Gothic L,sans-Serif" font-weight="demi" font-size="14.00">RUN_OUTBOARD_AFTER_TOGGLE</text>
</g>
<!-- TOGGLE_OUTBOARD&#45;&gt;RUN_OUTBOARD_AFTER_TOGGLE -->
<g id="edge7" class="edge">
<title>TOGGLE_OUTBOARD&#45;&gt;RUN_OUTBOARD_AFTER_TOGGLE</title>
<path fill="none" stroke="black" d="M1391.47,-118.02C1187.24,-115.56 750.71,-107.58 728.18,-84 718.97,-74.36 722.99,-66.28 728.18,-54 729.74,-50.31 731.9,-46.82 734.39,-43.57"/>
<polygon fill="black" stroke="black" points="737.07,-45.82 741.12,-36.03 731.85,-41.16 737.07,-45.82"/>
<text text-anchor="middle" x="803.18" y="-72.8" font-family="URW Gothic L,sans-Serif" font-weight="demi" font-size="14.00">(0:00:01 passed) and</text>
<text text-anchor="middle" x="803.18" y="-57.8" font-family="URW Gothic L,sans-Serif" font-weight="demi" font-size="14.00"> (not False)</text>
</g>
<!-- MANUAL_RUN_OUTBOARD -->
<g id="node5" class="node">
<title>MANUAL_RUN_OUTBOARD</title>
<ellipse fill="none" stroke="black" cx="2333.18" cy="-18" rx="129.98" ry="18"/>
<text text-anchor="middle" x="2333.18" y="-14.3" font-family="URW Gothic L,sans-Serif" font-weight="demi" font-size="14.00">MANUAL_RUN_OUTBOARD</text>
</g>
<!-- TOGGLE_OUTBOARD&#45;&gt;MANUAL_RUN_OUTBOARD -->
<g id="edge8" class="edge">
<title>TOGGLE_OUTBOARD&#45;&gt;MANUAL_RUN_OUTBOARD</title>
<path fill="none" stroke="black" d="M1571.48,-107.67C1665.57,-93.92 1830.43,-70.52 1972.18,-54 2053.4,-44.53 2145.12,-35.66 2215.78,-29.22"/>
<polygon fill="black" stroke="black" points="2216.4,-32.68 2226.05,-28.29 2215.77,-25.71 2216.4,-32.68"/>
<text text-anchor="middle" x="2047.18" y="-72.8" font-family="URW Gothic L,sans-Serif" font-weight="demi" font-size="14.00">(0:00:01 passed) and</text>
<text text-anchor="middle" x="2047.18" y="-57.8" font-family="URW Gothic L,sans-Serif" font-weight="demi" font-size="14.00"> (False)</text>
</g>
<!-- RUN_OUTBOARD_AFTER_TOGGLE&#45;&gt;RUN_OUTBOARD -->
<g id="edge4" class="edge">
<title>RUN_OUTBOARD_AFTER_TOGGLE&#45;&gt;RUN_OUTBOARD</title>
<path fill="none" stroke="black" d="M667.46,-32.48C638.67,-37.78 607.31,-44.84 579.18,-54 478.62,-86.77 456.3,-104.04 364.18,-156 332.73,-173.74 298.55,-196.71 274.56,-213.48"/>
<polygon fill="black" stroke="black" points="272.38,-210.74 266.21,-219.36 276.4,-216.46 272.38,-210.74"/>
<text text-anchor="middle" x="513.68" y="-116.3" font-family="URW Gothic L,sans-Serif" font-weight="demi" font-size="14.00">0:10:00 passed</text>
</g>
<!-- RUN_OUTBOARD_AFTER_TOGGLE&#45;&gt;TOGGLE_OUTBOARD -->
<g id="edge3" class="edge">
<title>RUN_OUTBOARD_AFTER_TOGGLE&#45;&gt;TOGGLE_OUTBOARD</title>
<path fill="none" stroke="black" d="M861.85,-32.36C1004.66,-51.9 1268.41,-87.98 1406.16,-106.82"/>
<polygon fill="black" stroke="black" points="1405.87,-110.32 1416.26,-108.2 1406.82,-103.38 1405.87,-110.32"/>
<text text-anchor="middle" x="1255.68" y="-65.3" font-family="URW Gothic L,sans-Serif" font-weight="demi" font-size="14.00">False</text>
</g>
<!-- MANUAL_RUN_OUTBOARD&#45;&gt;NO_OUTBOARD -->
<g id="edge9" class="edge">
<title>MANUAL_RUN_OUTBOARD&#45;&gt;NO_OUTBOARD</title>
<path fill="none" stroke="black" d="M2317.42,-35.98C2303.75,-50.05 2282.95,-69.96 2262.18,-84 2063.26,-218.52 2007.24,-256.27 1775.18,-318 1703.14,-337.16 1499.68,-346.54 1380.41,-350.52"/>
<polygon fill="black" stroke="black" points="1380.08,-347.03 1370.2,-350.85 1380.31,-354.02 1380.08,-347.03"/>
<text text-anchor="middle" x="2184.18" y="-174.8" font-family="URW Gothic L,sans-Serif" font-weight="demi" font-size="14.00">not False</text>
</g>
</g>
</svg>
