<?xml version="1.0" encoding="UTF-8" standalone="no"?>
<!DOCTYPE svg PUBLIC "-//W3C//DTD SVG 1.1//EN"
 "http://www.w3.org/Graphics/SVG/1.1/DTD/svg11.dtd">
<!-- Generated by graphviz version 2.43.0 (0)
 -->
<!-- Title: %3 Pages: 1 -->
<svg width="830pt" height="176pt"
 viewBox="0.00 0.00 829.82 176.00" xmlns="http://www.w3.org/2000/svg" xmlns:xlink="http://www.w3.org/1999/xlink">
<g id="graph0" class="graph" transform="scale(1 1) rotate(0) translate(4 172)">
<title>%3</title>
<polygon fill="white" stroke="transparent" points="-4,4 -4,-172 825.82,-172 825.82,4 -4,4"/>
<text text-anchor="middle" x="410.91" y="-148" font-family="URW Gothic L,sans-Serif" font-weight="demi" font-size="20.00">water_treatment</text>
<!-- RUN -->
<g id="node1" class="node">
<title>RUN</title>
<ellipse fill="none" stroke="black" cx="499.82" cy="-120" rx="30.59" ry="18"/>
<text text-anchor="middle" x="499.82" y="-116.3" font-family="URW Gothic L,sans-Serif" font-weight="demi" font-size="14.00">RUN</text>
</g>
<!-- NO_RUN -->
<g id="node2" class="node">
<title>NO_RUN</title>
<ellipse fill="none" stroke="black" cx="499.82" cy="-18" rx="49.29" ry="18"/>
<text text-anchor="middle" x="499.82" y="-14.3" font-family="URW Gothic L,sans-Serif" font-weight="demi" font-size="14.00">NO_RUN</text>
</g>
<!-- RUN&#45;&gt;NO_RUN -->
<g id="edge2" class="edge">
<title>RUN&#45;&gt;NO_RUN</title>
<path fill="none" stroke="black" d="M469.07,-119.19C366.14,-119.5 38.33,-117.83 6.82,-84 -2.27,-74.24 -2.27,-63.76 6.82,-54 35.79,-22.89 315.35,-18.97 440.16,-18.79"/>
<polygon fill="black" stroke="black" points="440.31,-22.29 450.31,-18.78 440.31,-15.29 440.31,-22.29"/>
<text text-anchor="middle" x="181.32" y="-72.8" font-family="URW Gothic L,sans-Serif" font-weight="demi" font-size="14.00">(sensors.grey_water_tank.fill_ratio &lt; 1.0) or</text>
<text text-anchor="middle" x="181.32" y="-57.8" font-family="URW Gothic L,sans-Serif" font-weight="demi" font-size="14.00"> (not sensors.technical_water_tank.fill_ratio &lt; 0.8)</text>
</g>
<!-- NO_RUN&#45;&gt;RUN -->
<g id="edge1" class="edge">
<title>NO_RUN&#45;&gt;RUN</title>
<path fill="none" stroke="black" d="M499.82,-36.22C499.82,-51.36 499.82,-73.66 499.82,-91.3"/>
<polygon fill="black" stroke="black" points="496.32,-91.58 499.82,-101.58 503.32,-91.58 496.32,-91.58"/>
<text text-anchor="middle" x="660.82" y="-72.8" font-family="URW Gothic L,sans-Serif" font-weight="demi" font-size="14.00">(sensors.grey_water_tank.fill_ratio &gt; 1.0) and</text>
<text text-anchor="middle" x="660.82" y="-57.8" font-family="URW Gothic L,sans-Serif" font-weight="demi" font-size="14.00"> (sensors.technical_water_tank.fill_ratio &lt; 0.8)</text>
</g>
</g>
</svg>
