<svg width="1920" height="1080" viewBox="0 0 1920 1080" fill="none" xmlns="http://www.w3.org/2000/svg">
<g>
<rect x="357" y="534" width="23" height="65" transform="rotate(90 357 534)" fill="#E6E6E6"/>
<rect x="312" y="513" width="22" height="65" fill="#E6E6E6"/>
<path d="M425.2 519.45H404.1V535H400.1V501H404.1V515.95H425.2V501H429.15V535H425.2V519.45ZM435.655 523.25C435.655 520.917 436.188 518.817 437.255 516.95C438.321 515.083 439.788 513.617 441.655 512.55C443.555 511.483 445.688 510.95 448.055 510.95C450.455 510.95 452.588 511.483 454.455 512.55C456.355 513.583 457.821 515.05 458.855 516.95C459.921 518.817 460.455 520.917 460.455 523.25C460.455 525.583 459.921 527.683 458.855 529.55C457.821 531.417 456.355 532.883 454.455 533.95C452.588 534.983 450.455 535.5 448.055 535.5C445.655 535.5 443.505 534.983 441.605 533.95C439.738 532.883 438.271 531.417 437.205 529.55C436.171 527.683 435.655 525.583 435.655 523.25ZM439.555 523.25C439.555 525.883 440.338 528.017 441.905 529.65C443.505 531.25 445.555 532.05 448.055 532.05C450.621 532.05 452.688 531.25 454.255 529.65C455.855 528.05 456.655 525.917 456.655 523.25C456.655 520.583 455.855 518.45 454.255 516.85C452.655 515.25 450.588 514.45 448.055 514.45C445.521 514.45 443.471 515.25 441.905 516.85C440.338 518.45 439.555 520.583 439.555 523.25ZM482.596 515.85L476.096 535H472.196L464.046 511.4H468.046L474.146 530.9L480.746 511.4H484.546L491.096 530.9L497.146 511.4H501.146L492.996 535H489.046L482.596 515.85ZM525.725 535.5C523.558 535.5 521.575 535 519.775 534C517.975 532.967 516.558 531.517 515.525 529.65C514.492 527.783 513.975 525.667 513.975 523.3C513.975 520.867 514.492 518.717 515.525 516.85C516.558 514.983 517.975 513.533 519.775 512.5C521.608 511.467 523.625 510.95 525.825 510.95C529.125 510.95 531.975 512.05 534.375 514.25V501H538.125V535.05H534.375V531.9C533.508 532.9 532.342 533.75 530.875 534.45C529.408 535.15 527.692 535.5 525.725 535.5ZM526.375 532.1C528.342 532.1 529.992 531.683 531.325 530.85C532.658 529.983 533.675 528.967 534.375 527.8V518.4C533.708 517.4 532.692 516.5 531.325 515.7C529.958 514.867 528.325 514.45 526.425 514.45C523.925 514.45 521.875 515.267 520.275 516.9C518.675 518.5 517.875 520.633 517.875 523.3C517.875 525.933 518.658 528.067 520.225 529.7C521.825 531.3 523.875 532.1 526.375 532.1ZM544.346 523.25C544.346 520.917 544.879 518.817 545.946 516.95C547.013 515.083 548.479 513.617 550.346 512.55C552.246 511.483 554.379 510.95 556.746 510.95C559.146 510.95 561.279 511.483 563.146 512.55C565.046 513.583 566.513 515.05 567.546 516.95C568.613 518.817 569.146 520.917 569.146 523.25C569.146 525.583 568.613 527.683 567.546 529.55C566.513 531.417 565.046 532.883 563.146 533.95C561.279 534.983 559.146 535.5 556.746 535.5C554.346 535.5 552.196 534.983 550.296 533.95C548.429 532.883 546.963 531.417 545.896 529.55C544.863 527.683 544.346 525.583 544.346 523.25ZM548.246 523.25C548.246 525.883 549.029 528.017 550.596 529.65C552.196 531.25 554.246 532.05 556.746 532.05C559.313 532.05 561.379 531.25 562.946 529.65C564.546 528.05 565.346 525.917 565.346 523.25C565.346 520.583 564.546 518.45 562.946 516.85C561.346 515.25 559.279 514.45 556.746 514.45C554.213 514.45 552.163 515.25 550.596 516.85C549.029 518.45 548.246 520.583 548.246 523.25ZM586.587 535.5C584.087 535.5 581.87 534.983 579.937 533.95C578.037 532.883 576.554 531.417 575.487 529.55C574.42 527.683 573.887 525.583 573.887 523.25C573.887 520.917 574.404 518.817 575.437 516.95C576.504 515.083 577.97 513.617 579.837 512.55C581.704 511.483 583.82 510.95 586.187 510.95C588.52 510.95 590.604 511.483 592.437 512.55C594.304 513.617 595.754 515.083 596.787 516.95C597.82 518.817 598.337 520.917 598.337 523.25C598.337 523.85 598.304 524.283 598.237 524.55H577.687C577.92 526.883 578.837 528.733 580.437 530.1C582.07 531.467 584.12 532.15 586.587 532.15C588.587 532.15 590.22 531.817 591.487 531.15C592.754 530.45 593.72 529.733 594.387 529L596.637 531.65C595.904 532.55 594.67 533.417 592.937 534.25C591.237 535.083 589.12 535.5 586.587 535.5ZM586.137 514.35C583.87 514.35 581.97 515.017 580.437 516.35C578.904 517.65 578.004 519.417 577.737 521.65H594.537C594.304 519.417 593.42 517.65 591.887 516.35C590.354 515.017 588.437 514.35 586.137 514.35ZM613.842 535.5C611.276 535.5 609.026 535.067 607.092 534.2C605.159 533.333 603.809 532.483 603.042 531.65L605.142 528.9C607.576 531.1 610.476 532.2 613.842 532.2C615.842 532.2 617.442 531.883 618.642 531.25C619.876 530.583 620.492 529.633 620.492 528.4C620.492 527.533 620.209 526.867 619.642 526.4C619.076 525.933 618.276 525.6 617.242 525.4C616.242 525.167 614.709 524.933 612.642 524.7C609.476 524.3 607.092 523.617 605.492 522.65C603.892 521.683 603.092 520.1 603.092 517.9C603.092 515.833 603.992 514.167 605.792 512.9C607.626 511.6 610.059 510.95 613.092 510.95C615.326 510.95 617.276 511.283 618.942 511.95C620.642 512.617 621.959 513.35 622.892 514.15L620.942 517C620.142 516.333 619.076 515.717 617.742 515.15C616.442 514.55 614.892 514.25 613.092 514.25C611.159 514.25 609.626 514.583 608.492 515.25C607.359 515.883 606.792 516.733 606.792 517.8C606.792 518.667 607.109 519.333 607.742 519.8C608.376 520.267 609.192 520.6 610.192 520.8C611.226 521 612.742 521.217 614.742 521.45C617.976 521.85 620.359 522.55 621.892 523.55C623.459 524.517 624.242 526.083 624.242 528.25C624.242 530.483 623.276 532.25 621.342 533.55C619.442 534.85 616.942 535.5 613.842 535.5ZM400 558H404V562.15H400V558ZM400.15 568.4H403.9V592H400.15V568.4ZM421.362 592.5C418.462 592.5 416.345 591.75 415.012 590.25C413.678 588.717 413.012 586.183 413.012 582.65V571.65H408.012V568.4H413.012V561.95H416.812V568.4H423.912V571.65H416.812V581.8C416.812 583.7 416.928 585.15 417.162 586.15C417.428 587.15 417.912 587.883 418.612 588.35C419.312 588.817 420.345 589.05 421.712 589.05C422.578 589.05 423.412 588.917 424.212 588.65V592.05C423.378 592.35 422.428 592.5 421.362 592.5ZM453.787 572.85L447.287 592H443.387L435.237 568.4H439.237L445.337 587.9L451.937 568.4H455.737L462.287 587.9L468.337 568.4H472.337L464.187 592H460.237L453.787 572.85ZM475.84 580.25C475.84 577.917 476.374 575.817 477.44 573.95C478.507 572.083 479.974 570.617 481.84 569.55C483.74 568.483 485.874 567.95 488.24 567.95C490.64 567.95 492.774 568.483 494.64 569.55C496.54 570.583 498.007 572.05 499.04 573.95C500.107 575.817 500.64 577.917 500.64 580.25C500.64 582.583 500.107 584.683 499.04 586.55C498.007 588.417 496.54 589.883 494.64 590.95C492.774 591.983 490.64 592.5 488.24 592.5C485.84 592.5 483.69 591.983 481.79 590.95C479.924 589.883 478.457 588.417 477.39 586.55C476.357 584.683 475.84 582.583 475.84 580.25ZM479.74 580.25C479.74 582.883 480.524 585.017 482.09 586.65C483.69 588.25 485.74 589.05 488.24 589.05C490.807 589.05 492.874 588.25 494.44 586.65C496.04 585.05 496.84 582.917 496.84 580.25C496.84 577.583 496.04 575.45 494.44 573.85C492.84 572.25 490.774 571.45 488.24 571.45C485.707 571.45 483.657 572.25 482.09 573.85C480.524 575.45 479.74 577.583 479.74 580.25ZM506.881 568.4H510.681V572.2C511.515 571 512.531 570 513.731 569.2C514.931 568.367 516.265 567.95 517.731 567.95C518.198 567.95 518.665 568 519.131 568.1V571.85C518.665 571.783 518.198 571.75 517.731 571.75C516.198 571.75 514.815 572.183 513.581 573.05C512.348 573.917 511.381 574.983 510.681 576.25V592H506.881V568.4ZM527.771 592H523.971V557.95H527.771V580.75L541.371 568.4H546.271L536.071 577.55L547.621 592H542.871L533.371 580.1L527.771 585.1V592ZM558.663 574.3H559.463C562.463 574.3 564.779 573.75 566.413 572.65C568.046 571.517 568.863 569.833 568.863 567.6C568.863 565.633 568.096 564.05 566.563 562.85C565.063 561.65 563.096 561.05 560.663 561.05C558.696 561.05 556.846 561.517 555.113 562.45C553.413 563.35 551.996 564.583 550.862 566.15L548.113 563.65C549.479 561.717 551.279 560.217 553.513 559.15C555.746 558.05 558.146 557.5 560.713 557.5C563.146 557.5 565.279 557.917 567.113 558.75C568.979 559.583 570.413 560.75 571.413 562.25C572.413 563.75 572.913 565.467 572.913 567.4C572.913 570.333 571.979 572.65 570.113 574.35C568.279 576.017 565.613 577.083 562.113 577.55V582.1H558.663V574.3ZM557.963 587.15H562.813V592H557.963V587.15Z" fill="black"/>
<path d="M851.501 219.176C849.98 214.783 846.363 212.056 842.061 212.056C838.977 212.056 835.963 213.456 833.797 215.895C831.909 218.022 829.744 219.906 827.448 221.9C827.073 222.224 826.7 222.551 826.328 222.875C823.82 225.072 820.75 226.28 817.686 226.28C815.47 226.28 813.31 225.641 811.437 224.432C809.339 223.078 807.469 221.548 805.877 219.888C801.74 215.571 797.636 212.038 793.331 209.09C789.449 206.433 785.437 204.809 781.365 204.243V203.667L778.204 203.894C777.699 203.931 777.167 203.985 776.62 204.061C774.212 204.209 771.769 204.724 769.358 205.594C763.919 207.554 758.822 210.747 754.216 215.083L754.018 215.268C750.865 218.234 747.603 221.303 744.144 223.76C742.315 225.056 740.45 225.844 738.598 226.099C735.395 226.023 732.367 224.653 729.832 222.136C726.791 219.118 723.411 215.934 719.502 212.408C714.296 207.712 708.612 204.985 702.602 204.3C701.258 204.034 699.899 203.876 698.56 203.84L695.526 203.755V204.406C690.559 205.13 685.838 207.248 681.453 210.72C678.165 213.323 674.995 216.128 671.931 218.843C670.539 220.076 669.097 221.351 667.673 222.581C664.854 225.017 661.717 226.305 658.603 226.308C655.491 226.308 652.383 225.02 649.609 222.587C648.377 221.506 647.213 220.354 645.981 219.133C645.156 218.318 644.302 217.473 643.428 216.652C641.498 214.843 639.058 213.847 636.552 213.847C634.047 213.847 631.474 214.895 629.521 216.798C627.55 218.715 626.386 221.345 626.321 224.014C626.262 226.45 627.118 228.75 628.732 230.486L629.337 231.137C632.286 234.318 635.338 237.605 638.928 240.244C645.011 244.713 651.461 246.982 658.094 246.982C662.334 246.982 666.671 246.046 670.985 244.198C676.23 241.953 680.387 238.302 683.761 235.03C684.263 234.542 684.759 234.055 685.259 233.564C688.459 230.416 691.478 227.447 695.21 225.538C695.99 225.138 696.755 224.85 697.497 224.678L697.934 224.763C698.977 224.966 700.041 225.414 701.095 226.102C702.638 227.104 704.201 228.328 705.873 229.846C707.259 231.101 708.644 232.44 709.986 233.73C711.871 235.545 713.818 237.424 715.862 239.181C721.576 244.092 728.836 246.797 736.305 246.797C736.462 246.797 736.618 246.797 736.775 246.794C737.156 246.809 737.546 246.816 737.93 246.816C740.61 246.816 743.381 246.464 746.165 245.77C754.951 243.58 761.472 237.933 766.69 232.697C768.921 230.461 771.512 228.274 774.39 226.199C775.628 225.308 776.898 224.793 778.169 224.672C779.486 224.917 780.754 225.571 782.033 226.668C783.794 228.174 785.836 229.934 787.798 231.719C789.739 233.485 791.692 235.315 793.583 237.087C794.197 237.663 794.809 238.236 795.423 238.811C800.996 244.016 808.79 247 816.806 247C823.066 247 828.978 245.237 833.904 241.904C837.172 239.693 840.212 237.148 843.152 234.688C844.201 233.812 845.285 232.903 846.351 232.037C848.691 230.134 850.402 227.865 851.442 225.29L851.667 224.732V219.67L851.495 219.179L851.501 219.176Z" fill="#AFD3FB"/>
<path d="M629.116 135.142C631.186 137.12 633.325 139.163 635.588 141.061C641.844 146.299 649.009 148.958 656.882 148.958C659.652 148.958 662.537 148.624 665.464 147.964C672.427 146.394 677.861 142.135 682.695 137.765L683.584 136.959C686.636 134.196 689.792 131.338 693.09 128.935C694.232 128.105 695.315 127.555 696.365 127.272L697.394 127.379C699.012 127.546 700.639 128.298 702.234 129.613C705.922 132.662 709.822 136.142 714.158 140.261C719.929 145.742 727.276 148.922 734.84 149.216H734.923C735.116 149.219 735.307 149.222 735.497 149.222C736.27 149.222 737.053 149.204 737.823 149.166C737.939 149.166 738.052 149.166 738.168 149.166C741.264 149.166 744.444 148.696 747.615 147.765C755.473 145.463 761.559 140.317 766.476 135.588C769.141 133.025 771.586 130.963 773.95 129.286C775.482 128.2 776.999 127.561 778.466 127.385C779.426 127.534 780.396 127.93 781.351 128.563C783.415 129.937 785.5 131.526 787.55 133.283C788.936 134.473 790.316 135.764 791.648 137.016C792.907 138.194 794.206 139.413 795.551 140.582C801.925 146.129 809.076 148.943 816.812 148.943C820.492 148.943 824.34 148.297 828.252 147.024C835.623 144.624 840.887 139.604 845.98 134.75C847.044 133.735 848.145 132.685 849.234 131.692C849.489 131.457 849.659 131.228 849.766 131.065C852.505 127.15 852.268 122.234 849.156 118.531C847.312 116.339 844.757 115.129 841.964 115.129C840.334 115.129 838.713 115.536 837.151 116.342C835.822 117.026 834.701 117.948 833.683 118.84C832.612 119.783 831.559 120.753 830.542 121.69C829.344 122.793 828.106 123.935 826.869 125C823.888 127.57 820.753 128.873 817.55 128.873C814.394 128.873 811.304 127.605 808.359 125.107C807.11 124.045 805.929 122.906 804.676 121.699C803.454 120.518 802.19 119.298 800.842 118.147C798.43 116.083 795.601 113.716 792.573 111.738C787.758 108.594 782.701 107 777.547 107C772.823 107 767.963 108.344 763.1 110.994C759.682 112.856 756.428 115.295 752.552 118.9L752.017 119.397C749.197 122.023 746.279 124.738 743.174 126.853C741.797 127.793 740.366 128.444 738.923 128.795C738.584 128.822 738.242 128.837 737.903 128.837C737.228 128.837 736.538 128.783 735.848 128.673C733.373 128.287 731.11 127.07 728.275 124.61C727.276 123.742 726.279 122.865 725.283 121.984C721.487 118.638 717.564 115.176 713.319 112.175C708.498 108.767 703.346 107.039 698.01 107.039C693.468 107.039 688.834 108.3 684.241 110.789C681.13 112.476 678.352 114.611 675.544 116.833C673.78 118.228 672.073 119.706 670.422 121.134C668.507 122.79 666.526 124.503 664.518 126.032C662.022 127.933 659.417 128.896 656.778 128.896C653.994 128.896 651.252 127.829 648.634 125.723C647.326 124.67 646.094 123.495 644.794 122.252C643.985 121.482 643.152 120.681 642.29 119.908C640.05 117.901 637.584 116.883 634.955 116.883C633.813 116.883 632.65 117.083 631.502 117.478C627.766 118.76 625.475 121.702 625.059 125.761C624.72 129.042 625.85 132.022 628.325 134.381L629.107 135.127L629.116 135.142Z" fill="#AFD3FB"/>
<path d="M640.983 193.589C646.418 196.589 651.924 198.111 657.356 198.111C662.324 198.111 667.306 196.836 672.162 194.326C675.875 192.407 678.872 189.729 681.771 187.138C682.348 186.622 682.925 186.108 683.508 185.598C686.81 182.714 690.221 179.733 693.825 177.309C694.976 176.536 696.144 176.16 697.399 176.16C697.455 176.16 697.508 176.16 697.565 176.16C698.42 176.389 699.278 176.789 700.121 177.348C701.701 178.395 703.325 179.649 705.082 181.183C707.228 183.055 709.378 185.013 711.458 186.908C712.592 187.941 713.728 188.974 714.867 189.998C720.408 194.983 728.409 197.965 736.273 197.98C736.566 197.989 736.855 197.991 737.148 197.991C741.521 197.991 746.018 197.012 750.519 195.081C755.581 192.908 759.717 189.484 763.43 186.111C766.495 183.326 770.149 180.106 773.987 177.356C774.596 176.921 775.226 176.58 775.868 176.342C775.996 176.336 776.12 176.333 776.247 176.333C777.759 176.333 779.315 176.849 780.865 177.867C782.502 178.941 784.158 180.219 785.786 181.67C787.031 182.78 788.215 183.944 789.466 185.177C790.375 186.07 791.312 186.995 792.274 187.89C799.393 194.535 806.979 198.048 814.215 198.048C814.34 198.048 814.464 198.048 814.585 198.045H814.662C823.299 198.045 829.464 196.102 834.654 191.741C837.213 189.592 839.746 187.356 842.195 185.192C843.092 184.401 843.985 183.61 844.885 182.825C845.5 182.285 846.018 181.762 846.459 181.231C850.107 176.864 849.847 170.706 845.855 166.912C843.944 165.094 841.61 164.133 839.101 164.133C836.592 164.133 833.967 165.19 831.864 167.109C828.5 170.181 825.663 172.688 822.938 175.004C820.722 176.888 817.893 177.927 814.979 177.927C812.541 177.927 810.201 177.207 808.212 175.846C807.011 175.022 805.878 173.983 804.68 172.882C804.052 172.306 803.402 171.709 802.724 171.13C801.585 170.154 800.434 169.124 799.322 168.124C796.682 165.757 793.952 163.309 790.946 161.211C786.079 157.814 780.91 156.092 775.581 156.092C771.321 156.092 766.957 157.202 762.617 159.39C757.64 161.897 753.584 165.375 750.273 168.446C749.906 168.787 749.542 169.127 749.175 169.467C746.64 171.831 744.243 174.067 741.601 175.939C740.092 177.01 738.483 177.715 736.817 178.04C733.707 177.965 730.693 176.604 727.855 173.995C727.255 173.443 726.663 172.885 726.071 172.327C725.269 171.572 724.441 170.79 723.598 170.028C722.74 169.255 721.867 168.437 721.027 167.646C718.899 165.652 716.701 163.59 714.263 161.79C708.952 157.874 703.358 155.889 697.636 155.889C694.561 155.889 691.428 156.468 688.319 157.611C683.839 159.259 679.526 161.939 675.132 165.808C673.845 166.939 672.555 168.097 671.303 169.217C669.227 171.076 667.081 172.998 664.939 174.825C662.584 176.831 659.768 177.891 656.794 177.891C653.489 177.891 650.309 176.551 647.838 174.118C646.048 172.357 644.022 170.363 641.933 168.491C639.856 166.629 637.323 165.605 634.806 165.605C632.288 165.605 629.87 166.629 628.03 168.488C624.021 172.536 623.986 178.721 627.95 182.873C631.649 186.744 635.785 190.723 640.974 193.589H640.983Z" fill="#AFD3FB"/>
<path d="M1114.12 407.6C1110.2 407.6 1106.68 406.92 1103.56 405.56C1100.48 404.2 1098.04 402.6 1096.24 400.76L1099.3 397.16C1103.5 401.2 1108.44 403.22 1114.12 403.22C1117.48 403.22 1120.12 402.58 1122.04 401.3C1124 399.98 1124.98 398.24 1124.98 396.08C1124.98 394.48 1124.44 393.22 1123.36 392.3C1122.28 391.34 1120.88 390.62 1119.16 390.14C1117.44 389.62 1115.08 389.1 1112.08 388.58C1108.8 388.02 1106.06 387.36 1103.86 386.6C1101.66 385.8 1099.86 384.64 1098.46 383.12C1097.1 381.6 1096.42 379.58 1096.42 377.06C1096.42 374.7 1097.08 372.66 1098.4 370.94C1099.72 369.22 1101.54 367.92 1103.86 367.04C1106.22 366.12 1108.88 365.66 1111.84 365.66C1115.44 365.66 1118.54 366.22 1121.14 367.34C1123.74 368.46 1125.82 369.78 1127.38 371.3L1124.44 375.02C1123.12 373.66 1121.38 372.5 1119.22 371.54C1117.06 370.54 1114.56 370.04 1111.72 370.04C1108.6 370.04 1106.1 370.68 1104.22 371.96C1102.34 373.2 1101.4 374.82 1101.4 376.82C1101.4 378.38 1101.94 379.62 1103.02 380.54C1104.1 381.46 1105.56 382.18 1107.4 382.7C1109.24 383.18 1111.82 383.72 1115.14 384.32C1118.46 384.92 1121.16 385.66 1123.24 386.54C1125.36 387.38 1127 388.54 1128.16 390.02C1129.32 391.46 1129.9 393.36 1129.9 395.72C1129.9 398.12 1129.26 400.22 1127.98 402.02C1126.7 403.82 1124.86 405.2 1122.46 406.16C1120.1 407.12 1117.32 407.6 1114.12 407.6ZM1146.95 407.6C1144.95 407.6 1143.11 407.24 1141.43 406.52C1139.75 405.76 1138.41 404.68 1137.41 403.28C1136.41 401.88 1135.91 400.22 1135.91 398.3C1135.91 395.5 1136.95 393.32 1139.03 391.76C1141.11 390.2 1143.91 389.42 1147.43 389.42C1149.51 389.42 1151.45 389.64 1153.25 390.08C1155.09 390.52 1156.65 391 1157.93 391.52V390.02C1157.93 387.54 1157.17 385.62 1155.65 384.26C1154.17 382.86 1151.95 382.16 1148.99 382.16C1145.59 382.16 1142.37 383.12 1139.33 385.04L1137.47 381.44C1138.71 380.6 1140.35 379.84 1142.39 379.16C1144.47 378.48 1146.75 378.14 1149.23 378.14C1153.11 378.14 1156.25 379.14 1158.65 381.14C1161.05 383.1 1162.25 386.16 1162.25 390.32V407.06H1157.81V402.2C1157.01 403.56 1155.67 404.8 1153.79 405.92C1151.91 407.04 1149.63 407.6 1146.95 407.6ZM1147.73 403.82C1149.69 403.82 1151.45 403.46 1153.01 402.74C1154.57 401.98 1155.77 400.98 1156.61 399.74C1157.49 398.46 1157.93 397.06 1157.93 395.54V395.06C1156.89 394.54 1155.53 394.04 1153.85 393.56C1152.17 393.08 1150.27 392.84 1148.15 392.84C1145.83 392.84 1143.99 393.32 1142.63 394.28C1141.27 395.24 1140.59 396.54 1140.59 398.18C1140.59 399.94 1141.23 401.32 1142.51 402.32C1143.83 403.32 1145.57 403.82 1147.73 403.82ZM1198.21 378.68L1185.49 407H1180.99L1168.27 378.68H1173.25L1183.33 402.2L1193.29 378.68H1198.21ZM1217.58 407.6C1214.58 407.6 1211.92 406.98 1209.6 405.74C1207.32 404.46 1205.54 402.7 1204.26 400.46C1202.98 398.22 1202.34 395.7 1202.34 392.9C1202.34 390.1 1202.96 387.58 1204.2 385.34C1205.48 383.1 1207.24 381.34 1209.48 380.06C1211.72 378.78 1214.26 378.14 1217.1 378.14C1219.9 378.14 1222.4 378.78 1224.6 380.06C1226.84 381.34 1228.58 383.1 1229.82 385.34C1231.06 387.58 1231.68 390.1 1231.68 392.9C1231.68 393.62 1231.64 394.14 1231.56 394.46H1206.9C1207.18 397.26 1208.28 399.48 1210.2 401.12C1212.16 402.76 1214.62 403.58 1217.58 403.58C1219.98 403.58 1221.94 403.18 1223.46 402.38C1224.98 401.54 1226.14 400.68 1226.94 399.8L1229.64 402.98C1228.76 404.06 1227.28 405.1 1225.2 406.1C1223.16 407.1 1220.62 407.6 1217.58 407.6ZM1217.04 382.22C1214.32 382.22 1212.04 383.02 1210.2 384.62C1208.36 386.18 1207.28 388.3 1206.96 390.98H1227.12C1226.84 388.3 1225.78 386.18 1223.94 384.62C1222.1 383.02 1219.8 382.22 1217.04 382.22ZM1251.19 407.6C1248.59 407.6 1246.21 407 1244.05 405.8C1241.89 404.56 1240.19 402.82 1238.95 400.58C1237.71 398.34 1237.09 395.8 1237.09 392.96C1237.09 390.04 1237.71 387.46 1238.95 385.22C1240.19 382.98 1241.89 381.24 1244.05 380C1246.25 378.76 1248.67 378.14 1251.31 378.14C1255.27 378.14 1258.69 379.46 1261.57 382.1V366.2H1266.07V407.06H1261.57V403.28C1260.53 404.48 1259.13 405.5 1257.37 406.34C1255.61 407.18 1253.55 407.6 1251.19 407.6ZM1251.97 403.52C1254.33 403.52 1256.31 403.02 1257.91 402.02C1259.51 400.98 1260.73 399.76 1261.57 398.36V387.08C1260.77 385.88 1259.55 384.8 1257.91 383.84C1256.27 382.84 1254.31 382.34 1252.03 382.34C1249.03 382.34 1246.57 383.32 1244.65 385.28C1242.73 387.2 1241.77 389.76 1241.77 392.96C1241.77 396.12 1242.71 398.68 1244.59 400.64C1246.51 402.56 1248.97 403.52 1251.97 403.52ZM1299.97 407.6C1296.97 407.6 1294.31 406.98 1291.99 405.74C1289.71 404.46 1287.93 402.7 1286.65 400.46C1285.37 398.22 1284.73 395.7 1284.73 392.9C1284.73 390.1 1285.35 387.58 1286.59 385.34C1287.87 383.1 1289.63 381.34 1291.87 380.06C1294.11 378.78 1296.65 378.14 1299.49 378.14C1302.29 378.14 1304.79 378.78 1306.99 380.06C1309.23 381.34 1310.97 383.1 1312.21 385.34C1313.45 387.58 1314.07 390.1 1314.07 392.9C1314.07 393.62 1314.03 394.14 1313.95 394.46H1289.29C1289.57 397.26 1290.67 399.48 1292.59 401.12C1294.55 402.76 1297.01 403.58 1299.97 403.58C1302.37 403.58 1304.33 403.18 1305.85 402.38C1307.37 401.54 1308.53 400.68 1309.33 399.8L1312.03 402.98C1311.15 404.06 1309.67 405.1 1307.59 406.1C1305.55 407.1 1303.01 407.6 1299.97 407.6ZM1299.43 382.22C1296.71 382.22 1294.43 383.02 1292.59 384.62C1290.75 386.18 1289.67 388.3 1289.35 390.98H1309.51C1309.23 388.3 1308.17 386.18 1306.33 384.62C1304.49 383.02 1302.19 382.22 1299.43 382.22ZM1321.27 378.68H1325.83V382.1C1328.79 379.46 1332.11 378.14 1335.79 378.14C1339.27 378.14 1342.03 379.2 1344.07 381.32C1346.11 383.4 1347.13 386.36 1347.13 390.2V407H1342.63V391.16C1342.63 388.04 1341.93 385.78 1340.53 384.38C1339.13 382.94 1337.23 382.22 1334.83 382.22C1332.83 382.22 1331.03 382.7 1329.43 383.66C1327.87 384.62 1326.67 385.66 1325.83 386.78V407H1321.27V378.68ZM1369.87 407.6C1366.87 407.6 1364.21 406.98 1361.89 405.74C1359.61 404.46 1357.83 402.7 1356.55 400.46C1355.27 398.22 1354.63 395.7 1354.63 392.9C1354.63 390.1 1355.25 387.58 1356.49 385.34C1357.77 383.1 1359.53 381.34 1361.77 380.06C1364.01 378.78 1366.55 378.14 1369.39 378.14C1372.19 378.14 1374.69 378.78 1376.89 380.06C1379.13 381.34 1380.87 383.1 1382.11 385.34C1383.35 387.58 1383.97 390.1 1383.97 392.9C1383.97 393.62 1383.93 394.14 1383.85 394.46H1359.19C1359.47 397.26 1360.57 399.48 1362.49 401.12C1364.45 402.76 1366.91 403.58 1369.87 403.58C1372.27 403.58 1374.23 403.18 1375.75 402.38C1377.27 401.54 1378.43 400.68 1379.23 399.8L1381.93 402.98C1381.05 404.06 1379.57 405.1 1377.49 406.1C1375.45 407.1 1372.91 407.6 1369.87 407.6ZM1369.33 382.22C1366.61 382.22 1364.33 383.02 1362.49 384.62C1360.65 386.18 1359.57 388.3 1359.25 390.98H1379.41C1379.13 388.3 1378.07 386.18 1376.23 384.62C1374.39 383.02 1372.09 382.22 1369.33 382.22ZM1391.17 378.68H1395.73V383.24C1396.73 381.8 1397.95 380.6 1399.39 379.64C1400.83 378.64 1402.43 378.14 1404.19 378.14C1404.75 378.14 1405.31 378.2 1405.87 378.32V382.82C1405.31 382.74 1404.75 382.7 1404.19 382.7C1402.35 382.7 1400.69 383.22 1399.21 384.26C1397.73 385.3 1396.57 386.58 1395.73 388.1V407H1391.17V378.68ZM1424.52 419.78C1421.56 419.78 1418.94 419.3 1416.66 418.34C1414.38 417.42 1412.66 416.44 1411.5 415.4L1413.84 411.92C1414.92 412.84 1416.36 413.7 1418.16 414.5C1419.96 415.3 1422.06 415.7 1424.46 415.7C1427.62 415.7 1430.06 414.86 1431.78 413.18C1433.5 411.54 1434.36 408.98 1434.36 405.5V402.68C1433.32 403.8 1431.92 404.78 1430.16 405.62C1428.4 406.42 1426.36 406.82 1424.04 406.82C1421.4 406.82 1419 406.22 1416.84 405.02C1414.68 403.82 1412.98 402.14 1411.74 399.98C1410.5 397.82 1409.88 395.36 1409.88 392.6C1409.88 389.72 1410.5 387.2 1411.74 385.04C1413.02 382.84 1414.74 381.14 1416.9 379.94C1419.06 378.74 1421.46 378.14 1424.1 378.14C1428.22 378.14 1431.64 379.5 1434.36 382.22V378.68H1438.86V405.5C1438.86 410.34 1437.54 413.92 1434.9 416.24C1432.3 418.6 1428.84 419.78 1424.52 419.78ZM1424.76 402.74C1427.12 402.74 1429.1 402.24 1430.7 401.24C1432.34 400.24 1433.56 399.06 1434.36 397.7V387.14C1433.56 385.9 1432.34 384.78 1430.7 383.78C1429.1 382.78 1427.14 382.28 1424.82 382.28C1421.82 382.28 1419.36 383.22 1417.44 385.1C1415.52 386.98 1414.56 389.46 1414.56 392.54C1414.56 395.58 1415.52 398.04 1417.44 399.92C1419.36 401.8 1421.8 402.74 1424.76 402.74ZM1449.45 419.78C1448.21 419.78 1447.13 419.6 1446.21 419.24V415.16C1447.09 415.48 1448.07 415.64 1449.15 415.64C1450.71 415.64 1452.01 415.18 1453.05 414.26C1454.13 413.38 1455.19 411.74 1456.23 409.34L1457.61 406.22L1444.83 378.68H1449.93L1459.95 401.12L1469.49 378.68H1474.35L1460.19 410.66C1458.75 413.86 1457.23 416.18 1455.63 417.62C1454.07 419.06 1452.01 419.78 1449.45 419.78Z" fill="#6D6D6D"/>
<path d="M1058.98 232.29C1067.44 236.79 1073.83 242.73 1078.15 250.11C1082.47 257.49 1084.63 266.13 1084.63 276.03C1084.63 287.73 1081.57 298.08 1075.45 307.08C1069.51 316.08 1060.96 323.1 1049.8 328.14C1038.64 333.18 1025.68 335.7 1010.92 335.7C994.54 335.7 979.96 332.82 967.18 327.06C954.58 321.12 945.04 314.19 938.56 306.27L959.35 283.05C972.85 297.45 989.77 304.65 1010.11 304.65C1022.35 304.65 1032.07 302.13 1039.27 297.09C1046.47 292.05 1050.07 285.03 1050.07 276.03C1050.07 267.21 1046.47 260.73 1039.27 256.59C1032.07 252.27 1021.36 250.11 1007.14 250.11H980.14V221.49H1007.14C1019.92 221.49 1029.1 219.33 1034.68 215.01C1040.26 210.51 1043.05 205.11 1043.05 198.81C1043.05 192.87 1040.35 187.92 1034.95 183.96C1029.73 179.82 1021.54 177.75 1010.38 177.75C1000.12 177.75 991.48 179.55 984.46 183.15C977.44 186.57 970.6 191.97 963.94 199.35L943.15 176.13C949.99 167.85 958.9 160.92 969.88 155.34C981.04 149.58 994.72 146.7 1010.92 146.7C1025.32 146.7 1037.56 148.95 1047.64 153.45C1057.72 157.95 1065.19 163.98 1070.05 171.54C1075.09 179.1 1077.61 187.47 1077.61 196.65C1077.61 212.13 1071.4 224.01 1058.98 232.29ZM1171.34 289.8L1138.4 333H1101.68L1152.71 266.31L1104.38 205.56H1143.53L1174.85 244.71L1203.47 205.56H1240.19L1192.94 267.93L1244.78 333H1205.63L1171.34 289.8Z" fill="#D4D4D4"/>
<line x1="906" y1="86" x2="906" y2="202" stroke="#A7A7A7" stroke-width="4"/>
<path d="M979.25 97.1L970.1 126H965.75L954.6 92H958.95L967.95 121.2L977.1 92H981.55L990.7 121.2L999.65 92H1003.9L992.8 126H988.45L979.25 97.1ZM1016.29 126.5C1014.62 126.5 1013.09 126.2 1011.69 125.6C1010.29 124.967 1009.17 124.067 1008.34 122.9C1007.5 121.733 1007.09 120.35 1007.09 118.75C1007.09 116.417 1007.95 114.6 1009.69 113.3C1011.42 112 1013.75 111.35 1016.69 111.35C1018.42 111.35 1020.04 111.533 1021.54 111.9C1023.07 112.267 1024.37 112.667 1025.44 113.1V111.85C1025.44 109.783 1024.8 108.183 1023.54 107.05C1022.3 105.883 1020.45 105.3 1017.99 105.3C1015.15 105.3 1012.47 106.1 1009.94 107.7L1008.39 104.7C1009.42 104 1010.79 103.367 1012.49 102.8C1014.22 102.233 1016.12 101.95 1018.19 101.95C1021.42 101.95 1024.04 102.783 1026.04 104.45C1028.04 106.083 1029.04 108.633 1029.04 112.1V126.05H1025.34V122C1024.67 123.133 1023.55 124.167 1021.99 125.1C1020.42 126.033 1018.52 126.5 1016.29 126.5ZM1016.94 123.35C1018.57 123.35 1020.04 123.05 1021.34 122.45C1022.64 121.817 1023.64 120.983 1024.34 119.95C1025.07 118.883 1025.44 117.717 1025.44 116.45V116.05C1024.57 115.617 1023.44 115.2 1022.04 114.8C1020.64 114.4 1019.05 114.2 1017.29 114.2C1015.35 114.2 1013.82 114.6 1012.69 115.4C1011.55 116.2 1010.99 117.283 1010.99 118.65C1010.99 120.117 1011.52 121.267 1012.59 122.1C1013.69 122.933 1015.14 123.35 1016.94 123.35ZM1046.31 126.5C1043.41 126.5 1041.29 125.75 1039.96 124.25C1038.62 122.717 1037.96 120.183 1037.96 116.65V105.65H1032.96V102.4H1037.96V95.95H1041.76V102.4H1048.86V105.65H1041.76V115.8C1041.76 117.7 1041.87 119.15 1042.11 120.15C1042.37 121.15 1042.86 121.883 1043.56 122.35C1044.26 122.817 1045.29 123.05 1046.66 123.05C1047.52 123.05 1048.36 122.917 1049.16 122.65V126.05C1048.32 126.35 1047.37 126.5 1046.31 126.5ZM1064.7 126.5C1062.2 126.5 1059.99 125.983 1058.05 124.95C1056.15 123.883 1054.67 122.417 1053.6 120.55C1052.54 118.683 1052 116.583 1052 114.25C1052 111.917 1052.52 109.817 1053.55 107.95C1054.62 106.083 1056.09 104.617 1057.95 103.55C1059.82 102.483 1061.94 101.95 1064.3 101.95C1066.64 101.95 1068.72 102.483 1070.55 103.55C1072.42 104.617 1073.87 106.083 1074.9 107.95C1075.94 109.817 1076.45 111.917 1076.45 114.25C1076.45 114.85 1076.42 115.283 1076.35 115.55H1055.8C1056.04 117.883 1056.95 119.733 1058.55 121.1C1060.19 122.467 1062.24 123.15 1064.7 123.15C1066.7 123.15 1068.34 122.817 1069.6 122.15C1070.87 121.45 1071.84 120.733 1072.5 120L1074.75 122.65C1074.02 123.55 1072.79 124.417 1071.05 125.25C1069.35 126.083 1067.24 126.5 1064.7 126.5ZM1064.25 105.35C1061.99 105.35 1060.09 106.017 1058.55 107.35C1057.02 108.65 1056.12 110.417 1055.85 112.65H1072.65C1072.42 110.417 1071.54 108.65 1070 107.35C1068.47 106.017 1066.55 105.35 1064.25 105.35ZM1082.46 102.4H1086.26V106.2C1087.09 105 1088.11 104 1089.31 103.2C1090.51 102.367 1091.84 101.95 1093.31 101.95C1093.78 101.95 1094.24 102 1094.71 102.1V105.85C1094.24 105.783 1093.78 105.75 1093.31 105.75C1091.78 105.75 1090.39 106.183 1089.16 107.05C1087.93 107.917 1086.96 108.983 1086.26 110.25V126H1082.46V102.4ZM1121.9 92V96.15H1117.85V92H1121.9ZM1114.7 136.65C1113.73 136.65 1112.77 136.5 1111.8 136.2V132.8C1112.6 133.1 1113.37 133.25 1114.1 133.25C1115.43 133.25 1116.42 132.867 1117.05 132.1C1117.72 131.367 1118.05 130.133 1118.05 128.4V102.4H1121.75V128.9C1121.75 131.567 1121.15 133.517 1119.95 134.75C1118.75 136.017 1117 136.65 1114.7 136.65ZM1128.08 114.25C1128.08 111.917 1128.61 109.817 1129.68 107.95C1130.75 106.083 1132.21 104.617 1134.08 103.55C1135.98 102.483 1138.11 101.95 1140.48 101.95C1142.88 101.95 1145.01 102.483 1146.88 103.55C1148.78 104.583 1150.25 106.05 1151.28 107.95C1152.35 109.817 1152.88 111.917 1152.88 114.25C1152.88 116.583 1152.35 118.683 1151.28 120.55C1150.25 122.417 1148.78 123.883 1146.88 124.95C1145.01 125.983 1142.88 126.5 1140.48 126.5C1138.08 126.5 1135.93 125.983 1134.03 124.95C1132.16 123.883 1130.7 122.417 1129.63 120.55C1128.6 118.683 1128.08 116.583 1128.08 114.25ZM1131.98 114.25C1131.98 116.883 1132.76 119.017 1134.33 120.65C1135.93 122.25 1137.98 123.05 1140.48 123.05C1143.05 123.05 1145.11 122.25 1146.68 120.65C1148.28 119.05 1149.08 116.917 1149.08 114.25C1149.08 111.583 1148.28 109.45 1146.68 107.85C1145.08 106.25 1143.01 105.45 1140.48 105.45C1137.95 105.45 1135.9 106.25 1134.33 107.85C1132.76 109.45 1131.98 111.583 1131.98 114.25ZM1168.27 126.5C1165.44 126.5 1163.2 125.667 1161.57 124C1159.94 122.3 1159.12 119.85 1159.12 116.65V102.4H1162.92V116C1162.92 120.733 1164.9 123.1 1168.87 123.1C1170.57 123.1 1172.05 122.683 1173.32 121.85C1174.62 121.017 1175.62 120.1 1176.32 119.1V102.4H1180.07V126.05H1176.32V123C1173.89 125.333 1171.2 126.5 1168.27 126.5ZM1187.83 102.4H1191.63V106.2C1192.46 105 1193.48 104 1194.68 103.2C1195.88 102.367 1197.21 101.95 1198.68 101.95C1199.15 101.95 1199.61 102 1200.08 102.1V105.85C1199.61 105.783 1199.15 105.75 1198.68 105.75C1197.15 105.75 1195.76 106.183 1194.53 107.05C1193.3 107.917 1192.33 108.983 1191.63 110.25V126H1187.83V102.4ZM1204.92 102.4H1208.72V105.25C1211.19 103.05 1213.95 101.95 1217.02 101.95C1219.92 101.95 1222.22 102.833 1223.92 104.6C1225.62 106.333 1226.47 108.8 1226.47 112V126H1222.72V112.8C1222.72 110.2 1222.14 108.317 1220.97 107.15C1219.8 105.95 1218.22 105.35 1216.22 105.35C1214.55 105.35 1213.05 105.75 1211.72 106.55C1210.42 107.35 1209.42 108.217 1208.72 109.15V126H1204.92V102.4ZM1245.42 126.5C1242.92 126.5 1240.7 125.983 1238.77 124.95C1236.87 123.883 1235.38 122.417 1234.32 120.55C1233.25 118.683 1232.72 116.583 1232.72 114.25C1232.72 111.917 1233.23 109.817 1234.27 107.95C1235.33 106.083 1236.8 104.617 1238.67 103.55C1240.53 102.483 1242.65 101.95 1245.02 101.95C1247.35 101.95 1249.43 102.483 1251.27 103.55C1253.13 104.617 1254.58 106.083 1255.62 107.95C1256.65 109.817 1257.17 111.917 1257.17 114.25C1257.17 114.85 1257.13 115.283 1257.07 115.55H1236.52C1236.75 117.883 1237.67 119.733 1239.27 121.1C1240.9 122.467 1242.95 123.15 1245.42 123.15C1247.42 123.15 1249.05 122.817 1250.32 122.15C1251.58 121.45 1252.55 120.733 1253.22 120L1255.47 122.65C1254.73 123.55 1253.5 124.417 1251.77 125.25C1250.07 126.083 1247.95 126.5 1245.42 126.5ZM1244.97 105.35C1242.7 105.35 1240.8 106.017 1239.27 107.35C1237.73 108.65 1236.83 110.417 1236.57 112.65H1253.37C1253.13 110.417 1252.25 108.65 1250.72 107.35C1249.18 106.017 1247.27 105.35 1244.97 105.35ZM1264.27 136.65C1263.24 136.65 1262.34 136.5 1261.57 136.2V132.8C1262.31 133.067 1263.12 133.2 1264.02 133.2C1265.32 133.2 1266.41 132.817 1267.27 132.05C1268.17 131.317 1269.06 129.95 1269.92 127.95L1271.07 125.35L1260.42 102.4H1264.67L1273.02 121.1L1280.97 102.4H1285.02L1273.22 129.05C1272.02 131.717 1270.76 133.65 1269.42 134.85C1268.12 136.05 1266.41 136.65 1264.27 136.65Z" fill="black"/>
</g>
</svg>
