<svg width="1920" height="1080" viewBox="0 0 1920 1080" fill="none" xmlns="http://www.w3.org/2000/svg">
<g clip-path="url(#clip0_398_8552)">
<rect x="356" y="583" width="23" height="65" transform="rotate(90 356 583)" fill="#E6E6E6"/>
<rect x="311" y="562" width="22" height="65" fill="#E6E6E6"/>
<path d="M1673.65 792.614C1657.12 792.614 1640.57 792.033 1624.06 792.75C1600.22 793.793 1574.53 778.376 1570.45 745.977C1568.57 731.038 1565.53 716.253 1563.24 701.365C1562.78 698.374 1561.51 696.673 1559.05 695.058C1517.33 667.642 1488.16 630.329 1472.82 582.452C1445.27 496.468 1477.12 401.459 1550.54 349.592C1588.87 322.509 1631.47 309.373 1678.21 310.023C1775.65 311.39 1861.04 382.162 1880.39 477.419C1897.57 562.018 1861.22 648.319 1788.65 695.024C1786.22 696.588 1784.87 698.229 1784.39 701.263C1781.59 718.8 1778.96 736.388 1775.43 753.788C1770.88 776.162 1751.05 792.238 1728.32 792.52C1710.1 792.742 1691.87 792.562 1673.64 792.562V792.605L1673.65 792.614ZM1673.72 346.071C1635.74 346.285 1601.27 357.412 1570.27 379.615C1514.84 419.321 1487.53 490.947 1502.81 556.831C1520.47 632.969 1585.12 687.973 1662.88 692.605C1699.2 694.767 1733.22 686.537 1764.6 667.787C1832.11 627.457 1863.72 547.216 1841.97 471.428C1820.72 397.383 1751.62 345.909 1673.72 346.08V346.071ZM1601.91 716.501C1603.56 726.363 1604.96 735.32 1606.59 744.225C1608.04 752.164 1613.26 756.728 1621.32 756.754C1656.34 756.856 1691.35 756.856 1726.36 756.754C1734.43 756.728 1739.49 752.147 1741.07 744.191C1741.55 741.823 1742 739.447 1742.38 737.072C1743.44 730.431 1744.46 723.791 1745.59 716.578C1697.47 732.892 1650.13 732.884 1601.91 716.501Z" fill="#E3E3E3"/>
<path d="M1673.54 853.979C1657.26 853.979 1640.99 854.043 1624.71 853.947C1615.39 853.89 1608.01 848.315 1606.18 840.274C1604.5 832.934 1608.52 825.086 1616.11 821.896C1618.92 820.719 1622.25 820.115 1625.35 820.107C1657.61 819.978 1689.88 819.97 1722.14 820.059C1733.99 820.091 1741.93 827.197 1741.8 837.261C1741.68 846.977 1733.44 853.955 1721.94 853.979C1705.81 854.011 1689.68 853.987 1673.54 853.979Z" fill="#E3E3E3"/>
<path d="M1925.83 310.008C1935.13 310.647 1940.87 313.839 1943.94 320.665C1946.98 327.423 1946.43 334.342 1941.29 339.696C1930.13 351.306 1918.69 362.677 1906.92 373.665C1900.01 380.125 1889.33 379.104 1882.86 372.337C1876.41 365.588 1875.95 354.872 1882.51 348.088C1893.52 336.726 1904.76 325.559 1916.31 314.749C1919.19 312.051 1923.63 311.047 1925.82 310L1925.83 310.008Z" fill="#E3E3E3"/>
<path d="M1483.38 661.012C1483.12 666.127 1481.35 670.56 1477.38 674.138C1465.76 684.617 1454.23 695.19 1442.48 705.55C1433.89 713.125 1421.91 713.014 1414.13 705.627C1406.39 698.273 1406.79 687.393 1415.23 679.715C1426.69 669.287 1438.16 658.86 1449.8 648.603C1455.95 643.188 1463.28 641.702 1471.29 644.785C1479.1 647.8 1482.76 653.565 1483.4 661.012H1483.38Z" fill="#E3E3E3"/>
<path d="M1932.2 693.182C1931.84 700.271 1928.68 705.893 1922.15 709.101C1915.62 712.3 1908.8 712.01 1903.52 707.062C1891.45 695.742 1879.63 684.114 1868.27 672.086C1862.22 665.688 1863.22 655.238 1869.29 648.797C1875.48 642.237 1885.54 641.29 1892.75 646.767C1894.99 648.464 1896.95 650.563 1898.96 652.551C1908.02 661.508 1917.01 670.533 1926.11 679.448C1929.95 683.21 1932.01 687.68 1932.2 693.191V693.182Z" fill="#E3E3E3"/>
<path d="M1462.98 359.815C1463.06 366.804 1458.72 373.596 1452.23 376.347C1444.78 379.508 1438.01 378.081 1432.3 372.528C1421.51 362.053 1410.79 351.51 1400.32 340.719C1398.08 338.404 1396.33 335.097 1395.54 331.945C1393.55 323.931 1397.19 316.275 1404.1 312.379C1410.96 308.509 1418.88 309.372 1424.95 314.883C1428.51 318.121 1431.84 321.624 1435.26 325.024C1442.52 332.21 1449.74 339.438 1457.05 346.572C1460.8 350.237 1462.69 354.646 1463 359.832L1462.98 359.815Z" fill="#E3E3E3"/>
<path d="M1394.81 534.353C1389.72 534.353 1384.63 534.465 1379.54 534.337C1368.34 534.047 1360.76 526.914 1361.01 517.028C1361.24 507.383 1369.07 500.508 1379.98 500.444C1390.02 500.387 1400.06 500.379 1410.1 500.444C1420.84 500.524 1428.83 507.673 1429 517.221C1429.17 526.673 1421.34 533.999 1410.51 534.313C1405.28 534.466 1400.04 534.337 1394.81 534.345V534.353Z" fill="#E3E3E3"/>
<path d="M1945.58 534.331C1940.36 534.331 1935.11 534.492 1929.89 534.291C1919.34 533.897 1911.67 526.575 1911.8 517.249C1911.94 507.722 1919.95 500.528 1930.67 500.456C1940.85 500.383 1951.04 500.375 1961.21 500.456C1971.79 500.544 1979.54 507.505 1979.79 516.999C1980.06 526.72 1972.61 533.929 1961.7 534.307C1956.33 534.492 1950.95 534.34 1945.58 534.331H1945.58Z" fill="#E3E3E3"/>
<path d="M1699.36 539.105C1696.24 539.105 1694.45 539.105 1692.66 539.105C1665.83 539.105 1639.01 539.14 1612.19 539.088C1601.56 539.071 1594.88 534.154 1592.7 524.885C1591.15 518.266 1593.32 512.716 1597.46 507.686C1615.99 485.188 1634.49 462.646 1652.99 440.122C1660.43 431.07 1667.84 421.984 1675.32 412.959C1682.74 403.994 1693.42 402.674 1701.36 409.641C1709.2 416.529 1709.64 427.735 1702.32 436.691C1685.47 457.26 1668.58 477.778 1651.71 498.322C1650.84 499.39 1650.02 500.52 1648.69 502.248C1650.78 502.344 1652.24 502.474 1653.7 502.474C1681.37 502.483 1709.04 502.431 1736.69 502.509C1747.98 502.535 1756.29 510.891 1755.32 521.776C1754.99 525.572 1753.42 529.854 1751.07 532.755C1724.68 565.278 1698.09 597.627 1671.41 629.897C1664.81 637.88 1653.56 638.506 1646.16 631.809C1638.9 625.242 1638.07 614.071 1644.58 606.079C1661.47 585.361 1678.49 564.757 1695.46 544.109C1696.52 542.815 1697.53 541.459 1699.37 539.097L1699.36 539.105Z" fill="#E3E3E3"/>
<line x1="1018" y1="120" x2="1018" y2="236" stroke="#A7A7A7" stroke-width="4"/>
<path d="M1072.1 136H1096.35V139.55H1076.1V150.95H1095V154.45H1076.1V166.5H1096.85V170H1072.1V136ZM1103.2 170V136H1107V170H1103.2ZM1125.97 170.5C1123.47 170.5 1121.25 169.983 1119.32 168.95C1117.42 167.883 1115.94 166.417 1114.87 164.55C1113.8 162.683 1113.27 160.583 1113.27 158.25C1113.27 155.917 1113.79 153.817 1114.82 151.95C1115.89 150.083 1117.35 148.617 1119.22 147.55C1121.09 146.483 1123.2 145.95 1125.57 145.95C1127.9 145.95 1129.99 146.483 1131.82 147.55C1133.69 148.617 1135.14 150.083 1136.17 151.95C1137.2 153.817 1137.72 155.917 1137.72 158.25C1137.72 158.85 1137.69 159.283 1137.62 159.55H1117.07C1117.3 161.883 1118.22 163.733 1119.82 165.1C1121.45 166.467 1123.5 167.15 1125.97 167.15C1127.97 167.15 1129.6 166.817 1130.87 166.15C1132.14 165.45 1133.1 164.733 1133.77 164L1136.02 166.65C1135.29 167.55 1134.05 168.417 1132.32 169.25C1130.62 170.083 1128.5 170.5 1125.97 170.5ZM1125.52 149.35C1123.25 149.35 1121.35 150.017 1119.82 151.35C1118.29 152.65 1117.39 154.417 1117.12 156.65H1133.92C1133.69 154.417 1132.8 152.65 1131.27 151.35C1129.74 150.017 1127.82 149.35 1125.52 149.35ZM1154.88 170.5C1152.41 170.5 1150.21 169.983 1148.28 168.95C1146.38 167.883 1144.89 166.417 1143.83 164.55C1142.76 162.683 1142.23 160.583 1142.23 158.25C1142.23 155.917 1142.76 153.817 1143.83 151.95C1144.89 150.05 1146.38 148.583 1148.28 147.55C1150.21 146.483 1152.41 145.95 1154.88 145.95C1157.18 145.95 1159.13 146.383 1160.73 147.25C1162.36 148.117 1163.58 149.033 1164.38 150L1162.03 152.6C1159.93 150.5 1157.56 149.45 1154.93 149.45C1152.26 149.45 1150.13 150.25 1148.53 151.85C1146.93 153.417 1146.12 155.55 1146.12 158.25C1146.12 160.95 1146.93 163.1 1148.53 164.7C1150.13 166.267 1152.28 167.05 1154.98 167.05C1156.81 167.05 1158.33 166.7 1159.53 166C1160.76 165.3 1161.71 164.567 1162.38 163.8L1164.88 166.3C1164.08 167.3 1162.86 168.25 1161.23 169.15C1159.59 170.05 1157.48 170.5 1154.88 170.5ZM1178.62 170.5C1175.72 170.5 1173.6 169.75 1172.27 168.25C1170.93 166.717 1170.27 164.183 1170.27 160.65V149.65H1165.27V146.4H1170.27V139.95H1174.07V146.4H1181.17V149.65H1174.07V159.8C1174.07 161.7 1174.18 163.15 1174.42 164.15C1174.68 165.15 1175.17 165.883 1175.87 166.35C1176.57 166.817 1177.6 167.05 1178.97 167.05C1179.83 167.05 1180.67 166.917 1181.47 166.65V170.05C1180.63 170.35 1179.68 170.5 1178.62 170.5ZM1185.81 146.4H1189.61V150.2C1190.45 149 1191.46 148 1192.66 147.2C1193.86 146.367 1195.2 145.95 1196.66 145.95C1197.13 145.95 1197.6 146 1198.06 146.1V149.85C1197.6 149.783 1197.13 149.75 1196.66 149.75C1195.13 149.75 1193.75 150.183 1192.51 151.05C1191.28 151.917 1190.31 152.983 1189.61 154.25V170H1185.81V146.4ZM1203.05 136H1207.05V140.15H1203.05V136ZM1203.2 146.4H1206.95V170H1203.2V146.4ZM1226.07 170.5C1223.6 170.5 1221.4 169.983 1219.47 168.95C1217.57 167.883 1216.08 166.417 1215.02 164.55C1213.95 162.683 1213.42 160.583 1213.42 158.25C1213.42 155.917 1213.95 153.817 1215.02 151.95C1216.08 150.05 1217.57 148.583 1219.47 147.55C1221.4 146.483 1223.6 145.95 1226.07 145.95C1228.37 145.95 1230.32 146.383 1231.92 147.25C1233.55 148.117 1234.77 149.033 1235.57 150L1233.22 152.6C1231.12 150.5 1228.75 149.45 1226.12 149.45C1223.45 149.45 1221.32 150.25 1219.72 151.85C1218.12 153.417 1217.32 155.55 1217.32 158.25C1217.32 160.95 1218.12 163.1 1219.72 164.7C1221.32 166.267 1223.47 167.05 1226.17 167.05C1228 167.05 1229.52 166.7 1230.72 166C1231.95 165.3 1232.9 164.567 1233.57 163.8L1236.07 166.3C1235.27 167.3 1234.05 168.25 1232.42 169.15C1230.78 170.05 1228.67 170.5 1226.07 170.5ZM1253.33 136V140.15H1249.28V136H1253.33ZM1246.13 180.65C1245.17 180.65 1244.2 180.5 1243.23 180.2V176.8C1244.03 177.1 1244.8 177.25 1245.53 177.25C1246.87 177.25 1247.85 176.867 1248.48 176.1C1249.15 175.367 1249.48 174.133 1249.48 172.4V146.4H1253.18V172.9C1253.18 175.567 1252.58 177.517 1251.38 178.75C1250.18 180.017 1248.43 180.65 1246.13 180.65ZM1259.51 158.25C1259.51 155.917 1260.04 153.817 1261.11 151.95C1262.18 150.083 1263.64 148.617 1265.51 147.55C1267.41 146.483 1269.54 145.95 1271.91 145.95C1274.31 145.95 1276.44 146.483 1278.31 147.55C1280.21 148.583 1281.68 150.05 1282.71 151.95C1283.78 153.817 1284.31 155.917 1284.31 158.25C1284.31 160.583 1283.78 162.683 1282.71 164.55C1281.68 166.417 1280.21 167.883 1278.31 168.95C1276.44 169.983 1274.31 170.5 1271.91 170.5C1269.51 170.5 1267.36 169.983 1265.46 168.95C1263.59 167.883 1262.13 166.417 1261.06 164.55C1260.03 162.683 1259.51 160.583 1259.51 158.25ZM1263.41 158.25C1263.41 160.883 1264.19 163.017 1265.76 164.65C1267.36 166.25 1269.41 167.05 1271.91 167.05C1274.48 167.05 1276.54 166.25 1278.11 164.65C1279.71 163.05 1280.51 160.917 1280.51 158.25C1280.51 155.583 1279.71 153.45 1278.11 151.85C1276.51 150.25 1274.44 149.45 1271.91 149.45C1269.38 149.45 1267.33 150.25 1265.76 151.85C1264.19 153.45 1263.41 155.583 1263.41 158.25ZM1299.7 170.5C1296.87 170.5 1294.63 169.667 1293 168C1291.37 166.3 1290.55 163.85 1290.55 160.65V146.4H1294.35V160C1294.35 164.733 1296.33 167.1 1300.3 167.1C1302 167.1 1303.48 166.683 1304.75 165.85C1306.05 165.017 1307.05 164.1 1307.75 163.1V146.4H1311.5V170.05H1307.75V167C1305.32 169.333 1302.63 170.5 1299.7 170.5ZM1319.26 146.4H1323.06V150.2C1323.9 149 1324.91 148 1326.11 147.2C1327.31 146.367 1328.65 145.95 1330.11 145.95C1330.58 145.95 1331.05 146 1331.51 146.1V149.85C1331.05 149.783 1330.58 149.75 1330.11 149.75C1328.58 149.75 1327.2 150.183 1325.96 151.05C1324.73 151.917 1323.76 152.983 1323.06 154.25V170H1319.26V146.4ZM1336.35 146.4H1340.15V149.25C1342.62 147.05 1345.39 145.95 1348.45 145.95C1351.35 145.95 1353.65 146.833 1355.35 148.6C1357.05 150.333 1357.9 152.8 1357.9 156V170H1354.15V156.8C1354.15 154.2 1353.57 152.317 1352.4 151.15C1351.24 149.95 1349.65 149.35 1347.65 149.35C1345.99 149.35 1344.49 149.75 1343.15 150.55C1341.85 151.35 1340.85 152.217 1340.15 153.15V170H1336.35V146.4ZM1376.85 170.5C1374.35 170.5 1372.13 169.983 1370.2 168.95C1368.3 167.883 1366.82 166.417 1365.75 164.55C1364.68 162.683 1364.15 160.583 1364.15 158.25C1364.15 155.917 1364.67 153.817 1365.7 151.95C1366.77 150.083 1368.23 148.617 1370.1 147.55C1371.97 146.483 1374.08 145.95 1376.45 145.95C1378.78 145.95 1380.87 146.483 1382.7 147.55C1384.57 148.617 1386.02 150.083 1387.05 151.95C1388.08 153.817 1388.6 155.917 1388.6 158.25C1388.6 158.85 1388.57 159.283 1388.5 159.55H1367.95C1368.18 161.883 1369.1 163.733 1370.7 165.1C1372.33 166.467 1374.38 167.15 1376.85 167.15C1378.85 167.15 1380.48 166.817 1381.75 166.15C1383.02 165.45 1383.98 164.733 1384.65 164L1386.9 166.65C1386.17 167.55 1384.93 168.417 1383.2 169.25C1381.5 170.083 1379.38 170.5 1376.85 170.5ZM1376.4 149.35C1374.13 149.35 1372.23 150.017 1370.7 151.35C1369.17 152.65 1368.27 154.417 1368 156.65H1384.8C1384.57 154.417 1383.68 152.65 1382.15 151.35C1380.62 150.017 1378.7 149.35 1376.4 149.35ZM1395.7 180.65C1394.67 180.65 1393.77 180.5 1393 180.2V176.8C1393.74 177.067 1394.55 177.2 1395.45 177.2C1396.75 177.2 1397.84 176.817 1398.7 176.05C1399.6 175.317 1400.49 173.95 1401.35 171.95L1402.5 169.35L1391.85 146.4H1396.1L1404.45 165.1L1412.4 146.4H1416.45L1404.65 173.05C1403.45 175.717 1402.19 177.65 1400.85 178.85C1399.55 180.05 1397.84 180.65 1395.7 180.65Z" fill="black"/>
<path d="M471.2 566.45H450.1V582H446.1V548H450.1V562.95H471.2V548H475.15V582H471.2V566.45ZM481.655 570.25C481.655 567.917 482.188 565.817 483.255 563.95C484.321 562.083 485.788 560.617 487.655 559.55C489.555 558.483 491.688 557.95 494.055 557.95C496.455 557.95 498.588 558.483 500.455 559.55C502.355 560.583 503.821 562.05 504.855 563.95C505.921 565.817 506.455 567.917 506.455 570.25C506.455 572.583 505.921 574.683 504.855 576.55C503.821 578.417 502.355 579.883 500.455 580.95C498.588 581.983 496.455 582.5 494.055 582.5C491.655 582.5 489.505 581.983 487.605 580.95C485.738 579.883 484.271 578.417 483.205 576.55C482.171 574.683 481.655 572.583 481.655 570.25ZM485.555 570.25C485.555 572.883 486.338 575.017 487.905 576.65C489.505 578.25 491.555 579.05 494.055 579.05C496.621 579.05 498.688 578.25 500.255 576.65C501.855 575.05 502.655 572.917 502.655 570.25C502.655 567.583 501.855 565.45 500.255 563.85C498.655 562.25 496.588 561.45 494.055 561.45C491.521 561.45 489.471 562.25 487.905 563.85C486.338 565.45 485.555 567.583 485.555 570.25ZM528.596 562.85L522.096 582H518.196L510.046 558.4H514.046L520.146 577.9L526.746 558.4H530.546L537.096 577.9L543.146 558.4H547.146L538.996 582H535.046L528.596 562.85ZM571.725 582.5C569.558 582.5 567.575 582 565.775 581C563.975 579.967 562.558 578.517 561.525 576.65C560.492 574.783 559.975 572.667 559.975 570.3C559.975 567.867 560.492 565.717 561.525 563.85C562.558 561.983 563.975 560.533 565.775 559.5C567.608 558.467 569.625 557.95 571.825 557.95C575.125 557.95 577.975 559.05 580.375 561.25V548H584.125V582.05H580.375V578.9C579.508 579.9 578.342 580.75 576.875 581.45C575.408 582.15 573.692 582.5 571.725 582.5ZM572.375 579.1C574.342 579.1 575.992 578.683 577.325 577.85C578.658 576.983 579.675 575.967 580.375 574.8V565.4C579.708 564.4 578.692 563.5 577.325 562.7C575.958 561.867 574.325 561.45 572.425 561.45C569.925 561.45 567.875 562.267 566.275 563.9C564.675 565.5 563.875 567.633 563.875 570.3C563.875 572.933 564.658 575.067 566.225 576.7C567.825 578.3 569.875 579.1 572.375 579.1ZM590.346 570.25C590.346 567.917 590.879 565.817 591.946 563.95C593.013 562.083 594.479 560.617 596.346 559.55C598.246 558.483 600.379 557.95 602.746 557.95C605.146 557.95 607.279 558.483 609.146 559.55C611.046 560.583 612.513 562.05 613.546 563.95C614.613 565.817 615.146 567.917 615.146 570.25C615.146 572.583 614.613 574.683 613.546 576.55C612.513 578.417 611.046 579.883 609.146 580.95C607.279 581.983 605.146 582.5 602.746 582.5C600.346 582.5 598.196 581.983 596.296 580.95C594.429 579.883 592.963 578.417 591.896 576.55C590.863 574.683 590.346 572.583 590.346 570.25ZM594.246 570.25C594.246 572.883 595.029 575.017 596.596 576.65C598.196 578.25 600.246 579.05 602.746 579.05C605.313 579.05 607.379 578.25 608.946 576.65C610.546 575.05 611.346 572.917 611.346 570.25C611.346 567.583 610.546 565.45 608.946 563.85C607.346 562.25 605.279 561.45 602.746 561.45C600.213 561.45 598.163 562.25 596.596 563.85C595.029 565.45 594.246 567.583 594.246 570.25ZM632.587 582.5C630.087 582.5 627.87 581.983 625.937 580.95C624.037 579.883 622.554 578.417 621.487 576.55C620.42 574.683 619.887 572.583 619.887 570.25C619.887 567.917 620.404 565.817 621.437 563.95C622.504 562.083 623.97 560.617 625.837 559.55C627.704 558.483 629.82 557.95 632.187 557.95C634.52 557.95 636.604 558.483 638.437 559.55C640.304 560.617 641.754 562.083 642.787 563.95C643.82 565.817 644.337 567.917 644.337 570.25C644.337 570.85 644.304 571.283 644.237 571.55H623.687C623.92 573.883 624.837 575.733 626.437 577.1C628.07 578.467 630.12 579.15 632.587 579.15C634.587 579.15 636.22 578.817 637.487 578.15C638.754 577.45 639.72 576.733 640.387 576L642.637 578.65C641.904 579.55 640.67 580.417 638.937 581.25C637.237 582.083 635.12 582.5 632.587 582.5ZM632.137 561.35C629.87 561.35 627.97 562.017 626.437 563.35C624.904 564.65 624.004 566.417 623.737 568.65H640.537C640.304 566.417 639.42 564.65 637.887 563.35C636.354 562.017 634.437 561.35 632.137 561.35ZM659.842 582.5C657.276 582.5 655.026 582.067 653.092 581.2C651.159 580.333 649.809 579.483 649.042 578.65L651.142 575.9C653.576 578.1 656.476 579.2 659.842 579.2C661.842 579.2 663.442 578.883 664.642 578.25C665.876 577.583 666.492 576.633 666.492 575.4C666.492 574.533 666.209 573.867 665.642 573.4C665.076 572.933 664.276 572.6 663.242 572.4C662.242 572.167 660.709 571.933 658.642 571.7C655.476 571.3 653.092 570.617 651.492 569.65C649.892 568.683 649.092 567.1 649.092 564.9C649.092 562.833 649.992 561.167 651.792 559.9C653.626 558.6 656.059 557.95 659.092 557.95C661.326 557.95 663.276 558.283 664.942 558.95C666.642 559.617 667.959 560.35 668.892 561.15L666.942 564C666.142 563.333 665.076 562.717 663.742 562.15C662.442 561.55 660.892 561.25 659.092 561.25C657.159 561.25 655.626 561.583 654.492 562.25C653.359 562.883 652.792 563.733 652.792 564.8C652.792 565.667 653.109 566.333 653.742 566.8C654.376 567.267 655.192 567.6 656.192 567.8C657.226 568 658.742 568.217 660.742 568.45C663.976 568.85 666.359 569.55 667.892 570.55C669.459 571.517 670.242 573.083 670.242 575.25C670.242 577.483 669.276 579.25 667.342 580.55C665.442 581.85 662.942 582.5 659.842 582.5ZM446 605H450V609.15H446V605ZM446.15 615.4H449.9V639H446.15V615.4ZM467.362 639.5C464.462 639.5 462.345 638.75 461.012 637.25C459.678 635.717 459.012 633.183 459.012 629.65V618.65H454.012V615.4H459.012V608.95H462.812V615.4H469.912V618.65H462.812V628.8C462.812 630.7 462.928 632.15 463.162 633.15C463.428 634.15 463.912 634.883 464.612 635.35C465.312 635.817 466.345 636.05 467.712 636.05C468.578 636.05 469.412 635.917 470.212 635.65V639.05C469.378 639.35 468.428 639.5 467.362 639.5ZM499.787 619.85L493.287 639H489.387L481.237 615.4H485.237L491.337 634.9L497.937 615.4H501.737L508.287 634.9L514.337 615.4H518.337L510.187 639H506.237L499.787 619.85ZM521.84 627.25C521.84 624.917 522.374 622.817 523.44 620.95C524.507 619.083 525.974 617.617 527.84 616.55C529.74 615.483 531.874 614.95 534.24 614.95C536.64 614.95 538.774 615.483 540.64 616.55C542.54 617.583 544.007 619.05 545.04 620.95C546.107 622.817 546.64 624.917 546.64 627.25C546.64 629.583 546.107 631.683 545.04 633.55C544.007 635.417 542.54 636.883 540.64 637.95C538.774 638.983 536.64 639.5 534.24 639.5C531.84 639.5 529.69 638.983 527.79 637.95C525.924 636.883 524.457 635.417 523.39 633.55C522.357 631.683 521.84 629.583 521.84 627.25ZM525.74 627.25C525.74 629.883 526.524 632.017 528.09 633.65C529.69 635.25 531.74 636.05 534.24 636.05C536.807 636.05 538.874 635.25 540.44 633.65C542.04 632.05 542.84 629.917 542.84 627.25C542.84 624.583 542.04 622.45 540.44 620.85C538.84 619.25 536.774 618.45 534.24 618.45C531.707 618.45 529.657 619.25 528.09 620.85C526.524 622.45 525.74 624.583 525.74 627.25ZM552.881 615.4H556.681V619.2C557.515 618 558.531 617 559.731 616.2C560.931 615.367 562.265 614.95 563.731 614.95C564.198 614.95 564.665 615 565.131 615.1V618.85C564.665 618.783 564.198 618.75 563.731 618.75C562.198 618.75 560.815 619.183 559.581 620.05C558.348 620.917 557.381 621.983 556.681 623.25V639H552.881V615.4ZM573.771 639H569.971V604.95H573.771V627.75L587.371 615.4H592.271L582.071 624.55L593.621 639H588.871L579.371 627.1L573.771 632.1V639ZM604.663 621.3H605.463C608.463 621.3 610.779 620.75 612.413 619.65C614.046 618.517 614.863 616.833 614.863 614.6C614.863 612.633 614.096 611.05 612.563 609.85C611.063 608.65 609.096 608.05 606.663 608.05C604.696 608.05 602.846 608.517 601.113 609.45C599.413 610.35 597.996 611.583 596.862 613.15L594.113 610.65C595.479 608.717 597.279 607.217 599.513 606.15C601.746 605.05 604.146 604.5 606.713 604.5C609.146 604.5 611.279 604.917 613.113 605.75C614.979 606.583 616.413 607.75 617.413 609.25C618.413 610.75 618.913 612.467 618.913 614.4C618.913 617.333 617.979 619.65 616.113 621.35C614.279 623.017 611.613 624.083 608.113 624.55V629.1H604.663V621.3ZM603.963 634.15H608.813V639H603.963V634.15Z" fill="black"/>
</g>
<defs>
<clipPath id="clip0_398_8552">
<rect width="1920" height="1080" fill="white"/>
</clipPath>
</defs>
</svg>
