<svg width="1920" height="1080" viewBox="0 0 1920 1080" fill="none" xmlns="http://www.w3.org/2000/svg">
<line x1="908" y1="120" x2="908" y2="236" stroke="#A7A7A7" stroke-width="4"/>
<path d="M975.8 139.55V170H971.85V139.55H958.85V136H988.9V139.55H975.8ZM993.539 136H997.339V149.2C999.773 147.033 1002.54 145.95 1005.64 145.95C1008.51 145.95 1010.79 146.833 1012.49 148.6C1014.22 150.333 1015.09 152.783 1015.09 155.95V170H1011.34V156.7C1011.34 154.133 1010.76 152.267 1009.59 151.1C1008.42 149.933 1006.84 149.35 1004.84 149.35C1003.17 149.35 1001.67 149.75 1000.34 150.55C999.039 151.317 998.039 152.15 997.339 153.05V170H993.539V136ZM1034.04 170.5C1031.54 170.5 1029.32 169.983 1027.39 168.95C1025.49 167.883 1024 166.417 1022.94 164.55C1021.87 162.683 1021.34 160.583 1021.34 158.25C1021.34 155.917 1021.85 153.817 1022.89 151.95C1023.95 150.083 1025.42 148.617 1027.29 147.55C1029.15 146.483 1031.27 145.95 1033.64 145.95C1035.97 145.95 1038.05 146.483 1039.89 147.55C1041.75 148.617 1043.2 150.083 1044.24 151.95C1045.27 153.817 1045.79 155.917 1045.79 158.25C1045.79 158.85 1045.75 159.283 1045.69 159.55H1025.14C1025.37 161.883 1026.29 163.733 1027.89 165.1C1029.52 166.467 1031.57 167.15 1034.04 167.15C1036.04 167.15 1037.67 166.817 1038.94 166.15C1040.2 165.45 1041.17 164.733 1041.84 164L1044.09 166.65C1043.35 167.55 1042.12 168.417 1040.39 169.25C1038.69 170.083 1036.57 170.5 1034.04 170.5ZM1033.59 149.35C1031.32 149.35 1029.42 150.017 1027.89 151.35C1026.35 152.65 1025.45 154.417 1025.19 156.65H1041.99C1041.75 154.417 1040.87 152.65 1039.34 151.35C1037.8 150.017 1035.89 149.35 1033.59 149.35ZM1051.79 146.4H1055.59V150.2C1056.42 149 1057.44 148 1058.64 147.2C1059.84 146.367 1061.17 145.95 1062.64 145.95C1063.11 145.95 1063.57 146 1064.04 146.1V149.85C1063.57 149.783 1063.11 149.75 1062.64 149.75C1061.11 149.75 1059.72 150.183 1058.49 151.05C1057.26 151.917 1056.29 152.983 1055.59 154.25V170H1051.79V146.4ZM1072.68 170H1068.88V146.4H1072.68V149.25C1074.88 147.05 1077.43 145.95 1080.33 145.95C1082.06 145.95 1083.6 146.333 1084.93 147.1C1086.26 147.867 1087.3 148.917 1088.03 150.25C1090.63 147.383 1093.53 145.95 1096.73 145.95C1099.5 145.95 1101.7 146.8 1103.33 148.5C1104.96 150.167 1105.78 152.533 1105.78 155.6V170H1101.98V156.35C1101.98 151.683 1100.01 149.35 1096.08 149.35C1094.55 149.35 1093.18 149.783 1091.98 150.65C1090.78 151.483 1089.86 152.433 1089.23 153.5V170H1085.43V156.35C1085.43 151.683 1083.46 149.35 1079.53 149.35C1078 149.35 1076.63 149.75 1075.43 150.55C1074.26 151.317 1073.35 152.167 1072.68 153.1V170ZM1121.41 170.5C1119.74 170.5 1118.21 170.2 1116.81 169.6C1115.41 168.967 1114.29 168.067 1113.46 166.9C1112.63 165.733 1112.21 164.35 1112.21 162.75C1112.21 160.417 1113.08 158.6 1114.81 157.3C1116.54 156 1118.88 155.35 1121.81 155.35C1123.54 155.35 1125.16 155.533 1126.66 155.9C1128.19 156.267 1129.49 156.667 1130.56 157.1V155.85C1130.56 153.783 1129.93 152.183 1128.66 151.05C1127.43 149.883 1125.58 149.3 1123.11 149.3C1120.28 149.3 1117.59 150.1 1115.06 151.7L1113.51 148.7C1114.54 148 1115.91 147.367 1117.61 146.8C1119.34 146.233 1121.24 145.95 1123.31 145.95C1126.54 145.95 1129.16 146.783 1131.16 148.45C1133.16 150.083 1134.16 152.633 1134.16 156.1V170.05H1130.46V166C1129.79 167.133 1128.68 168.167 1127.11 169.1C1125.54 170.033 1123.64 170.5 1121.41 170.5ZM1122.06 167.35C1123.69 167.35 1125.16 167.05 1126.46 166.45C1127.76 165.817 1128.76 164.983 1129.46 163.95C1130.19 162.883 1130.56 161.717 1130.56 160.45V160.05C1129.69 159.617 1128.56 159.2 1127.16 158.8C1125.76 158.4 1124.18 158.2 1122.41 158.2C1120.48 158.2 1118.94 158.6 1117.81 159.4C1116.68 160.2 1116.11 161.283 1116.11 162.65C1116.11 164.117 1116.64 165.267 1117.71 166.1C1118.81 166.933 1120.26 167.35 1122.06 167.35ZM1141.93 170V136H1145.73V170H1141.93ZM1175.85 136V140.15H1171.8V136H1175.85ZM1168.65 180.65C1167.69 180.65 1166.72 180.5 1165.75 180.2V176.8C1166.55 177.1 1167.32 177.25 1168.05 177.25C1169.39 177.25 1170.37 176.867 1171 176.1C1171.67 175.367 1172 174.133 1172 172.4V146.4H1175.7V172.9C1175.7 175.567 1175.1 177.517 1173.9 178.75C1172.7 180.017 1170.95 180.65 1168.65 180.65ZM1182.03 158.25C1182.03 155.917 1182.56 153.817 1183.63 151.95C1184.7 150.083 1186.16 148.617 1188.03 147.55C1189.93 146.483 1192.06 145.95 1194.43 145.95C1196.83 145.95 1198.96 146.483 1200.83 147.55C1202.73 148.583 1204.2 150.05 1205.23 151.95C1206.3 153.817 1206.83 155.917 1206.83 158.25C1206.83 160.583 1206.3 162.683 1205.23 164.55C1204.2 166.417 1202.73 167.883 1200.83 168.95C1198.96 169.983 1196.83 170.5 1194.43 170.5C1192.03 170.5 1189.88 169.983 1187.98 168.95C1186.11 167.883 1184.65 166.417 1183.58 164.55C1182.55 162.683 1182.03 160.583 1182.03 158.25ZM1185.93 158.25C1185.93 160.883 1186.71 163.017 1188.28 164.65C1189.88 166.25 1191.93 167.05 1194.43 167.05C1197 167.05 1199.06 166.25 1200.63 164.65C1202.23 163.05 1203.03 160.917 1203.03 158.25C1203.03 155.583 1202.23 153.45 1200.63 151.85C1199.03 150.25 1196.96 149.45 1194.43 149.45C1191.9 149.45 1189.85 150.25 1188.28 151.85C1186.71 153.45 1185.93 155.583 1185.93 158.25ZM1222.22 170.5C1219.39 170.5 1217.15 169.667 1215.52 168C1213.89 166.3 1213.07 163.85 1213.07 160.65V146.4H1216.87V160C1216.87 164.733 1218.85 167.1 1222.82 167.1C1224.52 167.1 1226 166.683 1227.27 165.85C1228.57 165.017 1229.57 164.1 1230.27 163.1V146.4H1234.02V170.05H1230.27V167C1227.84 169.333 1225.15 170.5 1222.22 170.5ZM1241.78 146.4H1245.58V150.2C1246.41 149 1247.43 148 1248.63 147.2C1249.83 146.367 1251.16 145.95 1252.63 145.95C1253.1 145.95 1253.56 146 1254.03 146.1V149.85C1253.56 149.783 1253.1 149.75 1252.63 149.75C1251.1 149.75 1249.71 150.183 1248.48 151.05C1247.25 151.917 1246.28 152.983 1245.58 154.25V170H1241.78V146.4ZM1258.87 146.4H1262.67V149.25C1265.14 147.05 1267.9 145.95 1270.97 145.95C1273.87 145.95 1276.17 146.833 1277.87 148.6C1279.57 150.333 1280.42 152.8 1280.42 156V170H1276.67V156.8C1276.67 154.2 1276.09 152.317 1274.92 151.15C1273.75 149.95 1272.17 149.35 1270.17 149.35C1268.5 149.35 1267 149.75 1265.67 150.55C1264.37 151.35 1263.37 152.217 1262.67 153.15V170H1258.87V146.4ZM1299.37 170.5C1296.87 170.5 1294.65 169.983 1292.72 168.95C1290.82 167.883 1289.34 166.417 1288.27 164.55C1287.2 162.683 1286.67 160.583 1286.67 158.25C1286.67 155.917 1287.19 153.817 1288.22 151.95C1289.29 150.083 1290.75 148.617 1292.62 147.55C1294.49 146.483 1296.6 145.95 1298.97 145.95C1301.3 145.95 1303.39 146.483 1305.22 147.55C1307.09 148.617 1308.54 150.083 1309.57 151.95C1310.6 153.817 1311.12 155.917 1311.12 158.25C1311.12 158.85 1311.09 159.283 1311.02 159.55H1290.47C1290.7 161.883 1291.62 163.733 1293.22 165.1C1294.85 166.467 1296.9 167.15 1299.37 167.15C1301.37 167.15 1303 166.817 1304.27 166.15C1305.54 165.45 1306.5 164.733 1307.17 164L1309.42 166.65C1308.69 167.55 1307.45 168.417 1305.72 169.25C1304.02 170.083 1301.9 170.5 1299.37 170.5ZM1298.92 149.35C1296.65 149.35 1294.75 150.017 1293.22 151.35C1291.69 152.65 1290.79 154.417 1290.52 156.65H1307.32C1307.09 154.417 1306.2 152.65 1304.67 151.35C1303.14 150.017 1301.22 149.35 1298.92 149.35ZM1318.22 180.65C1317.19 180.65 1316.29 180.5 1315.52 180.2V176.8C1316.26 177.067 1317.07 177.2 1317.97 177.2C1319.27 177.2 1320.36 176.817 1321.22 176.05C1322.12 175.317 1323.01 173.95 1323.87 171.95L1325.02 169.35L1314.37 146.4H1318.62L1326.97 165.1L1334.92 146.4H1338.97L1327.17 173.05C1325.97 175.717 1324.71 177.65 1323.37 178.85C1322.07 180.05 1320.36 180.65 1318.22 180.65Z" fill="black"/>
<path d="M1078.58 230.013C1074.3 230.013 1070.01 231.725 1066.49 234.822C1057.83 242.445 1050.49 251.101 1044.67 260.539C1032.88 279.665 1028.78 298.399 1032.12 317.814C1034.23 330.06 1039.75 340.505 1044.86 349.103C1057.25 369.941 1058.44 390.714 1048.5 412.604C1047.82 414.098 1047.42 415.534 1047.07 416.797C1046.94 417.246 1046.82 417.695 1046.68 418.137L1046.31 419.285L1046.39 420.49C1046.89 428.094 1051.75 434.307 1058.8 436.314C1060.4 436.769 1062.01 437 1063.6 437C1070.11 437 1075.63 433.236 1078.75 426.677C1088.07 407.032 1090.66 386.047 1086.44 364.318C1084.18 352.693 1079.46 341.377 1071.14 327.617C1063.09 314.32 1062.33 300.74 1068.83 286.102C1073.03 276.619 1079.51 268.072 1088.64 259.968C1092.43 256.596 1094.68 252.197 1094.97 247.581C1095.24 243.24 1093.74 238.983 1090.75 235.591C1087.58 231.988 1083.26 230 1078.58 230V230.013Z" fill="#EED9DB"/>
<path d="M1148.79 379.139C1148.35 375.162 1147.89 371.057 1147.16 366.959C1144.49 351.988 1137.86 339.109 1131.09 327.429C1124.2 315.531 1123.04 302.883 1127.62 289.836C1131.41 279.067 1138.14 269.459 1148.19 260.467C1156.13 253.36 1157.26 242.937 1150.88 235.689C1147.65 232.02 1143.3 230 1138.63 230C1133.96 230 1129.72 231.815 1125.83 235.253C1117.46 242.668 1110.32 251.134 1104.61 260.409C1092.55 280.017 1088.57 299.323 1092.41 319.437C1094.6 330.873 1099.71 340.629 1104.77 349.641C1117.69 372.687 1118.75 392.762 1108.13 412.813C1105.81 417.187 1105.63 422.299 1107.63 426.834C1109.74 431.593 1113.88 435.082 1119.01 436.416C1120.51 436.801 1122.01 437 1123.48 437C1129.66 437 1135.09 433.607 1138.36 427.7C1145.24 415.301 1148.86 401.473 1149.44 385.431L1149.46 384.918L1149.39 384.411C1149.17 382.66 1148.98 380.896 1148.78 379.139H1148.79Z" fill="#EED9DB"/>
<path d="M1018.42 230C1013.97 230 1009.69 231.872 1006.38 235.271C1005.7 235.969 1005.02 236.662 1004.33 237.361C998.641 243.157 992.761 249.152 987.951 256.071C966.589 286.777 965.412 317.733 984.451 348.074C996.808 367.765 998.215 388.821 988.746 412.43C988.192 413.815 987.785 415.142 987.397 416.424C987.244 416.931 987.085 417.437 986.926 417.944L986.563 419.066L986.621 420.246C987.003 428.235 992.144 434.615 999.716 436.493C1001.06 436.827 1002.43 437 1003.79 437C1010.31 437 1016.06 433.146 1018.8 426.953C1027.6 407.037 1030.22 386.321 1026.58 365.38C1024.44 353.03 1019.51 340.906 1011.07 327.236C1004.41 316.438 1002.85 304.852 1006.45 292.804C1010.02 280.82 1017.12 270.395 1028.79 260.007C1036.17 253.435 1037.09 243.067 1030.92 235.892C1027.7 232.148 1023.15 230 1018.42 230Z" fill="#EED9DB"/>
<rect x="357" y="724" width="23" height="65" transform="rotate(90 357 724)" fill="#E6E6E6"/>
<rect x="312" y="703" width="22" height="65" fill="#E6E6E6"/>
<path d="M425.2 709.45H404.1V725H400.1V691H404.1V705.95H425.2V691H429.15V725H425.2V709.45ZM435.655 713.25C435.655 710.917 436.188 708.817 437.255 706.95C438.321 705.083 439.788 703.617 441.655 702.55C443.555 701.483 445.688 700.95 448.055 700.95C450.455 700.95 452.588 701.483 454.455 702.55C456.355 703.583 457.821 705.05 458.855 706.95C459.921 708.817 460.455 710.917 460.455 713.25C460.455 715.583 459.921 717.683 458.855 719.55C457.821 721.417 456.355 722.883 454.455 723.95C452.588 724.983 450.455 725.5 448.055 725.5C445.655 725.5 443.505 724.983 441.605 723.95C439.738 722.883 438.271 721.417 437.205 719.55C436.171 717.683 435.655 715.583 435.655 713.25ZM439.555 713.25C439.555 715.883 440.338 718.017 441.905 719.65C443.505 721.25 445.555 722.05 448.055 722.05C450.621 722.05 452.688 721.25 454.255 719.65C455.855 718.05 456.655 715.917 456.655 713.25C456.655 710.583 455.855 708.45 454.255 706.85C452.655 705.25 450.588 704.45 448.055 704.45C445.521 704.45 443.471 705.25 441.905 706.85C440.338 708.45 439.555 710.583 439.555 713.25ZM482.596 705.85L476.096 725H472.196L464.046 701.4H468.046L474.146 720.9L480.746 701.4H484.546L491.096 720.9L497.146 701.4H501.146L492.996 725H489.046L482.596 705.85ZM525.725 725.5C523.558 725.5 521.575 725 519.775 724C517.975 722.967 516.558 721.517 515.525 719.65C514.492 717.783 513.975 715.667 513.975 713.3C513.975 710.867 514.492 708.717 515.525 706.85C516.558 704.983 517.975 703.533 519.775 702.5C521.608 701.467 523.625 700.95 525.825 700.95C529.125 700.95 531.975 702.05 534.375 704.25V691H538.125V725.05H534.375V721.9C533.508 722.9 532.342 723.75 530.875 724.45C529.408 725.15 527.692 725.5 525.725 725.5ZM526.375 722.1C528.342 722.1 529.992 721.683 531.325 720.85C532.658 719.983 533.675 718.967 534.375 717.8V708.4C533.708 707.4 532.692 706.5 531.325 705.7C529.958 704.867 528.325 704.45 526.425 704.45C523.925 704.45 521.875 705.267 520.275 706.9C518.675 708.5 517.875 710.633 517.875 713.3C517.875 715.933 518.658 718.067 520.225 719.7C521.825 721.3 523.875 722.1 526.375 722.1ZM544.346 713.25C544.346 710.917 544.879 708.817 545.946 706.95C547.013 705.083 548.479 703.617 550.346 702.55C552.246 701.483 554.379 700.95 556.746 700.95C559.146 700.95 561.279 701.483 563.146 702.55C565.046 703.583 566.513 705.05 567.546 706.95C568.613 708.817 569.146 710.917 569.146 713.25C569.146 715.583 568.613 717.683 567.546 719.55C566.513 721.417 565.046 722.883 563.146 723.95C561.279 724.983 559.146 725.5 556.746 725.5C554.346 725.5 552.196 724.983 550.296 723.95C548.429 722.883 546.963 721.417 545.896 719.55C544.863 717.683 544.346 715.583 544.346 713.25ZM548.246 713.25C548.246 715.883 549.029 718.017 550.596 719.65C552.196 721.25 554.246 722.05 556.746 722.05C559.313 722.05 561.379 721.25 562.946 719.65C564.546 718.05 565.346 715.917 565.346 713.25C565.346 710.583 564.546 708.45 562.946 706.85C561.346 705.25 559.279 704.45 556.746 704.45C554.213 704.45 552.163 705.25 550.596 706.85C549.029 708.45 548.246 710.583 548.246 713.25ZM586.587 725.5C584.087 725.5 581.87 724.983 579.937 723.95C578.037 722.883 576.554 721.417 575.487 719.55C574.42 717.683 573.887 715.583 573.887 713.25C573.887 710.917 574.404 708.817 575.437 706.95C576.504 705.083 577.97 703.617 579.837 702.55C581.704 701.483 583.82 700.95 586.187 700.95C588.52 700.95 590.604 701.483 592.437 702.55C594.304 703.617 595.754 705.083 596.787 706.95C597.82 708.817 598.337 710.917 598.337 713.25C598.337 713.85 598.304 714.283 598.237 714.55H577.687C577.92 716.883 578.837 718.733 580.437 720.1C582.07 721.467 584.12 722.15 586.587 722.15C588.587 722.15 590.22 721.817 591.487 721.15C592.754 720.45 593.72 719.733 594.387 719L596.637 721.65C595.904 722.55 594.67 723.417 592.937 724.25C591.237 725.083 589.12 725.5 586.587 725.5ZM586.137 704.35C583.87 704.35 581.97 705.017 580.437 706.35C578.904 707.65 578.004 709.417 577.737 711.65H594.537C594.304 709.417 593.42 707.65 591.887 706.35C590.354 705.017 588.437 704.35 586.137 704.35ZM613.842 725.5C611.276 725.5 609.026 725.067 607.092 724.2C605.159 723.333 603.809 722.483 603.042 721.65L605.142 718.9C607.576 721.1 610.476 722.2 613.842 722.2C615.842 722.2 617.442 721.883 618.642 721.25C619.876 720.583 620.492 719.633 620.492 718.4C620.492 717.533 620.209 716.867 619.642 716.4C619.076 715.933 618.276 715.6 617.242 715.4C616.242 715.167 614.709 714.933 612.642 714.7C609.476 714.3 607.092 713.617 605.492 712.65C603.892 711.683 603.092 710.1 603.092 707.9C603.092 705.833 603.992 704.167 605.792 702.9C607.626 701.6 610.059 700.95 613.092 700.95C615.326 700.95 617.276 701.283 618.942 701.95C620.642 702.617 621.959 703.35 622.892 704.15L620.942 707C620.142 706.333 619.076 705.717 617.742 705.15C616.442 704.55 614.892 704.25 613.092 704.25C611.159 704.25 609.626 704.583 608.492 705.25C607.359 705.883 606.792 706.733 606.792 707.8C606.792 708.667 607.109 709.333 607.742 709.8C608.376 710.267 609.192 710.6 610.192 710.8C611.226 711 612.742 711.217 614.742 711.45C617.976 711.85 620.359 712.55 621.892 713.55C623.459 714.517 624.242 716.083 624.242 718.25C624.242 720.483 623.276 722.25 621.342 723.55C619.442 724.85 616.942 725.5 613.842 725.5ZM400 748H404V752.15H400V748ZM400.15 758.4H403.9V782H400.15V758.4ZM421.362 782.5C418.462 782.5 416.345 781.75 415.012 780.25C413.678 778.717 413.012 776.183 413.012 772.65V761.65H408.012V758.4H413.012V751.95H416.812V758.4H423.912V761.65H416.812V771.8C416.812 773.7 416.928 775.15 417.162 776.15C417.428 777.15 417.912 777.883 418.612 778.35C419.312 778.817 420.345 779.05 421.712 779.05C422.578 779.05 423.412 778.917 424.212 778.65V782.05C423.378 782.35 422.428 782.5 421.362 782.5ZM453.787 762.85L447.287 782H443.387L435.237 758.4H439.237L445.337 777.9L451.937 758.4H455.737L462.287 777.9L468.337 758.4H472.337L464.187 782H460.237L453.787 762.85ZM475.84 770.25C475.84 767.917 476.374 765.817 477.44 763.95C478.507 762.083 479.974 760.617 481.84 759.55C483.74 758.483 485.874 757.95 488.24 757.95C490.64 757.95 492.774 758.483 494.64 759.55C496.54 760.583 498.007 762.05 499.04 763.95C500.107 765.817 500.64 767.917 500.64 770.25C500.64 772.583 500.107 774.683 499.04 776.55C498.007 778.417 496.54 779.883 494.64 780.95C492.774 781.983 490.64 782.5 488.24 782.5C485.84 782.5 483.69 781.983 481.79 780.95C479.924 779.883 478.457 778.417 477.39 776.55C476.357 774.683 475.84 772.583 475.84 770.25ZM479.74 770.25C479.74 772.883 480.524 775.017 482.09 776.65C483.69 778.25 485.74 779.05 488.24 779.05C490.807 779.05 492.874 778.25 494.44 776.65C496.04 775.05 496.84 772.917 496.84 770.25C496.84 767.583 496.04 765.45 494.44 763.85C492.84 762.25 490.774 761.45 488.24 761.45C485.707 761.45 483.657 762.25 482.09 763.85C480.524 765.45 479.74 767.583 479.74 770.25ZM506.881 758.4H510.681V762.2C511.515 761 512.531 760 513.731 759.2C514.931 758.367 516.265 757.95 517.731 757.95C518.198 757.95 518.665 758 519.131 758.1V761.85C518.665 761.783 518.198 761.75 517.731 761.75C516.198 761.75 514.815 762.183 513.581 763.05C512.348 763.917 511.381 764.983 510.681 766.25V782H506.881V758.4ZM527.771 782H523.971V747.95H527.771V770.75L541.371 758.4H546.271L536.071 767.55L547.621 782H542.871L533.371 770.1L527.771 775.1V782ZM558.663 764.3H559.463C562.463 764.3 564.779 763.75 566.413 762.65C568.046 761.517 568.863 759.833 568.863 757.6C568.863 755.633 568.096 754.05 566.563 752.85C565.063 751.65 563.096 751.05 560.663 751.05C558.696 751.05 556.846 751.517 555.113 752.45C553.413 753.35 551.996 754.583 550.862 756.15L548.113 753.65C549.479 751.717 551.279 750.217 553.513 749.15C555.746 748.05 558.146 747.5 560.713 747.5C563.146 747.5 565.279 747.917 567.113 748.75C568.979 749.583 570.413 750.75 571.413 752.25C572.413 753.75 572.913 755.467 572.913 757.4C572.913 760.333 571.979 762.65 570.113 764.35C568.279 766.017 565.613 767.083 562.113 767.55V772.1H558.663V764.3ZM557.963 777.15H562.813V782H557.963V777.15Z" fill="black"/>
<path d="M1383.34 411.7C1366.6 411.7 1352.11 407.74 1339.87 399.82C1327.81 391.9 1318.63 380.83 1312.33 366.61C1306.03 352.39 1302.88 336.01 1302.88 317.47C1302.88 299.11 1306.03 282.82 1312.33 268.6C1318.81 254.2 1328.08 243.04 1340.14 235.12C1352.38 227.02 1366.78 222.97 1383.34 222.97C1400.26 222.97 1414.75 227.02 1426.81 235.12C1439.05 243.04 1448.32 254.11 1454.62 268.33C1461.1 282.55 1464.34 298.93 1464.34 317.47C1464.34 335.83 1461.1 352.12 1454.62 366.34C1448.32 380.56 1439.05 391.72 1426.81 399.82C1414.57 407.74 1400.08 411.7 1383.34 411.7ZM1383.34 380.65C1397.74 380.65 1408.99 375.25 1417.09 364.45C1425.37 353.47 1429.51 337.81 1429.51 317.47C1429.51 297.13 1425.37 281.47 1417.09 270.49C1408.99 259.51 1397.74 254.02 1383.34 254.02C1369.12 254.02 1357.87 259.51 1349.59 270.49C1341.49 281.47 1337.44 297.13 1337.44 317.47C1337.44 337.63 1341.49 353.2 1349.59 364.18C1357.87 375.16 1369.12 380.65 1383.34 380.65ZM1485.82 275.62C1485.82 265.54 1488.16 256.54 1492.84 248.62C1497.52 240.52 1503.91 234.22 1512.01 229.72C1520.29 225.22 1529.65 222.97 1540.09 222.97C1550.53 222.97 1559.89 225.22 1568.17 229.72C1576.45 234.22 1582.93 240.52 1587.61 248.62C1592.29 256.54 1594.63 265.54 1594.63 275.62C1594.63 285.34 1592.29 294.25 1587.61 302.35C1582.93 310.27 1576.45 316.57 1568.17 321.25C1559.89 325.75 1550.53 328 1540.09 328C1529.65 328 1520.29 325.75 1512.01 321.25C1503.91 316.57 1497.52 310.27 1492.84 302.35C1488.16 294.25 1485.82 285.34 1485.82 275.62ZM1559.8 409.27H1525.24L1662.4 225.4H1697.23L1559.8 409.27ZM1515.79 275.35C1515.79 283.27 1518.04 289.57 1522.54 294.25C1527.04 298.75 1532.89 301 1540.09 301C1547.29 301 1553.14 298.75 1557.64 294.25C1562.14 289.57 1564.39 283.27 1564.39 275.35C1564.39 267.79 1562.14 261.76 1557.64 257.26C1553.14 252.58 1547.29 250.24 1540.09 250.24C1532.89 250.24 1527.04 252.58 1522.54 257.26C1518.04 261.76 1515.79 267.79 1515.79 275.35ZM1627.84 359.05C1627.84 348.97 1630.18 339.97 1634.86 332.05C1639.54 323.95 1645.93 317.65 1654.03 313.15C1662.31 308.65 1671.67 306.4 1682.11 306.4C1692.55 306.4 1701.91 308.65 1710.19 313.15C1718.47 317.65 1724.95 323.95 1729.63 332.05C1734.31 339.97 1736.65 348.97 1736.65 359.05C1736.65 368.95 1734.31 377.95 1729.63 386.05C1724.95 393.97 1718.47 400.27 1710.19 404.95C1701.91 409.45 1692.55 411.7 1682.11 411.7C1671.67 411.7 1662.31 409.45 1654.03 404.95C1645.93 400.27 1639.54 393.97 1634.86 386.05C1630.18 377.95 1627.84 368.95 1627.84 359.05ZM1657.81 359.05C1657.81 366.97 1660.06 373.18 1664.56 377.68C1669.06 382.18 1674.91 384.43 1682.11 384.43C1689.31 384.43 1695.16 382.18 1699.66 377.68C1704.16 373.18 1706.41 366.97 1706.41 359.05C1706.41 351.49 1704.16 345.37 1699.66 340.69C1695.16 336.01 1689.31 333.67 1682.11 333.67C1674.91 333.67 1669.06 336.01 1664.56 340.69C1660.06 345.37 1657.81 351.49 1657.81 359.05Z" fill="#EBEBEB"/>
</svg>
