<svg width="123" height="138" viewBox="0 0 123 138" fill="none" xmlns="http://www.w3.org/2000/svg">
<path d="M71.7208 0.00855721C68.8674 0.00855721 66.0054 1.14983 63.6573 3.21438C57.8867 8.29668 52.9951 14.0672 49.1141 20.3591C41.2544 33.1097 38.5198 45.5996 40.7491 58.5426C42.1545 66.7068 45.8317 73.6698 49.2372 79.4018C57.5003 93.2937 58.2943 107.143 51.666 121.736C51.2159 122.732 50.9484 123.689 50.7106 124.531C50.6257 124.83 50.545 125.13 50.4516 125.425L50.2096 126.19L50.2605 126.993C50.5917 132.063 53.8358 136.205 58.5321 137.543C59.6022 137.846 60.6765 138 61.7338 138C66.0734 138 69.7548 135.491 71.8312 131.118C78.0477 118.021 79.7759 104.031 76.9606 89.545C75.4532 81.7955 72.3068 74.2511 66.757 65.0782C61.3941 56.213 60.8888 47.1598 65.2199 37.4013C68.0224 31.0794 72.3408 25.3816 78.4256 19.9787C80.9563 17.7303 82.4552 14.7981 82.6463 11.7205C82.8246 8.8267 81.8268 5.98848 79.8353 3.7273C77.7207 1.32507 74.8418 0 71.7208 0V0.00855721Z" fill="#EED9DB"/>
<path d="M118.524 99.426C118.232 96.7749 117.927 94.0382 117.438 91.3059C115.657 81.3256 111.24 72.7394 106.729 64.9527C102.136 57.0207 101.359 48.5884 104.415 39.891C106.939 32.7116 111.425 26.3061 118.125 20.3111C123.421 15.5733 124.173 8.62473 119.919 3.79283C117.764 1.34694 114.867 0 111.755 0C108.643 0 105.81 1.2101 103.222 3.50205C97.6422 8.44513 92.8821 14.0895 89.0749 20.2726C81.0356 33.3444 78.3787 46.2152 80.9411 59.6248C82.4005 67.249 85.8085 73.7528 89.1779 79.7606C97.7925 95.1243 98.5007 108.508 91.4185 121.875C89.8733 124.791 89.7531 128.199 91.088 131.222C92.4915 134.395 95.2557 136.721 98.6766 137.611C99.6724 137.867 100.673 138 101.655 138C105.772 138 109.39 135.738 111.575 131.8C116.159 123.534 118.575 114.315 118.957 103.621L118.97 103.279L118.927 102.941C118.782 101.774 118.653 100.598 118.52 99.426H118.524Z" fill="#EED9DB"/>
<path d="M31.6118 0C28.6465 0 25.7958 1.24817 23.5857 3.51369C23.1318 3.97962 22.6779 4.44128 22.2197 4.9072C18.4272 8.77141 14.5075 12.7681 11.3004 17.3804C-2.94043 37.8513 -3.72523 58.4888 8.96726 78.7161C17.2055 91.8433 18.143 105.881 11.8307 121.62C11.4616 122.543 11.1901 123.428 10.9313 124.283C10.8295 124.621 10.7235 124.958 10.6174 125.296L10.3756 126.044L10.4138 126.831C10.6683 132.157 14.096 136.41 19.1442 137.662C20.0392 137.885 20.9555 138 21.8591 138C26.2073 138 30.038 135.431 31.8663 131.302C37.7332 118.025 39.4767 104.214 37.0545 90.2531C35.6249 82.0203 32.3414 73.9371 26.7164 64.8237C22.2748 57.6254 21.2355 49.9012 23.6323 41.8693C26.0164 33.8802 30.7464 26.9297 38.5265 20.005C43.4474 15.6235 44.0582 8.71156 39.9476 3.92832C37.8011 1.43198 34.7637 0 31.6118 0Z" fill="#EED9DB"/>
</svg>
