<svg width="160" height="99" viewBox="0 0 160 99" fill="none" xmlns="http://www.w3.org/2000/svg">
<path d="M159.408 78.8055C158.339 75.7193 155.799 73.8037 152.777 73.8037C150.61 73.8037 148.492 74.7871 146.971 76.5004C145.645 77.9946 144.123 79.3185 142.51 80.719C142.247 80.9467 141.985 81.1766 141.724 81.4043C139.961 82.9474 137.805 83.7967 135.652 83.7967C134.096 83.7967 132.578 83.3476 131.262 82.4983C129.789 81.5469 128.475 80.4721 127.356 79.3057C124.45 76.2727 121.567 73.791 118.543 71.72C115.815 69.8534 112.996 68.7126 110.136 68.3145V67.9102L107.915 68.0698C107.56 68.0953 107.187 68.1336 106.803 68.1868C105.111 68.2911 103.394 68.653 101.701 69.2638C97.8794 70.6409 94.2989 72.8843 91.0629 75.93L90.9238 76.0599C88.7091 78.1436 86.4175 80.2997 83.9869 82.0258C82.7021 82.9368 81.3923 83.4902 80.0909 83.669C77.8409 83.6157 75.7133 82.6537 73.9324 80.885C71.7965 78.7651 69.422 76.5281 66.6759 74.0506C63.0185 70.7516 59.025 68.836 54.803 68.355C53.8586 68.1677 52.9038 68.057 51.9635 68.0315L49.8318 67.9719V68.4295C46.3426 68.9382 43.0257 70.4259 39.9454 72.8651C37.6352 74.6934 35.408 76.6643 33.2555 78.5714C32.2779 79.4377 31.265 80.3337 30.2645 81.1979C28.2843 82.9091 26.0799 83.8137 23.8922 83.8158C21.7065 83.8158 19.5229 82.9112 17.5739 81.2021C16.7083 80.4423 15.8905 79.6335 15.0249 78.7757C14.4458 78.2032 13.846 77.6094 13.2316 77.0326C11.8761 75.7619 10.1616 75.0616 8.40148 75.0616C6.64131 75.0616 4.8334 75.7981 3.46138 77.1347C2.07691 78.482 1.2591 80.3295 1.21344 82.2046C1.17192 83.9158 1.77387 85.5313 2.90718 86.7509L3.33269 87.2085C5.40421 89.4434 7.54838 91.7527 10.0703 93.6065C14.3441 96.746 18.8753 98.3401 23.5352 98.3401C26.5138 98.3401 29.5608 97.6825 32.5913 96.3841C36.2756 94.807 39.1961 92.2422 41.5665 89.9435C41.9194 89.6009 42.2681 89.2582 42.6189 88.9134C44.8668 86.702 46.9881 84.6161 49.6097 83.2752C50.1577 82.9943 50.6953 82.792 51.2163 82.6707L51.5235 82.7303C52.2562 82.8729 53.0034 83.1879 53.7444 83.6711C54.8279 84.3756 55.926 85.2355 57.1008 86.3018C58.0743 87.183 59.0478 88.1237 59.9901 89.0304C61.3144 90.3054 62.6823 91.625 64.1186 92.8595C68.133 96.3096 73.2329 98.2103 78.4802 98.2103C78.5902 98.2103 78.7002 98.2103 78.8102 98.2082C79.078 98.2188 79.352 98.2231 79.6218 98.2231C81.5044 98.2231 83.4514 97.9762 85.4067 97.4888C91.5797 95.9499 96.1607 91.9826 99.8264 88.3047C101.393 86.7339 103.214 85.1972 105.236 83.7392C106.105 83.1134 106.998 82.7516 107.89 82.6665C108.816 82.8389 109.707 83.2986 110.605 84.0691C111.842 85.1269 113.277 86.3635 114.655 87.6172C116.019 88.858 117.391 90.1436 118.719 91.3887C119.151 91.7931 119.58 92.1954 120.012 92.5998C123.927 96.2564 129.403 98.3529 135.034 98.3529C139.432 98.3529 143.586 97.1142 147.046 94.7729C149.341 93.2192 151.477 91.4313 153.543 89.703C154.279 89.0879 155.041 88.4494 155.791 87.8407C157.434 86.504 158.636 84.9098 159.367 83.1007L159.525 82.709V79.1525L159.404 78.8077L159.408 78.8055Z" fill="#AFD3FB"/>
<path d="M3.17725 19.7706C4.63162 21.1601 6.13406 22.5956 7.72426 23.9287C12.1187 27.6082 17.1526 29.4762 22.6838 29.4762C24.6293 29.4762 26.6562 29.2422 28.7124 28.7783C33.6042 27.6751 37.4219 24.683 40.8176 21.6135L41.4424 21.0473C43.5863 19.1061 45.8034 17.0982 48.1208 15.4099C48.9232 14.8269 49.6838 14.4404 50.4215 14.2419L51.1445 14.3171C52.2812 14.4341 53.4242 14.9627 54.5443 15.8863C57.1354 18.028 59.8749 20.4727 62.9216 23.3666C66.9754 27.2175 72.1368 29.4511 77.4507 29.658H77.5092C77.645 29.6601 77.7788 29.6622 77.9125 29.6622C78.4558 29.6622 79.0054 29.6496 79.5466 29.6225C79.6281 29.6225 79.7075 29.6225 79.789 29.6225C81.9643 29.6225 84.1981 29.2923 86.4256 28.6383C91.9464 27.0211 96.2217 23.4063 99.6759 20.084C101.548 18.2829 103.266 16.8349 104.927 15.6564C106.003 14.8938 107.069 14.4445 108.099 14.3213C108.774 14.4257 109.455 14.7036 110.126 15.1487C111.576 16.114 113.041 17.2298 114.481 18.4647C115.455 19.3005 116.424 20.2073 117.36 21.087C118.244 21.9144 119.157 22.7711 120.102 23.5922C124.58 27.4891 129.603 29.4658 135.039 29.4658C137.623 29.4658 140.327 29.0123 143.075 28.118C148.253 26.4318 151.952 22.9048 155.529 19.4948C156.277 18.7823 157.051 18.0447 157.815 17.3468C157.995 17.1817 158.114 17.0209 158.189 16.9059C160.114 14.1562 159.947 10.7023 157.761 8.10089C156.465 6.56095 154.671 5.71053 152.708 5.71053C151.563 5.71053 150.424 5.99679 149.327 6.56304C148.393 7.04362 147.605 7.69135 146.891 8.31819C146.139 8.98056 145.399 9.66173 144.684 10.3199C143.842 11.0951 142.973 11.8975 142.104 12.6455C140.01 14.4508 137.807 15.366 135.557 15.366C133.34 15.366 131.169 14.4759 129.1 12.7207C128.222 11.9748 127.393 11.1745 126.513 10.3262C125.654 9.49666 124.766 8.63997 123.819 7.83135C122.125 6.38125 120.137 4.71803 118.01 3.32853C114.627 1.11996 111.075 0 107.453 0C104.135 0 100.721 0.944444 97.3042 2.80616C94.9032 4.11418 92.6171 5.82754 89.8944 8.35999L89.5182 8.70893C87.5373 10.5539 85.4874 12.4616 83.3058 13.9472C82.3383 14.6075 81.3332 15.0651 80.3197 15.3117C80.0815 15.3305 79.8412 15.3409 79.603 15.3409C79.1287 15.3409 78.6439 15.3033 78.1591 15.226C76.4205 14.9544 74.8303 14.0998 72.8389 12.3718C72.1368 11.7616 71.4368 11.1453 70.7367 10.5268C68.0704 8.17611 65.3142 5.74397 62.3323 3.63569C58.945 1.24115 55.3258 0.0271642 51.577 0.0271642C48.3862 0.0271642 45.1305 0.913101 41.9042 2.66199C39.7184 3.84672 37.7667 5.34696 35.7941 6.9078C34.555 7.88776 33.3555 8.92623 32.1958 9.92918C30.8501 11.093 29.4584 12.2966 28.0479 13.3705C26.2947 14.7057 24.4642 15.3827 22.6107 15.3827C20.6548 15.3827 18.7282 14.6326 16.8893 13.1532C15.9699 12.4136 15.1048 11.5882 14.1916 10.7148C13.6233 10.1736 13.0382 9.61158 12.4322 9.06831C10.8587 7.65792 9.1264 6.94332 7.27917 6.94332C6.47676 6.94332 5.65972 7.08331 4.85313 7.36122C2.22856 8.26178 0.619557 10.3283 0.32701 13.1804C0.0887937 15.4851 0.882845 17.5787 2.62141 19.2357L3.17098 19.7602L3.17725 19.7706Z" fill="#AFD3FB"/>
<path d="M11.5142 60.8309C15.3325 62.9384 19.2006 64.0079 23.0168 64.0079C26.5067 64.0079 30.0069 63.1125 33.4178 61.3489C36.0263 60.0005 38.1319 58.1195 40.1688 56.2993C40.5742 55.9365 40.9795 55.5758 41.3889 55.2172C43.7086 53.1915 46.1051 51.0966 48.6368 49.3938C49.4453 48.8507 50.2663 48.5865 51.1476 48.5865C51.1871 48.5865 51.2245 48.5865 51.264 48.5865C51.8647 48.7479 52.4675 49.029 53.0599 49.4211C54.1698 50.1571 55.3109 51.0379 56.5456 52.1157C58.0525 53.4306 59.5636 54.8062 61.0248 56.1378C61.8209 56.8634 62.619 57.5889 63.4193 58.3082C67.3124 61.8102 72.9327 63.9051 78.4574 63.9156C78.6632 63.9219 78.8669 63.924 79.0727 63.924C82.1448 63.924 85.3041 63.2362 88.4656 61.8794C92.0219 60.3528 94.9277 57.9475 97.5363 55.5779C99.6896 53.6214 102.257 51.3587 104.952 49.4274C105.381 49.1212 105.823 48.8822 106.274 48.7144C106.364 48.7102 106.451 48.7081 106.54 48.7081C107.603 48.7081 108.696 49.0709 109.785 49.786C110.934 50.5409 112.098 51.4384 113.242 52.4576C114.117 53.2376 114.948 54.0555 115.827 54.9215C116.465 55.5485 117.124 56.1986 117.8 56.8277C122.801 61.4957 128.13 63.9638 133.214 63.9638C133.302 63.9638 133.389 63.9638 133.474 63.9617H133.528C139.595 63.9617 143.927 62.5966 147.573 59.5329C149.371 58.023 151.15 56.4523 152.871 54.932C153.501 54.3763 154.128 53.8206 154.76 53.2691C155.193 52.8895 155.556 52.5226 155.866 52.1493C158.429 49.0814 158.246 44.7552 155.442 42.0899C154.099 40.8129 152.459 40.1376 150.697 40.1376C148.934 40.1376 147.09 40.88 145.613 42.2284C143.249 44.3862 141.256 46.1477 139.342 47.7749C137.785 49.0982 135.798 49.8279 133.751 49.8279C132.038 49.8279 130.394 49.3225 128.997 48.3663C128.153 47.7875 127.357 47.0578 126.515 46.284C126.074 45.8792 125.617 45.4598 125.141 45.053C124.341 44.3673 123.532 43.6438 122.751 42.9413C120.897 41.2784 118.978 39.5589 116.867 38.0847C113.447 35.6983 109.816 34.4883 106.073 34.4883C103.08 34.4883 100.014 35.2684 96.9647 36.8055C93.4686 38.567 90.6189 41.01 88.293 43.1678C88.0353 43.4069 87.7796 43.6459 87.5219 43.885C85.7406 45.5458 84.057 47.1165 82.2009 48.4313C81.1408 49.1841 80.0101 49.679 78.8399 49.9076C76.6553 49.8552 74.5373 48.8989 72.544 47.0661C72.1221 46.6782 71.7064 46.2861 71.2907 45.8939C70.7274 45.3634 70.1454 44.814 69.553 44.2792C68.9502 43.7361 68.3371 43.1615 67.7468 42.6058C66.2523 41.205 64.708 39.756 62.9953 38.4915C59.2643 35.7402 55.3338 34.3457 51.3139 34.3457C49.1543 34.3457 46.9532 34.7525 44.7686 35.5557C41.6217 36.7132 38.5912 38.5963 35.5046 41.3141C34.6005 42.1088 33.6942 42.9225 32.815 43.7088C31.3559 45.0153 29.8489 46.3657 28.3441 47.6491C26.6896 49.0583 24.7108 49.8027 22.6219 49.8027C20.3002 49.8027 18.0658 48.8612 16.3302 47.1521C15.0727 45.9149 13.6489 44.5141 12.1814 43.1993C10.7223 41.8907 8.94309 41.1715 7.17426 41.1715C5.40543 41.1715 3.70727 41.8907 2.41443 43.1972C-0.40198 46.0407 -0.42692 50.3857 2.35831 53.3026C4.95647 56.0225 7.86225 58.8178 11.508 60.8309H11.5142Z" fill="#AFD3FB"/>
</svg>
